<?xml version="1.0" encoding="UTF-8" standalone="no"?>
<!-- Created with Inkscape (http://www.inkscape.org/) -->

<svg
   version="1.1"
   id="svg2"
   width="858.39362"
   height="295.17542"
   viewBox="0 0 858.39361 295.17542"
   sodipodi:docname="tintin_banner.svg"
   inkscape:version="1.2.1 (9c6d41e410, 2022-07-14)"
   xmlns:inkscape="http://www.inkscape.org/namespaces/inkscape"
   xmlns:sodipodi="http://sodipodi.sourceforge.net/DTD/sodipodi-0.dtd"
   xmlns="http://www.w3.org/2000/svg"
   xmlns:svg="http://www.w3.org/2000/svg">
  <defs
     id="defs6" />
  <sodipodi:namedview
     id="namedview4"
     pagecolor="#ffffff"
     bordercolor="#666666"
     borderopacity="1.0"
     inkscape:showpageshadow="2"
     inkscape:pageopacity="0.0"
     inkscape:pagecheckerboard="0"
     inkscape:deskcolor="#d1d1d1"
     showgrid="false"
     inkscape:zoom="1.4142136"
     inkscape:cx="526.08744"
     inkscape:cy="7.7781746"
     inkscape:window-width="1920"
     inkscape:window-height="1009"
     inkscape:window-x="1272"
     inkscape:window-y="-8"
     inkscape:window-maximized="1"
     inkscape:current-layer="g8" />
  <g
     inkscape:groupmode="layer"
     inkscape:label="Image"
     id="g8"
     transform="translate(0.01348303,0.02622615)">
    <path
       style="fill:#3c9db0;fill-opacity:1;stroke-width:0.96"
       d="m 472.82592,208.81989 c -2.0944,-2.40878 -2.1168,-2.78449 -2.1168,-35.54721 v -33.11269 h -9.2098 c -8.2926,0 -9.2582,-0.18463 -9.6946,-1.8536 -0.2666,-1.01947 -1.0902,-2.08592 -1.8302,-2.36987 -1.5567,-0.59739 -1.996,-19.26108 -0.4754,-20.20085 0.6701,-0.41422 50.3438,-0.83051 69.0002,-0.57827 2.0973,0.0283 3.3573,0.60408 3.77,1.72259 0.3409,0.924 0.9884,1.92958 1.4389,2.23462 0.4505,0.30505 0.025,5.05705 -0.9447,10.56 l -1.7638,10.00538 -10.7335,0.27133 -10.7335,0.27132 -0.2518,35.24868 -0.2517,35.24866 -12.0433,0.26722 c -11.8466,0.26285 -12.0777,0.22747 -14.16,-2.16731 z m 24.7633,-0.2936 c 0,-0.41454 -5.076,-0.86125 -11.28,-0.99269 -7.8942,-0.16725 -10.8478,0.0545 -9.84,0.739 1.6769,1.13893 21.12,1.37247 21.12,0.25369 z m -2.6519,-38.36631 0.2519,-35.27999 10.7451,-0.27094 c 12.0676,-0.30427 11.222,0.3044 12.2949,-8.84906 0.3403,-2.904 0.8327,-6.036 1.0941,-6.96 0.4463,-1.57776 -1.6343,-1.68 -34.1868,-1.68 h -34.6621 l 0.2774,8.4 0.2773,8.4 10.8,0.27144 10.8,0.27144 v 35.48855 35.48856 h 11.0282 11.0282 z m -28.3082,-32.62563 c -2.508,-0.19776 -6.612,-0.19776 -9.12,0 -2.508,0.19776 -0.456,0.35956 4.56,0.35956 5.016,0 7.068,-0.1618 4.56,-0.35956 z m 53.0405,-0.0144 c 3e-4,-0.396 -3.9957,-0.59751 -8.88,-0.44779 -13.772,0.42217 -14.8117,0.86568 -2.4004,1.02395 6.204,0.0791 11.2802,-0.18016 11.2804,-0.57616 z m 0.6613,-6.72 c -0.2415,-0.924 -0.439,-0.168 -0.439,1.68 0,1.848 0.1975,2.604 0.439,1.68 0.2415,-0.924 0.2415,-2.436 0,-3.36 z m 12.0981,78.71999 c -0.3409,-0.924 -0.9985,-1.9358 -1.4613,-2.24845 -0.4628,-0.31265 -0.8267,-20.31298 -0.8086,-44.44518 0.021,-28.43809 -0.2983,-43.672 -0.9085,-43.29488 -1.3115,0.81055 -1.122,-0.65386 0.332,-2.56548 0.9502,-1.24921 3.072,-1.63273 9.8095,-1.77303 16.4806,-0.34317 17.7171,-0.20868 17.7171,1.92707 0,1.056 0.432,1.92 0.96,1.92 0.6266,0 0.96,16 0.96,46.07999 v 46.08 h -12.9902 c -11.4954,0 -13.0614,-0.1933 -13.61,-1.68 z m 20.3602,-1.19996 c 0.3803,-0.61543 -2.7866,-0.95472 -8.8234,-0.9453 -6.4344,0.0101 -8.9606,0.30942 -7.9766,0.9453 1.9037,1.23033 16.0396,1.23033 16.8,0 z m 4.32,0 c 0,-0.528 -0.4066,-0.96 -0.9034,-0.96 -0.4968,0 -1.1703,0.432 -1.4966,0.96 -0.3264,0.528 0.08,0.96 0.9033,0.96 0.8232,0 1.4967,-0.432 1.4967,-0.96 z m -2.6589,-47.04025 0.2589,-44.16027 -11.28,2.7e-4 -11.28,2.6e-4 v 44.15999 44.16 h 11.0211 11.0211 z m 23.3078,48.02838 c -0.3401,-1.07146 -1.0212,-1.94813 -1.5136,-1.94813 -1.4814,0 -1.1769,-92.14755 0.3047,-92.21301 17.0703,-0.75431 29.9239,1.2491 26.9694,4.20356 -0.2588,0.25879 2.0452,4.94042 5.12,10.4036 3.0748,5.4632 6.4306,11.52503 7.4572,13.47075 1.0267,1.94571 2.2815,3.28134 2.7884,2.96805 0.5069,-0.31327 0.6217,-0.0843 0.2551,0.50891 -0.3667,0.59318 0.1955,2.71193 1.2492,4.70833 l 1.9158,3.62981 0.042,-19.38334 c 0.05,-22.69339 -1.17,-20.79945 13.2514,-20.57729 16.1247,0.24842 14.6227,-4.98388 14.3648,50.04063 l -0.2138,45.6 -12.2494,0.26875 c -11.6987,0.25668 -16.8602,-0.61448 -15.6115,-2.63492 0.2821,-0.45641 0.1247,-0.97473 -0.3498,-1.15183 -0.8465,-0.31591 -2.4099,-3.10168 -12.5722,-22.402 -2.7801,-5.28 -5.3252,-9.90316 -5.6559,-10.2737 -0.3306,-0.37055 -0.6012,7.62145 -0.6012,17.75999 v 18.43371 l -12.1664,0.26813 c -11.5029,0.25352 -12.2001,0.1619 -12.7846,-1.68 z m 23.5111,-1.52479 c 0,-0.84494 -0.4603,-1.21217 -1.0571,-0.84334 -0.5814,0.35932 -5.3334,0.57963 -10.56,0.48958 -6.0955,-0.10502 -9.5029,0.19738 -9.5029,0.84334 0,0.64174 3.8309,1.00708 10.56,1.00708 8.9243,0 10.56,-0.23182 10.56,-1.49666 z m 47.0253,-0.74722 c -0.011,-1.60612 -0.2107,-1.76657 -0.8801,-0.70876 -0.6833,1.07966 -3.2266,1.31663 -12.0876,1.12627 -7.9315,-0.17039 -11.0318,0.0668 -10.5732,0.80888 1.419,2.29589 23.5576,1.14253 23.5409,-1.22639 z m -50.0151,-23.85158 c -0.3014,-24.1735 0.3254,-27.05105 3.8439,-17.6471 1.0945,2.92535 6.0616,12.99216 11.038,22.37069 l 9.048,17.05187 11.6099,0.26955 11.61,0.26955 v -44.18955 -44.18954 h -10.6335 -10.6335 l 0.2382,21.62725 c 0.2303,20.90498 -0.758,28.97256 -2.6587,21.70405 -0.8035,-3.0725 -6.5423,-14.45202 -15.0745,-29.8913 l -7.1621,-12.96 -11.118,-0.27047 -11.1179,-0.27047 v 44.19046 44.19047 h 10.6438 10.6439 z m 2.7087,-12.53334 c -0.2296,-1.19416 -0.4262,-0.4432 -0.4369,1.6688 -0.011,2.112 0.1773,3.08904 0.4176,2.1712 0.2402,-0.91785 0.2489,-2.64585 0.019,-3.84 z m 81.1904,38.8688 c -0.3467,-0.924 -1.2188,-2.12202 -1.9379,-2.66228 -1.0613,-0.79728 -1.2943,-7.17069 -1.2371,-33.84 l 0.071,-32.85771 h -9.1726 c -7.8556,0 -9.2631,-0.2412 -9.8029,-1.68 -0.3467,-0.924 -1.214,-2.11854 -1.9274,-2.65453 -0.9726,-0.73082 -1.2276,-3.3717 -1.0195,-10.56 l 0.2775,-9.58547 23.52,-0.48 23.52,-0.48 -3.6343,-1.80568 c -1.9989,-0.99312 -3.4235,-2.01654 -3.1657,-2.27429 0.2577,-0.25773 -0.1589,-1.09604 -0.9257,-1.86289 -2.4566,-2.45662 -1.9465,-17.208819 0.6183,-17.879519 2.7143,-0.70981 4.2651,0.003 5.4807,2.51838 l 1.0168,2.104 0.065,-2.04804 c 0.1113,-3.51159 7.7449,-3.41589 7.7449,0.0971 0,0.80902 0.4633,1.47094 1.0295,1.47094 2.2992,0 0.6521,16.623949 -1.7665,17.829169 -4.3581,2.17168 -3.3987,2.51325 6.497,2.31326 13.4516,-0.27185 13.44,-0.27346 13.44,1.85757 0,1.01199 0.4233,1.98399 0.9407,2.16 1.1345,0.38591 -0.7702,17.96427 -2.1377,19.72844 -0.5849,0.75464 -4.5283,1.26463 -11.1344,1.44 l -10.2286,0.27156 -0.1736,33.59999 c -0.095,18.48 -0.2034,34.356 -0.24,35.28 -0.06,1.51066 -1.3274,1.68 -12.5765,1.68 -11.0343,0 -12.5845,-0.19819 -13.1405,-1.68 z m 23.7307,-1.15101 c 0,-0.4413 -4.968,-0.86595 -11.04,-0.94365 -6.9546,-0.089 -11.04,0.22098 -11.04,0.83764 0,0.61051 4.1547,0.96564 11.04,0.94365 6.072,-0.0194 11.04,-0.39633 11.04,-0.83764 z m 11.5321,-70.12898 c 5.8013,0 10.5479,-0.18068 10.5479,-0.40149 0,-0.22082 0.2486,-1.19282 0.5524,-2.16 0.516,-1.6423 0.4811,-1.64748 -0.5277,-0.0785 -0.9207,1.43195 -2.6322,1.68 -11.5924,1.68 l -10.5123,1e-5 0.2274,34.79999 0.2275,34.8 0.2647,-34.32 0.2646,-34.31999 z m -13.4521,31.67999 v -35.51999 h 10.828 10.8281 l 1.1719,-7.448 c 0.6446,-4.0964 1.172,-7.9844 1.172,-8.64 0,-0.92696 -7.5779,-1.192 -34.08,-1.192 h -34.08 v 8.60856 8.60856 l 10.7949,0.27144 10.795,0.27144 -0.3347,35.27999 -0.3346,35.28 h 11.6197 11.6197 z m -29.04,-32.38563 c -2.508,-0.19776 -6.612,-0.19776 -9.12,0 -2.508,0.19776 -0.456,0.35956 4.56,0.35956 5.016,0 7.068,-0.1618 4.56,-0.35956 z m 35.6341,-26.50269 c 0.588,-0.70858 0.8356,-1.52188 0.5502,-1.80734 -0.6588,-0.65883 -5.2068,1.41227 -5.2169,2.37567 -0.013,1.22487 3.5373,0.79253 4.6667,-0.56833 z m -3.651,-3.54545 c 2.4193,-1.29477 2.8385,-14.366219 0.4607,-14.366219 -1.0556,0 -1.4654,1.5806 -1.68,6.48 -0.2714,6.196299 -0.3889,6.479999 -2.6838,6.479999 -2.295,0 -2.4125,-0.2837 -2.6839,-6.479999 -0.4005,-9.14305 -3.0761,-9.41145 -3.0761,-0.30858 0,8.389539 3.5979,11.440769 9.6631,8.194799 z m -4.1979,-8.347949 c -0.2434,-0.93406 -0.4585,-0.40227 -0.4781,1.181729 -0.02,1.584 0.1796,2.34821 0.4426,1.69827 0.2629,-0.64995 0.2789,-1.94595 0.036,-2.879999 z m 38.2148,110.141719 c -0.3352,-1.056 -1.0123,-1.92 -1.5047,-1.92 -0.5413,0 -0.8953,-18.19937 -0.8953,-46.02663 v -46.02662 l 12.5776,-0.29338 c 18.055,-0.42112 16.8526,-7.31113 16.2414,93.06663 l -0.019,3.12 h -12.8953 c -12.0522,0 -12.9352,-0.12554 -13.5047,-1.92 z m 24.48,-0.85669 c 0,-0.47118 -4.968,-0.92027 -11.04,-0.99797 -7.0907,-0.0907 -11.04,0.21573 -11.04,0.8567 0,0.63277 4.0399,0.99796 11.04,0.99796 6.072,0 11.04,-0.3855 11.04,-0.85669 z m 0.7192,-66.03776 c -0.1524,-12.04804 -0.2773,-2.46554 -0.2775,21.29445 -2e-4,23.76 0.1245,33.6175 0.2771,21.90555 0.1527,-11.71195 0.1528,-31.15195 4e-4,-43.2 z m -2.6392,18.89445 v -44.15999 h -11.52 -11.52 v 44.15999 44.16 h 11.52 11.52 z m 23.3093,48.24 c -0.3467,-0.924 -1.2024,-2.112 -1.9016,-2.64 -1.0296,-0.77759 -1.2233,-9.53332 -1.0194,-46.08 l 0.2517,-45.11999 3.3364,-0.48 c 1.835,-0.264 7.6401,-0.264 12.9003,0 l 9.5638,0.48 3.8687,7.36752 c 2.1278,4.05213 4.2734,7.11738 4.768,6.81167 0.4947,-0.30572 0.6285,-0.1175 0.2974,0.41827 -0.7373,1.193 11.2498,23.57813 12.146,22.6819 0.3516,-0.35165 0.6394,-8.95536 0.6394,-19.11936 0,-11.22548 0.3697,-18.60563 0.9418,-18.80001 0.5181,-0.17599 6.0392,-0.18808 12.2692,-0.0269 l 11.3273,0.29315 1.1804,2.66675 c 0.8913,2.01362 1.1193,13.69773 0.9309,47.70686 l -0.2496,45.04012 -12.4654,0.27037 -12.4654,0.27036 -2.4146,-2.80831 c -1.3281,-1.54458 -6.0866,-9.93958 -10.5746,-18.65556 l -8.16,-15.84723 -0.2603,18.62518 -0.2603,18.62519 h -12.0099 c -10.5578,0 -12.086,-0.20311 -12.6402,-1.68 z m 22.7707,-1.08535 c 0,-0.46495 -4.542,-0.86527 -10.0932,-0.88961 -5.9633,-0.0261 -9.8682,0.31976 -9.5433,0.84536 0.7009,1.13406 19.6365,1.17672 19.6365,0.0443 z m 47.04,0.008 c 0,-0.46091 -5.5076,-0.87687 -12.239,-0.92434 -8.0485,-0.0567 -11.7463,0.22512 -10.8,0.82332 1.8097,1.14365 23.039,1.23674 23.039,0.10067 z m -49.2291,-25.56233 c -0.5683,-22.52537 -0.039,-26.66926 2.4849,-19.44 0.9511,2.72471 12.7287,26.23977 18.9924,37.92 l 2.188,4.08 h 11.8219 11.8219 v -44.16 -44.15999 h -10.56 -10.56 v 22.15038 c 0,23.89716 -0.8849,27.21642 -4.6777,17.54648 -0.8593,-2.19073 -5.8823,-12.00174 -11.1623,-21.80224 l -9.6,-17.8191 -11.04,-0.038 -11.04,-0.038 0.2589,44.16026 0.2588,44.16026 h 10.6911 10.6911 l -0.569,-22.56 z m -250.7709,-69.31234 c -1.056,-0.2473 -2.4868,-1.16918 -3.1794,-2.04864 -1.1717,-1.48773 -1.3461,-1.4821 -2.5058,0.081 -1.7458,2.35297 -5.4402,2.06315 -7.9899,-0.62678 l -2.1551,-2.27362 2.658,-8.0298 c 3.6608,-11.058909 3.2011,-10.620799 10.0522,-9.579249 0.396,0.0602 0.72,0.70456 0.72,1.43191 0,0.72735 0.6827,1.88907 1.5171,2.58161 0.8757,0.72675 1.3403,2.18488 1.0987,3.4485 -0.2492,1.30391 -0.03,1.949249 0.542,1.595699 0.587,-0.362759 0.775,0.37679 0.4835,1.90166 -0.2905,1.51956 -0.063,2.41997 0.5808,2.30268 0.5818,-0.10594 1.1038,0.67139 1.1599,1.72739 0.056,1.056 0.4264,2.676 0.8227,3.6 0.7842,1.82819 0.07,4.62751 -1.1346,4.44864 -0.4126,-0.0612 -1.6141,-0.31368 -2.6701,-0.56098 z m -7.2147,-4.40551 c 0.01,-0.41681 -0.588,-0.20081 -1.3246,0.48 -0.7366,0.68083 -1.1146,1.60797 -0.84,2.06035 0.498,0.82044 2.1367,-1.10272 2.1646,-2.54035 z m -2.8653,-2.60214 c 1.3821,-2.58249 5.1679,-2.45228 6.9779,0.24 2.5501,3.79305 2.7952,1.15015 0.5955,-6.42032 -2.8397,-9.772959 -4.8878,-9.787929 -8.1697,-0.0597 -2.7992,8.29747 -2.4516,11.93497 0.5963,6.24 z m 1.92,-5.28 c 0,-2.684609 2.3262,-3.307739 3.2604,-0.87337 0.7286,1.89879 -0.06,3.27337 -1.8771,3.27337 -0.8356,0 -1.3833,-0.95036 -1.3833,-2.4 z m 24.8567,12.12558 c -3.9135,-1.30449 -4.7707,-3.85465 -4.4911,-13.35993 l 0.2744,-9.325649 5.76,0.30679 c 6.1456,0.32733 9.12,2.31551 9.12,6.09621 0,1.02867 0.4193,1.61114 0.9318,1.29439 2.6959,-1.66616 2.2693,9.935719 -0.4769,12.970259 -1.448,1.60005 -8.5208,2.88374 -11.1182,2.01793 z m 8.5296,-2.58002 c 1.1735,-0.82194 2.1337,-2.21406 2.1337,-3.09361 0,-1.26335 -0.3139,-1.15112 -1.4945,0.53444 -1.1102,1.58505 -2.5294,2.16281 -5.52,2.24718 -4.0472,0.11421 -3.7305,0.3535 2.2408,1.69285 0.2786,0.0625 1.4666,-0.55892 2.64,-1.38086 z m -1.0447,-4.8316 c 3.98,-5.44295 0.4645,-12.873959 -6.0904,-12.873959 h -4.1712 v 7.804839 7.80485 l 4.5016,-0.50739 c 2.7645,-0.3116 4.9872,-1.17147 5.76,-2.22834 z m -6.7416,-0.0739 c -0.352,-0.35204 -0.64,-2.97273 -0.64,-5.82381 0,-6.784829 5.0206,-7.700499 5.5755,-1.016879 0.4426,5.331509 -2.4439,9.332279 -4.9355,6.840639 z m 27.44,7.68422 c -0.66,-0.26632 -1.2,-0.94059 -1.2,-1.49838 0,-0.55779 -0.5988,-1.49379 -1.3305,-2.08001 -1.2401,-0.99348 -6.3495,-15.096919 -6.3495,-17.526439 0,-3.35966 6.1141,-2.33878 8.0431,1.34297 1.299,2.47912 1.3238,2.48429 1.9812,0.41306 1.4867,-4.68417 6.8538,-4.96377 8.9357,-0.46552 1.6108,3.48057 1.6239,3.39014 -1.8075,12.481729 -3.0564,8.09803 -4.0947,9.01835 -8.2725,7.33254 z m 4.2297,-12.81013 c 2.6344,-6.672859 2.8168,-7.674129 1.3984,-7.674129 -1.0423,0 -2.161,1.45272 -3.0981,4.02278 -2.011,5.515539 -3.4674,5.626659 -4.8729,0.3718 -0.8277,-3.09486 -1.6716,-4.39458 -2.8532,-4.39458 -1.5266,0 -1.4621,0.58441 0.7149,6.48 1.3161,3.563999 2.5792,7.019999 2.8069,7.679999 1.0074,2.91979 3.0968,0.62434 5.904,-6.48592 z m 2.517,2.91372 c -0.5541,-0.67514 -2.1573,2.15701 -2.1579,3.81219 -3e-4,0.79369 0.5671,0.36283 1.2643,-0.96 0.6956,-1.32 1.0977,-2.60349 0.8936,-2.85219 z m 1.9278,-4.814169 c 0.2785,-1.06496 0.1668,-1.72642 -0.2482,-1.46992 -0.415,0.2565 -0.9824,1.3377 -1.2609,2.40265 -0.2785,1.064959 -0.1668,1.726419 0.2482,1.469919 0.415,-0.2565 0.9825,-1.337699 1.2609,-2.402649 z m 36.6477,12.995439 c -2.327,-2.15654 -2.5536,-3.03954 -2.7412,-10.67973 -0.2611,-10.637639 2.2762,-13.872119 7.099,-9.049389 1.3494,1.34944 1.92,1.52535 1.92,0.59196 0,-1.41657 3.2915,-2.66653 5.1325,-1.94912 2.2714,0.88508 3.5075,5.79037 3.5075,13.919589 v 8.33965 l -2.9363,0.43095 c -2.1209,0.31128 -3.2865,-0.0692 -4.1978,-1.37018 -1.2225,-1.74543 -1.2774,-1.74055 -1.7739,0.15801 -0.6846,2.61802 -2.9194,2.47233 -6.0098,-0.39179 z m 2.2615,-6.60311 c 0.4118,-3.47813 2.9485,-3.2933 4.3101,0.31403 2.2913,6.07021 4.5062,3.71087 4.5062,-4.8 0,-6.186659 -0.28,-7.679999 -1.44,-7.679999 -0.9482,0 -1.44,0.94859 -1.44,2.7773 0,4.10012 -2.3169,4.377919 -4.1664,0.49956 -2.8328,-5.94061 -4.4736,-4.29631 -4.4736,4.483089 0,7.65242 1.9443,10.82088 2.7037,4.40597 z m 79.3763,8.25903 c -4.4752,-1.10069 -5.3683,-3.46588 -5.0748,-13.43956 l 0.2748,-9.340089 5.5717,0.11533 c 6.1212,0.1267 8.3537,1.45724 10.2904,6.13268 1.2242,2.95555 0.497,9.980779 -0.9411,9.091949 -0.4521,-0.2794 -0.5959,0.35659 -0.3195,1.41332 0.2763,1.05673 0.9141,1.92133 1.4172,1.92133 0.5031,0 0.7767,0.972 0.608,2.16 -0.4432,3.12049 -4.8893,3.48033 -6.9339,0.5612 l -1.5328,-2.18841 v 2.1336 c 0,1.17348 -0.324,2.08349 -0.72,2.02225 -0.396,-0.0613 -1.584,-0.32387 -2.64,-0.5836 z m -0.48,-8.49543 c 0,-4.45303 2.8793,-4.23493 4.1848,0.31698 0.4911,1.71237 1.4784,3.11341 2.194,3.11341 1.5072,0 1.7593,-2.48354 0.3412,-3.36 -0.528,-0.32633 -0.96,-1.64782 -0.96,-2.93666 0,-1.28884 0.432,-2.343339 0.96,-2.343339 0.528,0 0.96,-1.24979 0.96,-2.77729 0,-3.1693 -1.3337,-3.94271 -6.7986,-3.94271 h -3.7614 v 7.679999 c 0,6.18666 0.28,7.68 1.44,7.68 1.0113,0 1.44,-1.02116 1.44,-3.43039 z m 0,-7.676379 c 0,-3.28273 4.1561,-3.00717 4.6267,0.30677 0.2499,1.75918 -0.1509,2.16 -2.16,2.16 -2.009,0 -2.4667,-0.45775 -2.4667,-2.46677 z m 48.24,15.928159 c -1.188,-0.50573 -2.16,-1.54544 -2.16,-2.31046 0,-0.76501 -0.5003,-1.55767 -1.1117,-1.76147 -1.6012,-0.53376 -0.1462,-5.54946 1.6099,-5.54946 1.0896,0 0.9731,-0.44863 -0.4982,-1.92 -5.2885,-5.288469 1.6741,-13.544069 9.4231,-11.173069 4.5739,1.39951 7.4857,5.75718 6.0104,8.99509 -0.7846,1.721939 -0.8208,2.774739 -0.1195,3.476019 5.4742,5.47425 -5.0696,13.68497 -13.154,10.24335 z m 11.0094,-2.8637 c 0.6432,-0.81273 1.1491,-2.12569 1.1242,-2.91769 -0.035,-1.11097 -0.1633,-1.14358 -0.5619,-0.14274 -0.2841,0.7135 -2.302,2.1162 -4.4842,3.1171 l -3.9675,1.81983 3.36,-0.1994 c 1.848,-0.10968 3.8862,-0.86438 4.5294,-1.6771 z m -3.3955,-3.15769 c 3.7421,-2.99179 2.648,-6.69516 -2.3484,-7.949179 -3.3117,-0.83118 -4.0956,-2.03955 -2.5394,-3.91459 0.7454,-0.89823 2.047,-1.24995 3.3838,-0.91442 1.1948,0.29988 2.4404,0.11165 2.7679,-0.41829 0.3647,-0.5902 -1.0792,-0.96352 -3.7268,-0.96352 -7.7475,0 -9.3734,7.335209 -1.9165,8.646169 4.7434,0.8339 4.5014,5.00332 -0.2774,4.77979 -4.9235,-0.23029 -5.3288,-0.14515 -4.6371,0.97404 0.8426,1.36347 7.5035,1.19146 9.2939,-0.24 z m 36.0661,5.45091 c -1.452,-0.78773 -2.64,-2.06643 -2.64,-2.84158 0,-0.77513 -0.3627,-1.40933 -0.8059,-1.40933 -3.0621,0 -3.8555,-9.681119 -1.1563,-14.107909 3.6138,-5.92689 14.7461,-4.77234 16.0331,1.66283 0.3548,1.77369 0.8818,2.54401 1.2894,1.88455 0.99,-1.60193 2.0268,5.944829 1.3094,9.531649 -1.1822,5.91132 -8.0805,8.50731 -14.0297,5.27979 z m 9.84,-2.33091 c 1.056,-1.056 1.92,-2.352 1.92,-2.88 0,-0.528 -0.864,-0.096 -1.92,0.96 -1.056,1.056 -2.352,1.92 -2.88,1.92 -0.528,0 -0.96,0.432 -0.96,0.96 0,1.55014 1.7731,1.10685 3.84,-0.96 z m -3.2638,-2.6547 c 3.2834,-2.19236 4.2421,-8.961269 1.7693,-12.491699 -2.0202,-2.88431 -8.0183,-2.96197 -10.5749,-0.13692 -5.5457,6.127929 2.1062,17.101949 8.8056,12.628619 z m -5.6162,-1.2622 c -1.9962,-1.16263 -2.3826,-9.396579 -0.528,-11.251099 3.3896,-3.38968 7.0189,0.44502 5.9638,6.301449 -1.0019,5.56095 -2.3222,6.76318 -5.4358,4.94965 z m 2.4689,-7.790909 c 0.5915,-0.36728 0.7405,-1.00278 0.3311,-1.4122 -1.0727,-1.07265 -2.5505,1.66927 -2.4146,4.480009 l 0.116,2.4 0.4461,-2.4 c 0.2453,-1.32 0.93,-2.700509 1.5214,-3.067809 z m -366.3356,12.656829 c -1.0855,-1.26772 -1.6534,-3.57589 -1.6534,-6.72 0,-2.63396 -0.432,-4.789019 -0.96,-4.789019 -0.528,0 -0.96,-0.648 -0.96,-1.44 0,-0.792 -0.3857,-1.44 -0.8572,-1.44 -1.3373,0 -2.1147,-2.88625 -1.2118,-4.4995 0.5845,-1.04451 2.4114,-1.45258 6.4815,-1.44773 8.898,0.0106 9.0275,0.0409 9.0275,2.10723 0,1.056 0.432,1.92 0.96,1.92 0.528,0 0.96,1.296 0.96,2.88 0,2.230769 -0.4287,2.879999 -1.9017,2.879999 -2.1614,0 -3.4427,3.49216 -2.4403,6.65071 1.6684,5.25656 -3.8206,8.13083 -7.4446,3.89831 z m 5.8451,-6.46902 -0.1815,-6.479999 -0.3529,5.736949 c -0.194,3.15532 -0.8683,6.06471 -1.4984,6.4653 -0.7725,0.4911 -0.5984,0.73313 0.5343,0.74305 1.4533,0.0127 1.6555,-0.85986 1.4985,-6.4653 z m -2.6985,-3.19498 c 0.4275,-5.490059 0.7165,-6.198609 2.64,-6.471789 4.4539,-0.63255 1.9417,-2.09323 -3.6,-2.09323 -3.2,0 -5.76,0.42666 -5.76,0.96 0,0.528 0.864,0.96 1.92,0.96 1.7393,0 1.92,0.64 1.92,6.799989 0,8.91326 2.1831,8.79578 2.88,-0.15497 z m 19.2001,10.50081 c 0,-0.60179 -0.619,-1.57379 -1.3756,-2.16 -1.5035,-1.16493 -1.8701,-3.91394 -1.6492,-12.366419 0.1721,-6.58773 3.6796,-9.74517 6.6001,-5.94142 1.0032,1.30661 1.5825,1.51512 1.8948,0.68201 0.8039,-2.14449 7.0099,-1.50706 7.0099,0.72 0,1.056 0.432,1.92 0.96,1.92 0.5726,0 0.96,3.67999 0.96,9.119999 v 9.12 h -2.8323 c -1.6847,0 -3.2288,-0.68073 -3.8109,-1.68 -0.9319,-1.60001 -0.9799,-1.60001 -1.0077,0 -0.022,1.27443 -0.8403,1.68 -3.3891,1.68 -1.8747,0 -3.36,-0.48369 -3.36,-1.09417 z m 13.1806,-12.08443 c -0.2079,-1.991759 -0.3814,-0.597399 -0.3856,3.0986 0,3.696 0.1657,5.32563 0.3778,3.6214 0.2121,-1.70422 0.2156,-4.72822 0.01,-6.72 z m -11.0786,4.7786 c 0.4503,-5.440189 4.9504,-5.390599 5.3994,0.0595 0.5462,6.62917 2.5561,3.49608 2.8589,-4.45654 0.2839,-7.453849 -2.0906,-11.379729 -2.8566,-4.722979 -0.4812,4.18252 -5.5837,4.460099 -5.5837,0.30376 0,-1.97668 -0.4731,-2.94376 -1.44,-2.94376 -1.16,0 -1.44,1.49333 -1.44,7.679999 0,8.37219 2.4379,11.62062 3.062,4.08 z m 23.578,6.4 c -1.9985,-2.18882 -2.4962,-18.502289 -0.6002,-19.674059 2.9377,-1.8156 9.6876,-1.24105 11.7659,1.00152 2.1022,2.26831 3.2212,7.23254 1.6302,7.23254 -0.4743,0 -0.8331,1.943999 -0.7972,4.319999 0.036,2.376 0.4289,4.32 0.8733,4.32 0.4444,0 0.808,1.08 0.808,2.4 0,3.22137 -10.8153,3.53761 -13.68,0.4 z m 11.28,0.08 c 0.3263,-0.528 -0.08,-0.96 -0.9034,-0.96 -0.8232,0 -1.4966,0.432 -1.4966,0.96 0,0.528 0.4065,0.96 0.9033,0.96 0.4968,0 1.1703,-0.432 1.4967,-0.96 z m -4.0618,-0.62971 c -0.6499,-0.26296 -1.9459,-0.27896 -2.88,-0.0355 -0.934,0.2434 -0.4022,0.45856 1.1818,0.47812 1.584,0.0196 2.3482,-0.17958 1.6982,-0.44255 z m 2.1033,-3.14811 c 0.3052,-0.4938 -0.8573,-1.0338 -2.5833,-1.2 -4.3229,-0.41625 -5.0753,-4.21188 -1.0406,-5.24882 l 2.7024,-0.6945 -2.4,-0.582719 c -3.4435,-0.83604 -3.2676,-4.23632 0.24,-4.63991 4.2933,-0.49401 3.0093,-2.09623 -1.68,-2.09623 h -4.32 v 7.679999 7.68 h 4.2633 c 2.3448,0 4.513,-0.40402 4.8182,-0.89782 z m 107.6965,3.37382 c -2.0024,-3.05615 -2.32,-19.710929 -0.378,-19.828889 3.6743,-0.22319 10.453,-0.0915 10.6133,0.20625 0.1027,0.19065 0.7267,1.31278 1.3867,2.49361 1.7933,3.20857 1.538,6.957769 -0.48,7.048819 -1.0037,0.0453 -1.1969,0.27073 -0.48,0.56 0.66,0.26631 1.2,1.96021 1.2,3.7642 0,1.80401 0.462,3.28001 1.0267,3.28001 0.5647,0 0.8887,0.972 0.72,2.16 -0.497,3.49948 -11.3575,3.75168 -13.6087,0.316 z m 9.4235,-3.37382 c 0.3052,-0.4938 -0.8573,-1.0338 -2.5833,-1.2 -4.2897,-0.41305 -5.0175,-4.03429 -1.0297,-5.12302 l 2.6915,-0.73482 -2.4,-0.621519 c -3.817,-0.98849 -3.8702,-4.86282 -0.067,-4.86282 1.6207,0 2.9467,-0.432 2.9467,-0.96 0,-0.528 -1.944,-0.96 -4.32,-0.96 h -4.32 v 7.679999 7.68 h 4.2634 c 2.3448,0 4.513,-0.40402 4.8182,-0.89782 z m 44.6785,4.41847 c 0,-0.76737 -0.6833,-1.65742 -1.5184,-1.97788 -1.133,-0.43478 -1.3985,-1.47179 -1.0461,-4.08656 0.4749,-3.52404 -0.6972,-7.411149 -2.9444,-9.764789 -1.5174,-1.58934 -1.5194,-2.32069 -0.011,-4.10053 1.9711,-2.32601 15.12,-1.34516 15.12,1.12788 0,1.01268 0.432,1.84123 0.96,1.84123 1.8743,0 1.0434,4.95795 -0.9168,5.470539 -1.563,0.40875 -1.9241,1.47705 -2.16,6.39012 l -0.2832,5.89934 -3.6,0.29795 c -2.6453,0.21894 -3.6,-0.0721 -3.6,-1.0973 z m 2.88,-9.78441 c 0,-5.798019 0.1784,-6.331609 2.4,-7.176239 3.7454,-1.42404 2.8775,-1.92 -3.36,-1.92 -5.6146,0 -7.694,1.19033 -3.84,2.19816 1.6751,0.43805 1.92,1.30945 1.92,6.831959 0,4.98656 0.3056,6.32988 1.44,6.32988 1.1328,0 1.44,-1.33598 1.44,-6.26376 z m 71.76,9.06376 c -1.3502,-1.47876 -1.68,-3.61035 -1.68,-10.85729 0,-9.571599 0.2883,-10.151159 4.8,-9.649549 1.32,0.14676 3.48,0.30557 4.8,0.35291 4.6729,0.16758 7.2184,9.630489 2.6062,9.688619 -0.801,0.0101 -0.7529,0.27654 0.1538,0.85082 0.726,0.45987 1.32,1.97314 1.32,3.36282 0,1.38967 0.378,2.7603 0.84,3.04583 0.462,0.28553 0.84,1.57366 0.84,2.8625 0,3.16839 -10.852,3.44076 -13.68,0.34334 z m 9.3215,-3.69782 c 0.3052,-0.4938 -0.8573,-1.0338 -2.5833,-1.2 -3.374,-0.32489 -4.8742,-4.94635 -1.6982,-5.23145 3.044,-0.27325 3.2764,-0.56521 0.96,-1.205779 -3.8097,-1.05347 -3.8621,-4.90495 -0.067,-4.90495 1.6207,0 2.9467,-0.432 2.9467,-0.96 0,-0.528 -1.944,-0.96 -4.32,-0.96 h -4.32 v 7.679999 7.68 h 4.2634 c 2.3448,0 4.513,-0.40402 4.8182,-0.89782 z m 84.9985,4.36053 c 0,-0.73552 -0.648,-1.58595 -1.44,-1.88988 -1.9257,-0.73896 -2.0972,-17.112319 -0.1958,-18.690369 2.613,-2.16859 11.2358,-0.76124 11.2358,1.83381 0,1.01405 0.432,1.84373 0.96,1.84373 1.6412,0 1.0519,4.65102 -0.72,5.683099 -0.9324,0.54305 -1.146,0.99151 -0.48,1.0077 2.1542,0.0524 1.442,4.8292 -0.72,4.8292 -1.5543,0 -1.92,0.64 -1.92,3.36 0,3.19999 -0.16,3.36 -3.36,3.36 -2.232,0 -3.36,-0.44897 -3.36,-1.33729 z m 1.92,-6.82271 c 0,-2.72 0.3657,-3.36 1.92,-3.36 2.5275,0 2.4691,-1.55246 -0.083,-2.219989 -2.5305,-0.66173 -2.1075,-3.85859 0.5745,-4.34217 4.1121,-0.74144 3.611,-2.07784 -0.779,-2.07784 h -4.512 v 7.039989 c 0,3.87201 0.288,7.32801 0.64,7.68 1.4347,1.4347 2.24,0.45685 2.24,-2.71999 z m 6.72,-1.07197 c 0,-0.20241 -0.864,-0.36803 -1.92,-0.36803 -1.056,0 -1.92,0.39155 -1.92,0.87012 0,0.47857 0.864,0.64419 1.92,0.36804 1.056,-0.27616 1.92,-0.66771 1.92,-0.87013 z"
       id="path949"
       sodipodi:nodetypes="sscsssssssccccccssssssccssssccccccccccsssssssssssssscsssssscssssssssssssccccccccccssssssssccsscsssssscsccsssssscssccssscccccccssscccccccsccscccsccsssscccssssscssssssssscccsccsssssssssscccccsccccsssccccccccccsssssscssssssssccsccssscsscssssssssssscccccccccssscsscssssssscsscccsscccsssssssscscccssscccccccsssccccccccssssscssssssssssssscsscsssssssssssscssssssssssssscccssssssssssssssssssssssssssssssssssssssssscsssssssssssssssscssssssscssssssssssscssssssssssscsssssssscssssssssssssssssssssssssssssssssssssscssssssssssssscssccsssssssssssssssssscsccssccsccsssssssssssssssssssssssssssssscssscccsssssssssssscsscsssscccsccssssssssscsssssssssssssssssssscsssssscccsccssssssssssscsssscssccsssss" />
    <path
       id="path947"
       style="display:inline;fill:#000000;stroke-width:0.96"
       d="m 568.89844,0 c -3.17136,0.21521791 -11.15425,1.7368804 -17.85352,3.5273438 -9.07766,2.4261286 -15.15007,3.8347151 -20.64453,4.7910156 -5.33957,0.9293502 -3.89001,1.5282435 1.91992,0.7929687 3.168,-0.4009232 6.73196,-0.8494078 7.91992,-0.9960937 1.34606,-0.166202 2.16016,0.2451558 2.16016,1.0898437 0,0.8600259 -1.03284,1.3554689 -2.82422,1.3554689 -1.55284,0 -3.11736,0.475448 -3.47656,1.056641 -0.38383,0.621056 -1.86107,0.815284 -3.58399,0.470703 -2.1319,-0.426388 -3.47508,-0.09063 -4.92382,1.232421 -3.00955,2.748437 -6.3125,3.521337 -6.3125,1.476563 0,-1.510175 -0.1769,-1.496461 -2.0586,0.173828 -1.48881,1.32154 -2.17781,1.494068 -2.48242,0.623047 -0.30464,-0.871113 -1.10016,-0.670759 -2.86914,0.720703 -3.05428,2.402493 -5.06836,2.465423 -5.06836,0.158203 0,-1.347579 1.1959,-2.037682 5.03906,-2.904297 2.772,-0.625063 5.68847,-1.597351 6.48047,-2.162109 0.3924,-0.279809 1.51135,-0.621926 2.75391,-0.957031 -3.85254,0.810739 -8.23902,1.732518 -10.39453,2.177734 -4.77439,0.98613 -5.71466,1.490515 -5.28516,2.84375 0.32871,1.035679 -0.28922,2.216517 -1.66992,3.183594 -1.23383,0.864203 -2.33359,1.120307 -2.51172,0.585937 -0.18025,-0.540747 -1.31584,-0.295162 -2.63672,0.570313 -1.27648,0.836378 -2.94975,1.279468 -3.71875,0.984375 -0.769,-0.295093 -2.76569,0.145468 -4.43554,0.978516 -2.18061,1.087827 -3.22409,1.207931 -3.70508,0.429687 -0.47937,-0.775643 -1.19937,-0.682695 -2.53321,0.326172 -2.12542,1.607608 -4.67379,1.950766 -3.7832,0.509765 0.32632,-0.527996 0.15598,-0.958984 -0.37695,-0.958984 -0.53292,0 -1.31411,0.579313 -1.73633,1.28711 -1.31309,2.201127 -5.08789,2.658903 -5.08789,0.617187 0,-1.91013 2.31615,-2.826336 12,-4.746094 6.01026,-1.191499 11.75716,-2.614031 15.83984,-3.919922 l 2.40039,-0.767578 -2.40039,-0.07031 c -1.32,-0.03874 -3.91973,0.352515 -5.77929,0.86914 -1.8596,0.516628 -7.25964,1.774923 -12,2.796875 -4.7404,1.021953 -12.07487,2.768119 -16.29883,3.878907 -4.224,1.110787 -13.08168,3.115292 -19.68164,4.455078 -10.48162,2.127752 -22.23544,4.704682 -37.43946,8.207031 -4.70553,1.083957 -5.59084,1.268128 -13.43945,2.789062 -2.904,0.562749 -8.08753,1.699588 -11.51953,2.527344 -3.432,0.827755 -10.12252,2.305928 -14.86719,3.283203 l -8.62695,1.775391 -1.98828,-2.494141 c -1.61886,-2.030231 -2.42622,-2.346994 -4.33399,-1.699218 -1.2893,0.437772 -3.42414,0.849642 -4.74414,0.914062 C 339.85578,42.39143 336,44.593157 336,51.107422 c 0,1.952098 -0.49891,2.265212 -3.83984,2.398437 -4.61956,0.184216 -5.07585,-1.228771 -0.72071,-2.232421 2.9972,-0.690714 3.02777,-0.741578 0.75586,-1.310547 -1.45971,-0.365566 -2.58024,-1.497326 -2.92773,-2.957032 -0.36001,-1.512298 -1.23847,-2.365234 -2.43555,-2.365234 -1.02961,0 -2.41643,-0.352588 -3.08203,-0.783203 -2.34505,-1.51717 -13.44421,-1.605844 -14.67969,-0.117188 -0.62984,0.758909 -1.72483,1.378907 -2.43359,1.378907 -0.70878,0 -1.75126,0.863929 -2.31641,1.919921 -0.6967,1.301749 -0.70697,1.921876 -0.0332,1.921876 0.54658,0 0.99219,-0.649411 0.99219,-1.441407 0,-1.705435 0.34203,-1.734665 5.04101,-0.429687 3.87419,1.075915 4.98334,5.170222 2.60547,9.613281 -1.84763,3.452325 -4.0506,2.311945 -3.36523,-1.742187 l 0.60742,-3.601563 -4.12305,0.273437 c -2.26831,0.149784 -17.57191,0.366253 -34.00586,0.480469 l -29.8789,0.207031 -0.12891,-5.660156 c -0.22039,-9.753932 -5.74732,-16.44366 -14.3418,-17.359375 -10.07862,-1.073842 -11.44003,-1.491351 -17.36718,-5.322265 -9.80767,-6.339004 -16.40294,-2.997625 -22.77539,11.541015 -0.98879,2.25589 -4.08467,4.134177 -6.38477,5.044922 -7.72666,2.216989 -20.64018,-1.977597 -18.92188,-9.53125 1.51971,-6.680533 1.95247,-9.432031 1.86329,-10.265625 0.36797,-0.05123 0.98134,-1.571844 0.73046,-3.728516 -0.22888,-1.967579 -0.44442,-3.599609 -0.85742,-3.599609 -0.41299,0 -1.3822,-1.511383 -2.15429,-3.359375 -3.5154,-8.4134934 -11.80841,-2.0358376 -20.84571,16.033203 -2.55199,5.102447 -2.03993,12.99756 1.27539,19.66211 1.72993,3.477523 -3.92989,8.345561 -5.93359,5.103515 -0.26706,-0.43211 -1.77905,-0.931685 -3.36133,-1.111328 -1.66461,-0.188989 -2.77558,-0.833006 -2.63672,-1.527344 0.29991,-1.499505 -0.25076,-1.510106 -2.59375,-0.04687 -1.44793,0.904242 -2.34033,0.89053 -4.12109,-0.0625 -1.24985,-0.668898 -2.67901,-1.135832 -3.17774,-1.039062 -2.6457,0.513354 -3.54017,-0.05528 -2.34765,-1.492188 1.46837,-1.769266 3.29284,-1.840417 4.9707,-0.195312 1.00055,0.981011 1.74702,1.002321 3.5332,0.09961 l 3.01758,-0.945312 -3.49609,-0.761719 c -1.50959,-0.309229 -5.76885,-1.057218 -9.46485,-1.662109 -3.69596,-0.604895 -8.44854,-1.441528 -10.56054,-1.859375 C 103.96808,39.85754 98.568062,38.8696 94.080078,38.080078 87.830435,36.980632 39.007649,27.223577 30.720703,25.417969 25.765341,24.338265 15.615989,21.761004 8.4003906,19.75 1.5569105,17.842706 0,17.662317 0,18.783203 c 0,0.756701 0.32470471,1.406984 0.72070312,1.443359 3.23091928,0.296815 6.45748438,0.909691 9.10546878,1.730469 3.3860811,1.049561 17.3878331,4.413424 22.7714841,5.470703 l 3.316406,0.652344 -2.113281,1.710938 c -2.055658,1.664568 -5.960937,1.57898 -5.960937,-0.13086 0,-0.46019 -0.755692,-0.774695 -1.679688,-0.697265 -3.418057,0.286439 -6.097919,-0.187118 -5.601562,-0.990235 0.281192,-0.454983 -1.098425,-0.779693 -3.064453,-0.720703 -2.832427,0.08498 -3.547931,-0.235832 -3.445313,-1.548828 0.114856,-1.469561 -0.08686,-1.504966 -1.794922,-0.308594 -1.380437,0.966897 -2.5965518,1.095405 -4.2910154,0.451172 -1.300247,-0.49435 -2.7202071,-0.679647 -3.15625,-0.410156 -1.3877798,0.857694 -3.97603471,-0.671292 -3.4511718,-2.039063 0.2777722,-0.723862 0.085646,-1.316406 -0.4257813,-1.316406 -1.62897418,0 -0.99808098,3.608032 0.75,4.289063 1.7872178,0.696275 13.9730925,3.388693 26.6406245,5.886718 24.919325,4.91407 24.480469,4.859095 24.480469,3.13086 0,-1.805634 2.982968,-3.420675 5.449219,-2.949219 3.041626,0.581442 2.357945,2.354173 -1.386719,3.59375 -3.422076,1.132794 -2.013794,1.510479 19.457031,5.232422 5.80798,1.006806 14.23077,2.486948 18.71875,3.289062 4.487984,0.802118 13.129208,2.346993 19.201168,3.431641 6.072,1.084648 11.472,2.109517 12,2.277344 0.528,0.167826 3.01154,0.640534 5.51954,1.050781 2.50796,0.410246 4.58819,0.804903 4.62109,0.876953 0.0329,0.07205 0.27629,2.289696 0.54297,4.929688 1.53126,15.158943 7.76933,16.977252 19.20508,5.597656 l 6.27343,-6.244141 9.2793,0.677735 c 9.42162,0.68722 11.67773,1.466479 11.67774,4.037109 -10e-6,5.841008 8.71616,8.89876 15.52734,5.447266 3.04954,-1.545309 4.71175,-1.998206 4.39453,-1.199219 -0.28052,0.706574 -2.30801,5.821259 -4.50391,11.365234 -2.19586,5.54398 -4.61883,11.439728 -5.38476,13.103516 -0.76595,1.663788 -1.40342,3.608112 -1.41602,4.320312 -0.0126,0.712204 -1.00491,4.665074 -2.20703,8.783201 l -2.1875,7.48633 -2.4043,-2.20703 c -1.32291,-1.21416 -6.05338,-5.29771 -10.51171,-9.076172 -4.45838,-3.778454 -9.37909,-8.570538 -10.93555,-10.648438 -6.76791,-9.035291 -14.1049,-10.203151 -26.40039,-4.201172 -4.46008,2.17715 -9.51529,3.958984 -11.23438,3.958984 -11.40481,10e-7 -15.73298,20.012508 -6.66015,30.794918 2.3403,2.78134 2.6232,3.76628 2.16601,7.56055 -0.45779,3.79926 -0.3854,4.05458 0.56446,1.96484 0.59999,-1.31996 1.24271,-2.60092 1.42773,-2.8457 0.18502,-0.24477 1.72431,1.05209 3.41992,2.88086 1.6956,1.82878 4.51704,4.51285 6.27149,5.9668 l 3.1914,2.64453 -3.03906,3.83594 c -1.67082,2.10955 -5.58048,5.83282 -8.68945,8.27539 -3.10902,2.44258 -6.20311,5.68327 -6.875,7.20117 -1.34043,3.02824 -3.76612,3.53374 -7.90821,1.64648 -3.72618,-1.69774 -3.60862,-8.22259 0.15625,-8.66211 1.63021,-0.19031 2.7966,-1.02175 3.1211,-2.2246 0.28488,-1.056 1.66141,-3.86424 3.05859,-6.24024 1.39717,-2.376 2.83156,-5.39875 3.1875,-6.71875 0.36747,-1.36278 -0.61745,-0.32518 -2.27734,2.40039 -1.60778,2.64 -3.97644,6.05643 -5.26563,7.59375 l -2.3457,2.79492 -1.99414,-3.27343 c -1.09777,-1.80132 -2.481,-5.72816 -3.07227,-8.72461 -3.45748,-17.52192 -17.561902,-16.26175 -21.230466,1.89648 -1.900385,9.40631 1.089675,17.12642 8.6875,22.43359 1.90274,1.3291 2.059185,1.83296 1.064454,3.42579 -3.185438,5.10067 4.408896,17.2098 10.203122,16.26953 7.81922,-1.2689 14.80882,-8.59487 14.82422,-15.53711 0.0109,-4.92886 3.08107,-9.96476 8.66602,-14.21485 2.391,-1.81951 5.96768,-5.2869 7.94922,-7.70507 2.31352,-2.82339 4.11217,-4.202 5.02539,-3.85157 1.89196,0.72602 4.01792,-1.15612 6.25195,-5.53515 3.43713,-6.73732 7.78478,-5.7232 13.76367,3.20703 3.4936,5.21811 10.05768,11.95635 15.94141,16.36328 2.36618,1.77226 4.20898,4.55192 6.23047,9.39844 3.67603,8.81332 12.81706,14.97625 32.9082,22.18945 9.90138,3.55486 11.6985,4.26494 12.29297,4.85937 1.73665,1.73664 -6.56512,21.46103 -11.50195,27.32813 -8.03849,9.55317 -5.83563,16.65133 7.11132,22.91992 7.03741,3.40733 11.51953,6.62893 11.51953,8.2793 0,2.91202 3.05348,7.86366 3.91211,6.34375 1.81951,-3.22082 -3.56923,-9.9662 -11.10937,-13.90625 -3.69813,-1.93244 -8.0807,-4.53677 -9.74024,-5.78906 -5.59723,-4.2238 -4.40375,-9.20137 1.27149,-5.30274 1.48823,1.02237 5.52176,3.63449 8.96289,5.80469 8.41358,5.30613 13.79482,10.32069 13.05078,12.16016 -0.32306,0.79866 -0.85678,2.11805 -1.18555,2.93164 -0.38492,0.95253 -0.12783,1.379 0.72071,1.19922 0.72477,-0.15359 1.24937,0.15168 1.16797,0.67968 -0.0814,0.528 -0.85507,4.76763 -1.72071,9.41992 -1.77045,9.51502 -0.76777,12.83375 5.00586,16.55274 6.44494,4.15133 15.46921,13.07835 16.09375,15.92187 0.39723,1.80854 0.98757,2.59251 1.53711,2.04297 1.45511,-1.45511 -2.68528,-17.0352 -6.37305,-23.98437 -3.68059,-6.93576 -3.45966,-8.31455 1.50196,-9.4043 2.87574,-0.87785 5.21592,-2.52629 7.625,-2.89453 11.73782,-1.6977 16.31836,-7.38286 16.31836,-20.25 0,-8.37999 0.87729,-9.99823 2.8457,-5.24609 1.30158,3.14225 2.83586,3.84602 14.43555,6.63085 4.48796,1.07747 8.83484,2.22017 9.66015,2.53907 0.89716,0.34667 3.79165,-0.98654 7.19922,-3.31641 3.82722,-2.61676 6.37205,-3.73517 7.7461,-3.4043 4.493,1.08193 10.91406,-3.89101 10.91406,-8.45312 0,-1.33656 3.78082,-3.893 4.57812,-3.0957 0.30267,0.30266 -0.33809,1.5192 -1.42187,2.70507 -3.63027,3.97244 0.37591,12.2874 6.07031,12.59961 1.52513,0.0836 3.30082,0.48668 3.94531,0.89454 0.6445,0.40781 2.4556,0.0774 4.02539,-0.73438 2.25854,-1.16793 3.41713,-1.25291 5.54883,-0.40625 15.50254,6.15725 28.06584,-8.63322 20.07813,-23.63672 -1.83145,-3.44004 -1.9375,-2.02101 -0.40625,5.39258 1.25622,6.08195 -0.0394,12.22393 -1.69727,8.04687 -2.38297,-6.004 -10.23218,-5.06449 -11.43945,1.36914 -0.83347,4.44158 3.2129,6.20933 8.59765,3.75586 3.39915,-1.54871 4.15922,-0.2959 1.52344,2.50977 -5.01439,5.33757 -15.23225,3.57732 -19.24219,-3.31445 -3.49554,-6.00776 -8.01995,-6.57327 -11.89843,-1.48828 l -2.59961,3.4082 2.68945,0.0801 c 1.47887,0.044 3.76789,0.20732 5.08789,0.36132 1.32,0.15403 2.90264,-0.11975 3.51563,-0.60742 0.70699,-0.56244 1.37444,-0.46529 1.82617,0.26563 1.22254,1.9781 -2.24116,3.58398 -6.58985,3.05469 -10.6874,-1.30083 -12.12952,-13.45225 -1.63086,-13.74219 3.05392,-0.0843 3.15792,-0.17451 1.13868,-0.98438 -3.08467,-1.23714 -1.73185,-2.80907 2.51758,-2.92383 3.0528,-0.0824 3.21034,-0.18602 1.14257,-0.75781 -2.75516,-0.76189 -4.02698,-4.90625 -1.50586,-4.90625 1.06463,0 1.50586,-0.92957 1.50586,-3.16797 0,-1.74236 0.50509,-3.67073 1.1211,-4.28711 1.10357,-1.10353 0.15081,-9.14174 -2.1875,-18.46484 -1.18054,-4.70688 -1.0995,-4.99901 1.0664,-3.83984 1.34608,0.72039 1.91992,0.72242 1.91993,0.01 0,-0.55964 -1.07844,-1.42786 -2.39844,-1.92968 -1.79463,-0.68231 -2.42298,-1.64509 -2.48828,-3.81641 -0.048,-1.59706 -0.12583,-4.19924 -0.17383,-5.7832 -0.10414,-3.43685 -0.24132,-3.37614 4.58203,-2.03711 2.112,0.58632 5.28396,1.06926 7.04883,1.07226 l 3.20898,0.006 -0.33008,5.28125 c -0.44487,7.14449 0.7559,6.71982 1.60157,-0.56641 0.58552,-5.04492 0.91956,-5.78231 2.44726,-5.38281 0.97343,0.25456 1.95526,-0.0308 2.18164,-0.63476 0.62194,-1.65924 2.74052,4.34712 2.22656,6.3125 -0.24569,0.93968 0.002,1.70898 0.54883,1.70898 0.61267,0 0.80641,-1.67367 0.50391,-4.35742 -0.47988,-4.25751 -0.40728,-4.40165 3.16602,-6.22461 2.01188,-1.02641 5.52503,-4.28202 7.80664,-7.23438 9.81073,-12.69489 13.04621,-14.3544 18.25586,-9.36328 1.48085,1.41888 2.69335,2.05351 2.69335,1.41016 0,-0.64337 -0.64745,-1.41874 -1.43945,-1.72266 -0.792,-0.30393 -1.44141,-1.44522 -1.4414,-2.53515 -10e-6,-2.33161 -2.60187,-5.49219 -4.52149,-5.49219 -0.7909,0 -0.2365,0.9827 1.34766,2.38477 l 2.69531,2.38281 -2.99805,-0.5586 c -4.16985,-0.77817 -6.76955,0.90404 -13.93359,9.01758 -17.72076,20.06941 -35.34279,18.03584 -50.16016,-5.78711 C 329.24397,147.3467 326.83814,144 326.44336,144 c -1.30137,0 4.88617,11.82487 7.09766,13.56445 3.71504,2.92228 6.63375,11.14884 4.38281,12.35352 -2.11962,1.13438 -2.39813,0.77507 -3.34571,-4.31836 -0.61742,-3.31895 -0.8215,-3.56133 -1.49804,-1.7832 -0.97088,2.55166 -4.8856,5.40346 -5.95313,4.33593 -1.25929,-1.25925 0.0295,-3.37927 3.12891,-5.14843 1.57573,-0.89944 2.86328,-2.30262 2.86328,-3.11914 0,-2.05678 -1.22536,-1.85567 -2.65625,0.43554 -2.12562,3.40367 -4.16685,2.42928 -3.51758,-1.67969 0.35029,-2.21673 -0.0196,-5.32888 -0.96484,-8.0996 -1.23605,-3.62312 -1.33676,-5.38975 -0.51367,-9.0625 0.61414,-2.74044 0.76209,-8.1176 0.36914,-13.47071 -0.54308,-7.39846 -0.38911,-9.3158 0.91406,-11.30469 1.98455,-3.02872 2.00243,-6.15349 0.0469,-8.31445 -1.93707,-2.14045 -0.40294,-10.332896 2.79101,-14.906248 1.15106,-1.648175 3.99775,-5.751337 6.32617,-9.119141 2.32842,-3.367802 9.35602,-11.264395 15.61719,-17.546875 6.26119,-6.282476 11.62865,-12.396288 11.92773,-13.58789 0.29908,-1.191604 1.47978,-2.43465 2.62305,-2.761719 2.16058,-0.618094 30.0646,-6.578541 40.95703,-8.748047 12.56033,-2.501709 47.8327,-9.937609 59.04102,-12.447266 6.33596,-1.418687 14.76074,-3.182151 18.7207,-3.917968 3.96,-0.735822 10.65491,-2.234531 14.87891,-3.332032 4.22396,-1.097499 8.76008,-2.172053 10.08008,-2.386718 5.62244,-0.914368 16.705,-3.399266 28.80078,-6.458985 7.12796,-1.803074 18.25086,-4.3181527 24.71875,-5.5878904 6.46786,-1.2697373 11.75966,-2.6313453 11.75976,-3.0273437 3.3e-4,-1.23123 -5.4046,-0.7910794 -8.2207,0.6699219 -2.8703,1.4891263 -4.70298,1.1186196 -3.63867,-0.7363282 0.35776,-0.6235137 -0.4194,-0.1626045 -1.72657,1.0253906 -2.45119,2.2277416 -4.65234,2.8302443 -4.65234,1.2734376 0,-0.48753 -1.29187,-0.2419235 -2.86914,0.5449218 -3.12615,1.559523 -5.03076,1.0696457 -4.20508,-1.0820312 0.29009,-0.755956 2.51644,-1.6519384 4.99805,-2.0117188 2.46124,-0.3568259 5.19782,-1.0237176 6.08008,-1.4804687 0.88227,-0.4567515 3.2576,-1.090135 5.27929,-1.4082031 2.02174,-0.3180684 3.89225,-0.81244152 4.15625,-1.0976563 C 570.47812,3.4032868e-4 569.95556,-0.07173931 568.89844,0 Z m -45.82422,10.449219 c 1.85464,-0.390296 4.71121,-0.9551433 5.0039,-1.0488284 0.9453,-0.3025709 -2.37177,0.338969 -5.0039,1.0488284 z m 23.24609,-3.7285159 c 1.1731,0 1.83397,0.4953651 1.59961,1.1992188 -0.60483,1.8164952 -3.59961,2.0749004 -3.59961,0.3105469 0,-0.8905266 0.8208,-1.5097657 2,-1.5097657 z M 156.86914,8.2851562 c 3.36816,-0.131806 4.67982,5.2585428 1.96289,15.4277348 -0.81801,3.061748 -2.81695,10.751918 -4.44336,17.08789 -1.62641,6.335975 -3.25464,12.080617 -3.61719,12.765625 -0.84739,1.601121 -5.37476,-2.733545 -6.08984,-5.830078 -0.27137,-1.175079 -1.33887,-5.038574 -2.37109,-8.585937 -2.13576,-7.339913 -1.39937,-11.150787 3.89648,-20.1875 4.17962,-7.131966 8.04243,-10.5752188 10.66211,-10.6777348 z m 6.63672,6.5957028 0.7168,2.878907 c -0.3539,1.444522 -0.40685,2.270761 -0.33399,2.697265 -0.63567,0.441523 -2.31519,4.802615 -2.75781,5.076172 -1.29911,0.802897 -0.68413,-3.203428 1.19336,-7.773437 z m 38.87109,7.917969 c 2.37912,-0.0019 4.9351,1.110311 7.90235,3.259766 4.82065,3.49208 11.34999,5.597298 17.40625,5.611328 8.0319,0.0186 12.67133,5.933478 12.1289,15.46289 l -0.29492,5.1875 L 234,52.607422 c -5.42973,0.283202 -7.48201,-0.974815 -3.59961,-2.207031 2.36036,-0.74915 2.56648,-2.515196 0.24023,-2.058594 -2.98094,0.585106 -5.47005,1.819644 -7.67968,3.808594 -3.71281,3.34202 -2.7846,-1.156362 1.19922,-5.810547 3.05137,-3.564866 4.20725,-6.019531 2.83398,-6.019532 -1.40466,10e-7 -5.40893,5.793752 -6.91016,10 -2.69792,7.55939 -7.17898,11.284498 -12.69531,10.552735 -3.88548,-0.515431 -5.04893,-0.211157 -9.14844,2.388672 -6.06545,3.846607 -8.22493,3.770074 -11.90039,-0.416016 -4.14581,-4.721836 -3.57684,-6.205078 2.37891,-6.205078 1.27681,0 2.32031,-0.405592 2.32031,-0.900391 0,-0.494802 -1.40314,-0.681582 -3.11914,-0.414062 -1.716,0.267518 -6.96089,-0.191693 -11.65625,-1.021484 -7.61555,-1.345881 -8.84926,-1.35272 -11.42773,-0.06641 -4.45088,2.220383 -4.79149,1.90902 -4.30664,-3.9375 0.40242,-4.852718 0.31986,-5.159572 -0.83203,-3.121093 -0.7633,1.350875 -1.06215,3.654846 -0.74415,5.728515 0.37284,2.430877 0.082,3.919994 -0.9707,4.972656 -0.82625,0.826251 -1.51755,1.857303 -1.53515,2.291016 -0.0422,1.042299 -3.45461,5.107422 -4.28711,5.107422 -1.32045,0 0.29481,-11.306455 2.8789,-20.160156 1.46401,-5.015979 2.92748,-10.542375 3.25196,-12.28125 0.32448,-1.738879 1.01301,-3.14759 1.53125,-3.13086 0.90451,0.02921 1.14404,1.493001 1.68554,10.285157 0.13525,2.196121 0.46295,3.655986 0.72852,3.242187 0.76817,-1.196947 6.48597,-2.157057 7.08398,-1.189453 0.6119,0.990062 5.31999,0.340573 11.83594,-1.476563 -0.006,0.0022 -0.0121,0.0076 -0.0176,0.0098 0.0163,-0.0047 0.046,-0.01472 0.0625,-0.01953 1.71866,-0.500027 4.61596,-1.367781 6.4961,-2.003906 10.12884,-3.427007 9.94951,-3.49695 7.30468,2.867187 -1.13972,2.742466 -2.29479,6.748394 -2.56836,8.902344 l -0.49804,3.916015 1.86718,-4.320312 c 1.02721,-2.375992 3.23088,-6.849643 4.89649,-9.941406 2.88956,-5.363709 3.22782,-8.298828 0.95508,-8.298828 -0.57573,0 -0.77785,0.435071 -0.44922,0.966796 0.32862,0.531729 0.0294,1.118977 -0.66406,1.304688 -0.69347,0.185711 -2.91407,0.870458 -4.9336,1.521484 -4.66108,1.502588 -5.1876,0.922296 -2.73828,-3.021484 4.06862,-6.551164 7.54263,-9.649246 11.50781,-9.652344 z M 472.76758,23.6875 c 0.33093,0.128465 0.51172,0.391907 0.51172,0.779297 0,1.378464 -2.36025,2.612404 -3.26563,1.707031 -1.06657,-1.066563 -0.58334,-1.946713 1.34571,-2.451172 0.59623,-0.155926 1.07726,-0.163609 1.4082,-0.03516 z m -7.68946,1.316406 c 1.59516,0.03947 2.44274,0.4275 2.19727,1.15625 -0.22231,0.66 -1.23054,1.246595 -2.24023,1.302735 -1.00969,0.05614 -2.59741,0.428746 -3.5293,0.828125 -0.93189,0.399376 -2.60937,0.485511 -3.72656,0.193359 -1.14339,-0.299004 -2.6356,0.07504 -3.41407,0.853516 -1.6017,1.601732 -3.16601,1.809606 -3.16601,0.421875 0,-0.528 -0.43099,-0.958985 -0.95899,-0.958985 -0.528,0 -0.96093,0.59771 -0.96093,1.328125 0,1.617256 -3.14609,2.572518 -4.90039,1.488282 -0.71818,-0.443853 -1.82147,-0.33388 -2.52735,0.251953 -0.68876,0.571613 -2.21563,1.192555 -3.39258,1.380859 -2.17787,0.34845 -10.74788,2.001854 -15.0996,2.912109 -1.32,0.276106 -3.47883,0.583373 -4.79883,0.683594 -1.32,0.100221 -3.38972,0.731807 -4.59766,1.402344 -1.20795,0.670538 -3.00642,0.961212 -3.99805,0.646484 -0.99161,-0.314724 -2.08032,-0.123693 -2.41992,0.425781 -0.78718,1.27367 -3.09003,1.293825 -3.86914,0.0332 -0.61368,-0.99296 0.15622,-1.394489 4.32422,-2.251954 1.32,-0.271555 7.36749,-1.626601 13.43945,-3.011718 6.072,-1.385119 16.00812,-3.575664 22.08008,-4.867188 6.072,-1.29152 12.76886,-2.769186 14.88086,-3.283203 2.74064,-0.66701 5.08261,-0.975017 6.67773,-0.935547 z M 39.015625,28.800781 c 2.068225,0 3.90703,1.555857 2.958984,2.503907 -0.944682,0.944682 -7.414062,1.549793 -7.414062,0.693359 0,-1.585766 2.245573,-3.197266 4.455078,-3.197266 z m 9.742187,1.878907 c 5.546286,1.017886 5.867305,1.630842 1.492188,2.845703 -3.836499,1.065299 -4.51209,1.099257 -7.265625,0.376953 -4.055906,-1.063942 1.286618,-4.046111 5.773437,-3.222656 z m 14.605469,3.019531 c 1.396976,-0.150061 3.271037,0.163582 5.763672,0.923828 3.038271,0.926663 12.637031,2.762008 38.152347,7.294922 5.86545,1.042026 8.88086,2.003318 8.88086,2.832031 0,0.894087 -1.39476,1.196983 -4.85352,1.052734 -5.76237,-0.240325 -8.93835,-1.255607 -8.11133,-2.59375 0.74961,-1.212874 -0.73517,-1.274947 -1.96289,-0.08203 -1.05047,1.020692 -6.193358,0.240321 -6.193358,-0.939453 10e-7,-0.433251 -1.511382,-0.542074 -3.359374,-0.242188 -2.082925,0.338013 -3.359375,0.157057 -3.359376,-0.478515 10e-7,-0.62821 -1.254263,-0.821963 -3.238281,-0.5 -1.895761,0.307641 -3.510829,0.08299 -3.896484,-0.541016 -0.362287,-0.586188 -2.0739,-1.066406 -3.802735,-1.066406 -1.728831,0 -3.460551,-0.317978 -3.849609,-0.707031 -0.69416,-0.694165 -4.655691,-1.10301 -10.945312,-1.13086 -2.890971,-0.0128 -3.077963,-0.188121 -2.125,-1.96875 0.583725,-1.090703 1.503417,-1.703452 2.90039,-1.853516 z m 337.929689,5.251953 c 1.45934,-0.0037 1.45682,0.460686 -0.041,1.390625 -1.31591,0.816955 -8.54824,2.688619 -12.93164,3.347656 -1.056,0.158769 -3.1367,0.76206 -4.62304,1.339844 -3.4351,1.335292 -3.53711,1.326458 -3.53711,-0.324219 0,-1.604248 0.46636,-1.767533 12.40625,-4.341797 4.34642,-0.937098 7.26722,-1.408442 8.72656,-1.412109 z m -44.34766,2.978516 c 1.05148,0.202361 2.49831,1.780816 3.57031,4.58789 2.39987,6.283941 1.51735,7.98785 -10.16015,19.597656 -5.82622,5.79243 -13.60007,14.778623 -17.27344,19.96875 -6.1329,8.665261 -7.76692,11.87373 -10.18555,19.996096 -0.62077,2.08475 -1.77996,3.19596 -4.19726,4.02539 -6.92107,2.37478 -17.02158,1.14079 -14.67774,-1.79297 0.55944,-0.70025 1.32924,-3.4275 1.71094,-6.06055 1.19288,-8.228444 7.49816,-16.351599 19.9961,-25.757809 9.39947,-7.074298 9.67471,-7.475714 9.41992,-13.773438 -0.14971,-3.700359 0.23704,-5.830426 1.26367,-6.964844 0.81355,-0.898957 1.65221,-3.553311 1.86328,-5.896484 0.42886,-4.761095 3.66742,-6.352852 4.27149,-2.099609 0.48668,3.427069 2.09375,2.506878 2.09374,-1.199219 10e-6,-4.560314 2.56636,-4.560314 3.42188,0 0.83303,4.440406 2.76355,4.440406 2.04297,0 -0.74132,-4.568227 2.88943,-5.02745 3.79883,-0.480469 0.3168,1.583996 1.00266,2.880859 1.52343,2.88086 0.56216,0 0.69066,-1.366405 0.31641,-3.361329 -0.50618,-2.69817 0.14969,-3.872286 1.20117,-3.669921 z m -42.96875,2.029296 c 5.59721,0.407024 7.02274,3.826001 4.3125,10.3125 -2.0739,4.963515 -3.32784,4.080713 -3.11523,-2.191406 0.18267,-5.388712 0.12302,-5.528174 -2.50977,-5.830078 -2.30824,-0.264687 -3.41361,-2.14324 -1.34179,-2.28125 0.96999,-0.06462 1.85469,-0.06782 2.65429,-0.0098 z m 62.92383,0.25586 c 0.51685,0.03624 0.88826,0.134356 1.0625,0.308594 1.00288,1.002863 -0.46095,1.798223 -3.2832,1.783203 -1.474,-0.0078 -3.19375,0.399832 -3.82227,0.908203 -0.62852,0.508365 -1.92538,0.796013 -2.88086,0.638672 -0.95549,-0.157345 -2.24758,0.03435 -2.87109,0.425781 -0.62352,0.391431 -1.38622,0.302863 -1.69531,-0.197266 -0.81498,-1.318628 9.87226,-4.120855 13.49023,-3.867187 z m -247.14453,0.36914 c -1.3087,-0.247443 3.94288,1.338744 5.125,1.917969 3.46436,1.697504 4.31836,1.803354 4.31836,0.537109 0,-0.527996 -0.82707,-0.958984 -1.83984,-0.958984 -1.01282,0 -2.62885,-0.242723 -3.60157,-0.49414 -2.39262,-0.618422 -3.55704,-0.917831 -4.00195,-1.001954 z m 192.92773,0.535157 c 1.1912,0 1.03768,5.511655 -0.21875,7.859375 -0.73001,1.363937 -0.73913,1.777725 -0.0273,1.33789 0.56612,-0.349879 1.54525,-2.358389 2.17578,-4.46289 0.63052,-2.104501 1.61547,-3.665679 2.1875,-3.46875 1.16222,0.400109 1.26328,5.068385 0.16406,7.541015 -0.53899,1.212438 -0.28341,1.537626 1.04102,1.324219 1.8007,-0.290148 4.1543,1.048426 4.1543,2.363281 0,0.40602 -1.68278,1.411145 -3.74024,2.234375 -2.05747,0.82323 -4.73798,2.921971 -5.95508,4.664063 -2.97114,4.252791 -2.94719,4.242183 -9.67968,4.427734 -4.09976,0.112991 -6.46479,0.677077 -7.76758,1.851563 -3.1355,2.826705 -15.06248,19.130116 -16.48438,22.533203 -2.99081,7.158061 -19.71768,14.510301 -19.73828,8.675781 -0.003,-0.924 -0.60575,-2.827251 -1.33789,-4.230469 -2.84033,-5.443857 17.45567,-27.003 29.32617,-31.15039 0.87108,-0.304343 1.76867,-1.809454 1.99414,-3.345703 0.48207,-3.284526 -0.70536,-3.767093 -1.55664,-0.632813 -0.35183,1.295342 -3.65867,4.213583 -8.26172,7.291016 C 276.32045,78.381285 264,91.656877 264,96.824219 c 0,1.001842 -0.64745,2.358322 -1.43945,3.015625 -1.80503,1.498026 -1.795,3.771646 0.0293,6.183596 0.77521,1.02492 1.41016,3.25523 1.41016,4.95508 0,3.38985 8.76768,9.2258 10.25195,6.82421 0.3569,-0.57747 0.24731,-1.18361 -0.24218,-1.34765 -4.81132,-1.61231 -7.61694,-3.93306 -8.1836,-6.76953 -0.34216,-1.71275 -1.15623,-3.75848 -1.81055,-4.54688 -1.30146,-1.56822 -0.57991,-6.257811 0.9629,-6.257811 0.51794,0 0.9414,1.025906 0.9414,2.281251 0,7.44156 23.68223,0.89541 24.78711,-6.851563 0.16872,-1.183018 0.7566,-2.150391 1.30664,-2.150391 0.61415,0 0.76835,1.239159 0.39844,3.210938 -0.46134,2.459145 -0.11608,3.828813 1.47656,5.853516 1.27118,1.61604 1.70122,2.88709 1.10547,3.26953 -0.53599,0.34409 -1.28299,1.60849 -1.6582,2.81055 -0.82023,2.62776 -3.47866,4.46539 -10.84375,7.49414 -3.04316,1.25144 -4.77553,2.28633 -3.85157,2.29883 1.99986,0.0271 2.05318,0.37406 0.47852,3.04101 -0.96,1.62592 -0.96,2.11913 0,2.4668 1.99723,0.72328 1.34366,2.45637 -0.72266,1.91601 -2.25117,-0.58871 -12.53621,2.34674 -15.86718,4.5293 -2.86574,1.87771 -2.68397,1.89439 -4.76953,-0.41016 -1.89982,-2.09923 -3.96306,-2.50924 -4.50196,-0.89257 -0.1995,0.59851 -1.44066,0.16728 -2.96679,-1.03321 -1.90962,-1.50204 -3.36672,-1.90122 -5.35352,-1.46484 -2.14278,0.47063 -3.22474,0.0779 -5.0332,-1.82812 -1.26707,-1.33546 -2.75576,-2.43532 -3.3086,-2.44532 -1.77571,-0.0293 -8.37109,-7.4679 -7.65234,-8.63086 0.37634,-0.60893 -0.0716,-1.94333 -0.99609,-2.96484 -1.57398,-1.73924 -1.58068,-2.0858 -0.10743,-5.45898 2.14969,-4.921896 6.17215,-18.057746 7.45508,-24.347661 0.58043,-2.845682 1.43833,-7.054162 1.9082,-9.351563 0.46991,-2.297398 1.29255,-5.797516 1.82618,-7.779297 l 0.96875,-3.603515 18.48047,0.105468 c 10.16429,0.05798 25.16581,-0.200539 33.33593,-0.574218 12.24591,-0.5601 15.12199,-0.438648 16.375,0.695312 1.66817,1.509662 13.95063,0.949913 14.95899,-0.68164 0.28927,-0.468055 -0.55176,-0.654905 -1.86914,-0.416016 -3.20404,0.580998 -3.59117,-0.01904 -1.97852,-3.076172 0.74625,-1.414668 1.62462,-4.191883 1.95117,-6.171875 0.32657,-1.979992 0.97112,-3.601562 1.43164,-3.601562 z m -180.08398,5.761718 c 0.97352,0 6.20117,4.198582 6.20117,4.980469 0,1.254959 -2.28325,0.899385 -4.58789,-0.714844 -1.88531,-1.320514 -2.9987,-4.265625 -1.61328,-4.265625 z m 122.23437,2.699219 c 19.18619,-0.08937 27.9668,0.38383 27.9668,1.457031 0,0.659476 0.41049,0.614901 1.15039,-0.125 1.88039,-1.880378 14.20899,-1.532921 14.20899,0.400391 0,1.042527 -0.58885,1.39686 -1.79297,1.082031 -0.98587,-0.257809 -4.08873,-0.104003 -6.89649,0.339844 -3.27626,0.517908 -5.53103,0.45267 -6.29297,-0.179687 -0.82386,-0.683773 -1.80601,-0.601458 -3.21093,0.269531 -1.702,1.055162 -2.16719,1.028062 -2.91602,-0.175781 -0.70939,-1.140435 -1.13272,-1.189531 -2.08203,-0.240235 -1.41882,1.418817 -4.06051,1.610218 -3.20898,0.232422 0.32632,-0.527996 -0.0537,-0.960938 -0.84571,-0.960937 -0.792,-10e-7 -1.70688,0.432941 -2.0332,0.960937 -0.32633,0.527996 -1.2412,0.958984 -2.0332,0.958984 -0.79199,0 -1.17399,-0.430988 -0.84766,-0.958984 0.74864,-1.211331 0.49902,-1.202527 -3.32031,0.128906 -2.50991,0.874955 -3.2887,0.827399 -3.95313,-0.240234 -0.68798,-1.105476 -1.16862,-1.117561 -2.85156,-0.07422 -1.50166,0.930961 -2.35795,0.979371 -3.31445,0.185547 -0.95627,-0.793629 -1.80703,-0.747805 -3.28907,0.177734 -1.46613,0.915639 -2.43479,0.973018 -3.63671,0.214844 -1.16616,-0.735563 -2.42232,-0.736897 -4.35938,-0.0059 -2.04089,0.770345 -2.90257,0.732914 -3.44727,-0.148438 -0.5729,-0.927021 -1.38582,-0.927021 -3.84179,0 -2.60286,0.982464 -3.25725,0.941855 -3.99024,-0.24414 -0.69832,-1.129898 -1.11905,-1.175859 -2.06836,-0.226563 -1.53858,1.538542 -4.36231,1.534191 -4.92773,-0.0078 -0.35199,-0.959996 -0.69529,-0.959996 -1.71289,0 -1.53798,1.450917 -4.72656,1.588912 -4.72656,0.205078 0,-0.685034 -0.57744,-0.685034 -1.85743,0 -3.00845,1.610088 -4.4141,1.231876 -2.65234,-0.714844 1.36122,-1.504122 3.77836,-1.750272 20.06836,-2.035156 8.76825,-0.153344 16.31947,-0.245602 22.71484,-0.275391 z m -125.29687,1.033203 c 0.75231,0.01931 1.90684,0.604794 3.54883,1.691407 4.1471,2.744438 4.62379,4.587842 2.33008,9.023437 -0.80555,1.557772 -1.63945,2.832031 -1.85157,2.832031 -1.25714,0 -4.30211,-5.426927 -4.84375,-8.632812 -0.57552,-3.406462 -0.43744,-4.946246 0.81641,-4.914063 z m 9.78711,3.214844 c 0.30108,-0.284123 0.62383,0.107927 1.01562,1.128906 0.34431,0.897231 0.24127,2.976133 -0.23046,4.621094 -0.47177,1.64496 -1.43703,3.184086 -2.14454,3.419922 -0.92356,0.307854 -1.10409,-0.141609 -0.64257,-1.595703 0.35355,-1.113937 0.85718,-3.207714 1.11914,-4.652344 0.30425,-1.677808 0.58173,-2.637752 0.88281,-2.921875 z m 77.34375,1.578125 c 2.1608,-0.04587 4.75645,-0.02547 7.92383,0.03906 3.37667,0.0688 3.65613,0.269464 3.10156,2.234376 -0.3353,1.187992 -1.4495,6.324821 -2.47656,11.414062 -1.02705,5.089242 -2.48526,10.920254 -3.24024,12.958984 -0.75499,2.038731 -2.12789,6.263443 -3.05273,9.386719 -0.92485,3.123273 -2.26445,6.795449 -2.97656,8.160159 -1.61818,3.10099 -1.65114,5.11148 -0.10743,6.66016 0.96057,0.9636 0.72278,1.56399 -1.19336,3.01171 -2.29176,1.73158 -2.3127,1.83672 -0.48046,2.43946 10.99522,3.61701 11.65024,4.96747 5.43359,11.21679 -2.72735,2.74168 -4.95898,5.32782 -4.95899,5.74805 0,1.41065 -1.83685,0.78338 -5.97265,-2.04101 -5.3575,-3.65869 -10.4681,-5.1623 -6.05469,-1.78125 1.56944,1.20229 4.23494,3.56338 5.92383,5.24609 l 3.07227,3.05859 -1.41016,4.6211 c -1.29052,4.23233 -2.20442,33.45953 -1.17969,37.71875 0.35769,1.48673 -2.3627,2.21741 -4.93945,1.32812 -20.63217,-7.12061 -32.64063,-16.5853 -32.64063,-25.72851 0,-0.79039 -2.26706,-3.13407 -5.03906,-5.20704 -5.74447,-4.29586 -11.87267,-10.57306 -15.12109,-15.49023 -1.22085,-1.848 -3.63314,-4.8727 -5.35938,-6.7207 -1.75043,-1.87388 -3.2759,-4.63407 -3.44922,-6.24024 -0.17093,-1.584 -0.7389,-2.8789 -1.26172,-2.8789 -0.52282,0 -1.19936,1.2949 -1.5039,2.8789 l -0.55274,2.88086 -1.50976,-3.46289 c -3.62783,-8.32269 -3.29909,-18.03507 0.77344,-22.875 2.51238,-2.985836 1.7212,-4.685339 -1.40235,-3.013672 -2.3738,1.270417 -4.44616,11.810412 -3.52734,17.937502 0.82555,5.50519 -0.87459,5.43059 -3.96875,-0.17383 -2.33817,-4.23506 -2.9093,-11.81122 -1.03711,-13.753906 0.97051,-1.007055 0.83208,-1.18046 -0.7207,-0.904297 -5.31496,0.945241 -1.55506,14.587783 6.29492,22.839843 2.31529,2.43388 3.57874,4.43404 2.93554,4.64844 -0.62112,0.20704 -2.20285,2.49727 -3.51562,5.08789 -3.1212,6.15936 -5.43692,6.0868 -12.90039,-0.40039 -15.28649,-13.28688 -18.35864,-37.521651 -5.00977,-39.52344 2.43588,-0.365281 7.68827,-2.297712 11.67188,-4.294921 12.77674,-6.405737 20.30667,-5.419703 25.43555,3.332031 1.32574,2.262263 3.82246,5.274301 5.54882,6.693359 9.27983,7.628011 12.3423,10.189671 19.25782,16.103521 4.16762,3.56396 8.12842,6.47851 8.80078,6.47851 0.67234,0 2.31963,0.86396 3.66211,1.91992 3.1023,2.44035 3.92256,2.43649 2.61132,-0.0137 -0.78241,-1.462 -0.73325,-2.03064 0.20508,-2.33008 2.25764,-0.72043 12.72117,-1.81209 15.0293,-1.56835 1.5401,0.16261 2.12399,-0.17369 1.82031,-1.04493 -0.5565,-1.59657 -8.68463,-1.49495 -15.74804,0.19532 -8.97347,2.1473 -11.65974,0.31892 -7.35743,-5.00391 L 199.08203,108 195.5,111.34961 c -5.78755,5.4091 -5.80161,-4.92273 -0.0156,-11.585938 0.72379,-0.833573 1.3008,-1.912015 1.2832,-2.398438 -0.0176,-0.486418 -0.89173,0.147368 -1.94336,1.410157 -3.26712,3.923129 -3.02208,1.720369 1.06836,-9.603516 2.17184,-6.012491 4.61986,-13.092435 5.43945,-15.732422 0.81958,-2.639988 1.79878,-5.015297 2.17578,-5.279297 0.37701,-0.263996 1.21171,-1.479287 1.85547,-2.701172 0.95674,-1.815934 1.67835,-2.111376 3.95508,-1.611328 2.11445,0.464413 3.54393,0.03489 5.93359,-1.785156 2.36349,-1.800075 4.93365,-2.518648 11.41602,-2.65625 z m 103.12305,1.390625 c 1.41344,0.09608 2.54804,1.097203 2.93359,3.152344 0.6626,3.531964 0.5205,3.782868 -4.5,7.960937 -14.262,11.868812 -23.89339,23.189694 -23.90039,28.091794 -0.002,1.40882 -0.2674,3.2449 -0.58789,4.08008 -0.32049,0.83519 -0.85971,1.4541 -1.19922,1.375 -0.33951,-0.0791 -1.69758,-0.31568 -3.01758,-0.52539 -2.80352,-0.4454 -6.24738,-6.543654 -5.21484,-9.234374 0.38443,-1.00183 0.0204,-2.383317 -0.89649,-3.396485 -1.436,-1.586752 -1.24596,-2.161254 2.70313,-8.173828 7.73488,-11.776572 9.96065,-13.473312 18.22461,-13.890625 6.75993,-0.341363 7.17018,-0.494458 8.23633,-3.068359 1.7305,-4.177847 4.86296,-6.531232 7.21875,-6.371094 z m 51.0664,31.427734 c -0.25256,-0.05389 -0.53846,-0.04567 -0.85156,0.02734 -0.41747,0.09736 -0.88321,0.30899 -1.38281,0.642578 -1.07253,0.716154 -3.26368,4.40622 -3.26367,5.496094 0,0.328157 1.07231,-0.61622 2.38281,-2.097656 2.01276,-2.275307 2.53257,-2.470316 3.3457,-1.253907 0.78561,1.175257 0.96456,1.044132 0.97656,-0.71875 0.008,-1.212692 -0.44935,-1.934017 -1.20703,-2.095703 z m -0.11914,5.033203 c -0.12309,0.03703 -0.55336,0.540851 -1.35156,1.53125 -1.10076,1.365808 -2.45122,2.083358 -3.30469,1.755858 -0.91741,-0.35204 -1.8192,0.27246 -2.47461,1.71094 l -1.03125,2.26172 3.33789,-1.96875 c 1.83506,-1.0827 3.78615,-2.889786 4.33594,-4.01758 0.42861,-0.879217 0.61137,-1.310465 0.48828,-1.273438 z m -82.46289,8.937498 c 0.61154,0.0452 1.34351,0.23355 2.20508,0.55664 2.25841,0.84693 2.29705,0.97557 0.66211,2.18164 -5.18906,3.82786 14.6029,4.65754 23.57812,0.98829 2.22692,-0.9104 2.27926,2.06207 0.0801,4.49218 -1.04732,1.15729 -1.57641,3.35518 -1.53711,6.37305 l 0.0606,4.60351 -6.75586,2.30079 c -7.2206,2.45821 -7.56257,3.55146 -0.62305,1.99218 5.5978,-1.25776 7.43177,3.47183 2.07813,5.35938 -5.15163,1.81633 -8.29011,3.46159 -7.3125,3.83398 0.61086,0.23268 2.72881,-0.25356 4.70703,-1.08007 1.9782,-0.82655 3.80067,-1.29895 4.04883,-1.05079 1.20597,1.20595 -1.04619,3.42734 -4.53516,4.47266 -2.13991,0.64113 -3.89258,1.52824 -3.89258,1.97266 0,1.06899 0.16034,1.04608 4.17383,-0.63086 6.4273,-2.68552 7.90654,0.82322 2.31641,5.49414 -1.72076,1.43779 -2.6234,2.62447 -2.00391,2.63867 0.61949,0.0142 2.41175,-1.05305 3.98047,-2.37305 3.68271,-3.09875 3.60183,-3.12902 4.85937,1.86524 1.56479,6.21432 1.38059,7.47557 -1.78711,12.15039 -1.57435,2.32345 -2.87085,5.42096 -2.88085,6.88476 -0.0402,6.12983 -13.50733,15.86594 -24.86915,17.97852 -2.84403,0.52881 -8.15462,0.96094 -11.80273,0.96094 h -6.63281 l 0.64258,-9.83985 c 0.60742,-9.28054 3.178,-19.26324 7.16601,-27.83984 1.39985,-3.01052 2.10996,-3.23613 3.79883,-1.20117 0.6573,0.792 1.98122,1.4414 2.94141,1.4414 3.2156,0 2.8167,1.65802 -1.03907,4.33008 -4.58056,3.17436 -4.94027,3.97604 -0.83203,1.85156 5.09662,-2.63552 5.44452,-0.24006 0.71289,4.91407 -2.37038,2.58203 -3.23495,3.97196 -1.99414,3.20898 1.86315,-1.14565 2.31333,-1.14729 3.01758,-0.0156 2.04783,3.29051 5.83398,-11.66131 5.83398,-23.03907 10e-6,-9.59037 0.54768,-10.40315 7.1504,-10.58203 l 4.8496,-0.13086 -6.17773,-0.69922 c -9.77158,-1.10543 -12.6149,-5.56959 -8.70312,-13.66601 1.05596,-2.18566 1.91992,-5.35844 1.91992,-7.05078 0,-2.63324 0.76107,-3.78203 2.5957,-3.64649 z m 61.29492,1.5625 c -1.29913,-0.10537 -2.74395,0.41552 -3.9375,1.73438 -1.45601,1.60885 -2.47027,1.85468 -5.51758,1.33984 -9.71749,-1.64176 -22.75585,4.28435 -22.75585,10.34375 0,0.62865 1.83611,-0.65165 4.08007,-2.8457 5.94562,-5.81327 18.0985,-8.16057 21.52539,-4.1582 1.54325,1.80235 1.62504,1.7711 3.10938,-1.19922 1.763,-3.52799 5.59305,-4.38919 5.03906,-1.13282 -0.17966,1.056 -0.96344,2.63233 -1.74219,3.50391 -0.79242,0.88689 -1.02195,1.82937 -0.52148,2.13867 1.17723,0.72757 3.76496,-2.22787 4.18164,-4.77539 0.46773,-2.8596 -1.29572,-4.77359 -3.46094,-4.94922 z m -141.92578,1.50196 c -1.09064,0.0598 -2.43595,0.30479 -4.04492,0.73437 -2.64,0.70487 -5.12353,1.30092 -5.51953,1.32422 -0.396,0.0233 -0.72071,0.46358 -0.7207,0.97852 0,0.59383 0.95855,0.57096 2.61914,-0.0606 1.43984,-0.54744 4.44855,-0.88182 6.6875,-0.74414 4.62148,0.2842 6.09511,-0.49806 3.49609,-1.85742 -0.59071,-0.30896 -1.42694,-0.43481 -2.51758,-0.375 z m 74.24219,3.50976 c 0.94037,0.01 0.97603,0.77127 -0.59375,2.50586 -2.24005,2.47516 -2.27992,8.85141 -0.0703,11.29297 1.19706,1.32275 1.35018,2.39948 0.67382,4.75781 -0.53215,1.85555 -0.52772,3.26309 0.0137,3.59766 0.4891,0.30229 0.89062,-0.34057 0.89062,-1.42774 0,-1.08716 0.446,-1.97656 0.99219,-1.97656 0.80062,0 0.82058,9.54379 0.0371,17.51953 -0.16857,1.71606 -4.00427,0.50841 -5.46485,-1.7207 -0.87977,-1.34277 -2.72716,-3.03072 -4.10351,-3.75195 -2.41237,-1.2641 -2.50195,-1.62048 -2.50195,-9.89844 v -8.58789 l 3.59961,2.27148 c 1.97996,1.24955 3.60156,1.86025 3.60156,1.35547 0,-0.50477 -1.29686,-1.68345 -2.88086,-2.61914 -3.44579,-2.03548 -3.58516,-2.74895 -0.7207,-3.70312 1.88411,-0.62765 1.69157,-0.79573 -1.51368,-1.3125 l -3.67382,-0.5918 2.71289,-2.53125 c 3.35264,-3.12529 7.43466,-5.19563 9.00195,-5.17969 z m 130.33984,2.50586 c -1.22472,0.0417 -1.68734,0.29424 -1.02734,0.56055 0.66,0.26632 1.20117,1.09576 1.20117,1.84375 0,1.55888 -4.36091,1.88954 -5.28125,0.40039 -0.32632,-0.528 -0.0632,-0.96094 0.58398,-0.96094 0.64716,0 0.95453,-0.22126 0.6836,-0.49219 -0.56102,-0.56101 -7.50586,2.1678 -7.50586,2.94922 0,1.9567 12.98097,-0.21257 13.26562,-2.21679 0.24478,-1.72356 -0.14309,-2.14449 -1.91992,-2.08399 z m -58.24804,0.99219 c -0.23173,-0.0728 -0.49089,-0.009 -0.72461,0.21094 -0.48121,0.45208 -0.0856,1.35891 0.91406,2.08984 1.27049,0.92901 1.5775,1.91646 1.0918,3.52148 -0.52947,1.74969 -0.4197,1.98795 0.50976,1.10547 0.65169,-0.61874 1.88839,-0.88557 2.74805,-0.59179 1.10144,0.3764 0.99553,0.0773 -0.35742,-1.01563 -1.65887,-1.33998 -1.72462,-1.68316 -0.48047,-2.51562 1.18364,-0.79201 1.06909,-0.96642 -0.64063,-0.97852 -1.14399,-0.008 -2.2721,-0.55289 -2.50781,-1.21289 -0.11786,-0.33 -0.32101,-0.54051 -0.55273,-0.61328 z m -29.35352,3.51953 c -1.81097,-0.007 -3.61545,1.04704 -2.9082,2.19141 0.69636,1.12671 3.37595,1.14191 5.13281,0.0293 1.07767,-0.68249 0.98286,-1.02656 -0.50391,-1.82226 -0.51237,-0.27421 -1.11704,-0.39605 -1.7207,-0.39844 z m 37.94531,0.76172 c -0.29804,0.29802 0.53164,1.36685 1.84375,2.375 3.27919,2.51953 3.62636,2.33011 0.94922,-0.51953 -1.23811,-1.31792 -2.49494,-2.1535 -2.79297,-1.85547 z m -11.76367,3.07617 c -1.71089,-0.32655 -2.00049,0.90136 0.35156,2.54883 2.29896,1.61026 4.60157,1.98819 4.60157,0.7539 0,-0.41416 -1.2668,-1.50179 -2.81446,-2.41601 -0.8406,-0.49656 -1.56837,-0.77787 -2.13867,-0.88672 z m -122.30273,0.91797 c 1.30789,-0.0442 2.34675,0.40652 2.69726,1.45703 0.22906,0.68651 2.00194,1.19922 4.14453,1.19922 2.98934,0 3.81631,0.38741 4.09375,1.91992 0.61958,3.42241 1.93416,3.83324 4.51758,1.40625 2.69346,-2.53038 4.80025,-1.28642 3.7168,2.19531 -0.77894,2.50324 1.63124,2.04057 4.36133,-0.83593 2.644,-2.78588 5.758,-4.20508 9.22656,-4.20508 3.37516,0 2.91212,2.49176 -0.69727,3.75 -1.66961,0.58204 -2.83282,1.26288 -2.58398,1.51172 1.1714,1.1714 9.01431,-2.92531 8.69336,-4.54102 -0.20222,-1.01794 0.24958,-1.67969 1.14648,-1.67969 0.92069,0 1.27169,0.54313 0.92774,1.43946 -0.34222,0.8918 0.004,1.43945 0.91015,1.43945 3.23326,0 1.21862,6.71495 -3.29687,10.99219 -9.96373,9.43792 -11.85678,10.26691 -15.58203,6.81445 -3.29519,-3.05388 -3.29348,-3.05737 1.85547,-8.94336 2.41691,-2.76293 3.96146,-5.02344 3.43359,-5.02344 -1.28077,0 -8.77325,8.79783 -8.78125,10.31055 -0.003,0.65453 -4.00272,5.22823 -8.88672,10.16406 -9.19392,9.29159 -13.68015,15.76316 -17.55078,25.31641 -5.90732,14.58023 -9.57031,8.44423 -9.57031,-16.03125 v -18.71875 l 3.25,-5.75977 c 1.78737,-3.16796 3.51807,-5.97623 3.8457,-6.24023 0.32763,-0.264 1.80344,-2.10008 3.2793,-4.08008 1.74075,-2.33536 4.66973,-3.7838 6.84961,-3.85742 z m -143.230472,0.25976 c 2.834475,-0.21876 5.638652,2.06445 6.994142,7.78516 0.56459,2.38276 0.37131,2.53244 -3.880861,3.01172 -2.460816,0.27736 -4.946923,0.97622 -5.525391,1.55469 -0.762343,0.76235 -0.181262,0.8026 2.113281,0.14453 3.556105,-1.01987 7.897891,1.52173 11.687501,6.84375 l 1.95312,2.74414 -1.98828,2.52539 c -4.24297,5.39409 -2.17939,9.62201 5.38477,11.03516 2.45913,0.45941 4.67362,1.03885 4.92187,1.28711 1.08008,1.08003 -2.20808,9.37859 -4.39843,11.10156 -4.85351,3.81774 -10.86992,-0.60898 -12.837894,-9.44532 -0.808397,-3.62974 -2.006656,-6.11689 -3.558594,-7.39062 -6.905868,-5.66782 -7.558677,-6.68719 -8.72461,-13.59961 -1.673478,-9.92151 3.135246,-17.23305 7.859376,-17.59766 z m 110.326172,2.14063 c -0.074,0.15814 -0.0158,0.56193 0.16992,1.2168 2.16111,7.62048 2.73553,11.85985 2.25586,16.61718 -0.49501,4.90962 -0.41039,5.27442 0.83203,3.59961 2.29987,-3.10021 0.41359,-18.22649 -2.64062,-21.17773 -0.33886,-0.32744 -0.54322,-0.414 -0.61719,-0.25586 z m 173.70312,0.98828 c -0.0785,0.29313 0.38574,1.64303 1.39258,4.05274 1.33552,3.19631 1.77141,3.51067 4.08008,2.93945 7.6248,-1.88656 7.54798,-1.90381 10.65039,2.3789 1.61663,2.23168 2.70548,4.43445 2.41992,4.89649 -0.28557,0.46204 -0.25204,1.27278 0.0742,1.80078 0.87537,1.41639 2.40039,1.1655 2.40039,-0.39453 0,-5.1699 -9.35651,-12.77609 -13.97265,-11.35938 -3.04997,0.93606 -3.36042,0.81432 -5.17969,-2.02539 -1.16512,-1.81863 -1.78675,-2.58219 -1.86524,-2.28906 z m -55.70312,0.0801 c 0.20741,-0.21604 0.4727,0.17698 0.86523,1.10742 0.44552,1.056 0.5752,3.64972 0.28907,5.76172 -0.28614,2.112 -0.88104,4.23446 -1.32422,4.71875 -1.26263,1.38033 -2.13028,-2.00515 -1.26953,-4.96094 0.42248,-1.45082 0.83757,-3.28612 0.92187,-4.07812 0.16029,-1.50628 0.31017,-2.33279 0.51758,-2.54883 z m -120.875,0.14844 -0.082,2.49804 c -0.0454,1.37455 -0.35937,5.26318 -0.69727,8.64063 -0.33791,3.37742 -0.32455,5.87668 0.0293,5.55273 1.24062,-1.1358 2.37519,-11.2721 1.56445,-13.97461 z M 96.480469,139.28125 c -1.055996,-0.029 -2.569332,0.36707 -3.361328,0.87891 -1.908375,1.2333 0.491316,1.2333 3.361328,0 l 1.919922,-0.82422 z m 182.650391,1.30078 c 0.40518,0.0179 0.60283,0.42209 0.90234,1.22461 0.35172,0.9424 1.42405,2.27881 2.38282,2.96875 0.95873,0.68994 1.74414,1.66014 1.74414,2.1582 0,1.41321 -2.51383,1.06455 -3.83985,-0.5332 -0.65731,-0.792 -1.9812,-1.43945 -2.9414,-1.43945 -2.80647,0 -2.99497,-1.58394 -0.39258,-3.28906 1.12831,-0.7393 1.73935,-1.10779 2.14453,-1.08985 z m -4.03125,5.59375 c 1.82604,0.0613 3.51444,0.86373 5.15234,2.38477 l 2.84375,2.63867 -2.92187,6.7207 c -1.60687,3.696 -3.52723,7.86612 -4.26758,9.26758 -0.74036,1.40147 -1.3457,4.6898 -1.3457,7.30664 0,2.61684 -0.27557,6.76124 -0.61133,9.21094 -0.60218,4.39332 -2.66427,6.08398 -3.80274,3.11719 -0.62599,-1.63137 -11.55829,-6.67145 -12.80273,-5.90235 -4.84332,2.99334 1.67654,-23.54493 7.07422,-28.79492 4.21355,-4.09831 7.63824,-6.05144 10.68164,-5.94922 z m 64.63281,1.66406 c -3.77516,0 1.79351,11.06452 6.89649,13.70313 5.28848,2.73455 10.49023,0.69457 10.49023,-4.11328 0,-2.47875 -3.73684,-8.47419 -3.80664,-6.10742 -0.0176,0.59535 0.58899,1.59924 1.34961,2.23046 2.58308,2.14376 -0.8126,6.67813 -5.04492,6.73633 -4.70315,0.0646 -8.81641,-4.6022 -8.81641,-10.00195 0,-1.34622 -0.4816,-2.44727 -1.06836,-2.44727 z m -82.48047,0.0879 c 2.39122,-0.43516 6.39033,3.30933 4.80078,5.22461 -1.51825,1.82941 -1.91618,1.74231 -4.74609,-1.04296 -2.08433,-2.05149 -2.19993,-2.50466 -0.95898,-3.72266 0.255,-0.25029 0.56269,-0.39682 0.90429,-0.45899 z m 183.03516,2.39063 c -0.18664,0.13653 -0.13202,0.57512 0.0781,1.37891 0.60992,2.33232 -2.0882,2.65637 -3.34961,0.40234 -0.59814,-1.06888 -1.57882,-1.31462 -3.4082,-0.85547 -3.13242,0.7862 -3.33203,2.07552 -0.4082,2.63867 7.53477,1.45126 13.14276,-0.62417 8.45898,-3.13086 -0.75592,-0.40456 -1.18445,-0.57012 -1.37109,-0.43359 z m -92.75781,1.41602 c -1.06953,-0.16323 -1.92969,0.10628 -1.92969,0.90624 0,0.528 0.83844,0.95899 1.86328,0.95899 1.02484,0 2.1307,0.43294 2.45703,0.96094 0.32632,0.528 -0.10466,0.95898 -0.95898,0.95898 -0.85433,0 -1.28727,0.43294 -0.96094,0.96094 0.78358,1.26787 1.76312,1.21149 3.1543,-0.17969 0.87852,-0.87852 0.77991,-1.53587 -0.43555,-2.8789 -0.84,-0.9282 -2.11993,-1.52431 -3.18945,-1.6875 z m -93.72461,1.10742 c 1.12419,-0.0267 2.16357,0.58027 3.44922,1.69531 l 2.1875,1.89844 -1.99805,5.0625 c -1.09909,2.78445 -2.68607,10.4625 -3.52539,17.0625 -0.83932,6.59996 -1.82919,13.69224 -2.20117,15.76172 -0.86033,4.7863 -1.87365,5.06666 -5.625,1.55078 -4.09965,-3.8423 -11.84586,-8.67383 -13.90821,-8.67383 -4.42719,0 4.55931,-18.52836 13.75391,-28.35742 3.88298,-4.15092 5.99353,-5.95556 7.86719,-6 z m -166.312502,0.50586 c 0.22065,-0.2266 1.141026,0.1065 2.742187,1.01757 1.580654,0.89945 2.875506,1.95947 2.878906,2.35547 0.01148,1.36166 -2.577339,0.71621 -4.164062,-1.03711 -1.198637,-1.32444 -1.677685,-2.10934 -1.457031,-2.33593 z m 105.255862,6.09765 c -0.28353,0.22169 0.27522,1.42386 1.89062,3.4375 1.99321,2.48459 4.35439,4.02163 8.01367,5.2168 6.00059,1.95986 8.54688,2.21653 8.54688,0.86133 0,-0.528 -1.18667,-0.97082 -2.63867,-0.98242 -3.59876,-0.0287 -9.82561,-3.02723 -12.64844,-6.0918 -1.75458,-1.90483 -2.88054,-2.66309 -3.16406,-2.44141 z m -96.708988,1.04883 c 0.543638,0.21812 1.07455,1.69844 1.464844,4.38672 0.53593,3.69134 1.466015,5.3359 4.876954,8.63867 l 4.21289,4.08008 h -2.82227 c -5.700735,0 -10.526542,-7.24615 -9.273433,-13.92578 0.441697,-2.35447 0.997381,-3.39781 1.541015,-3.17969 z m 228.318358,3.78125 c 0.6291,0.31555 1.08203,1.66716 1.08203,4.19141 v 4.30468 l 3.1211,-1.90234 c 5.03154,-3.06781 5.33545,-2.88577 6.89062,4.09961 0.55185,2.47877 0.82879,2.60894 4.34375,2.04687 3.74356,-0.59858 3.75887,-0.5896 4.42969,3.11133 0.37008,2.0418 1.25701,4.87057 1.97266,6.28516 0.7156,1.41459 1.89675,6.29206 2.625,10.83984 l 1.32421,8.26953 -2.54687,1.31641 c -1.40071,0.72433 -4.20616,1.62891 -6.23633,2.00977 l -3.6914,0.69336 0.68945,-8.29102 c 0.48017,-5.76446 0.37198,-8.28906 -0.35547,-8.28906 -0.6141,0 -1.04492,1.96285 -1.04492,4.7539 0,7.66721 -13.34322,12.21653 -13.50782,4.60547 -0.0474,-2.19264 -0.26666,-2.61872 -0.73632,-1.43164 -0.36757,0.92903 -3.40216,2.98197 -6.74414,4.5625 -3.34201,1.58053 -7.17317,3.73657 -8.51368,4.79102 -3.22672,2.53813 -6.53341,2.41907 -11.88476,-0.42969 -2.42532,-1.29109 -5.2405,-2.13076 -6.25586,-1.86523 -1.39508,0.36482 -3.09265,-1.07219 -6.94922,-5.88477 -2.80688,-3.50269 -5.33025,-6.14044 -5.60937,-5.86133 -0.27912,0.27911 0.13599,1.15167 0.92382,1.93945 0.78783,0.78783 2.66117,3.37365 4.16211,5.7461 2.85345,4.5103 5.61839,6.35351 9.53125,6.35351 1.2791,0 3.93002,0.9016 5.89258,2.00391 4.40024,2.47146 6.75068,2.07122 14.19922,-2.41406 3.13355,-1.88691 6.04755,-3.42969 6.47461,-3.42969 1.97313,0 0.35558,1.68538 -4.14648,4.32031 -2.70642,1.584 -6.4854,3.83294 -8.39844,4.99805 -4.35388,2.65164 -6.07937,2.71 -8.27735,0.28125 -1.3297,-1.46934 -2.95846,-1.91992 -6.93359,-1.91992 -8.28261,0 -16.45814,-7.95582 -15.11328,-14.70703 0.33441,-1.67881 0.68008,-4.3496 0.76758,-5.9336 l 0.1582,-2.8789 8.76953,-0.17383 c 4.82338,-0.0953 10.53271,-0.64685 12.68555,-1.22656 2.15284,-0.57969 4.96034,-0.79193 6.24023,-0.47071 1.66604,0.41815 2.87861,-0.007 4.26563,-1.49609 4.27241,-4.58592 7.26605,-6.6e-4 3.99023,6.11133 -1.08352,2.02161 -1.77946,4.17458 -1.54687,4.78515 0.44792,1.17586 2.66898,-3.42171 5.49218,-11.36914 1.59324,-4.48489 1.93978,-4.82107 5.28711,-5.10742 l 3.58203,-0.30664 -0.5332,8.94727 -0.53515,8.94531 1.27929,-7.67969 c 1.85455,-11.13811 1.85404,-18.35224 -0.004,-16.81055 -2.77552,2.30347 -4.63966,0.3906 -3.93164,-4.0371 0.73136,-4.57391 2.26791,-6.9224 3.3164,-6.39649 z m 59.55274,1.80469 c -0.47857,0 -0.90211,0.3247 -0.94141,0.7207 -0.0392,0.396 -0.26213,1.74869 -0.49414,3.00586 -0.232,1.25717 0.10902,2.92527 0.75781,3.70703 1.00749,1.21395 1.2746,1.0653 1.83008,-1.01172 0.35772,-1.33757 0.99589,-3.00566 1.41797,-3.70703 0.52806,-0.87748 0.20879,-0.82485 -1.02344,0.16602 -1.65733,1.33271 -1.74756,1.27836 -1.23242,-0.72071 0.30612,-1.18796 0.16412,-2.16015 -0.31445,-2.16015 z m -42.625,0.1543 c 0.84488,-0.84487 3.06823,2.04026 3.71875,4.82617 0.33148,1.41964 0.16861,2.85022 -0.36133,3.17773 -0.52994,0.32753 -0.96575,0.029 -0.96875,-0.66211 -0.003,-0.69116 -0.65884,-2.50851 -1.45703,-4.03906 -0.79818,-1.53056 -1.21765,-3.01675 -0.93164,-3.30273 z m 39.72461,2.21093 c -0.21473,-0.10583 -0.71743,0.2821 -1.29883,1.05078 -0.7752,1.02492 -1.42266,3.06095 -1.43946,4.52344 -0.047,4.0955 -4.57661,10.7466 -6.32812,9.29297 -0.76088,-0.63147 -1.39044,-0.7712 -1.39844,-0.31055 -0.008,0.46065 -0.43348,0.19044 -0.94531,-0.60156 -0.8253,-1.27702 -0.93231,-1.27624 -0.94531,0.0117 -0.008,0.7988 0.95848,1.93311 2.14648,2.52148 3.2967,1.63273 3.46847,1.55697 5.04688,-2.2207 0.81038,-1.93951 1.99472,-4.15342 2.63086,-4.91992 0.6361,-0.7665 1.03068,-2.593 0.87695,-4.05859 -0.15374,-1.46563 0.17989,-2.94741 0.74219,-3.29493 0.5623,-0.34752 1.02148,-1.12099 1.02148,-1.71875 0,-0.14943 -0.0378,-0.24011 -0.10937,-0.27539 z m -41.01368,2.5 c 0.54465,0.0183 0.80469,0.46632 0.80469,1.3418 0,0.77343 -0.83932,1.85434 -1.86328,2.40234 -2.56562,1.37308 -3.82141,-0.7896 -1.46094,-2.51562 1.14461,-0.83696 1.97489,-1.24685 2.51953,-1.22852 z m 48.69336,0.37891 c -0.21472,-0.10584 -0.71742,0.28404 -1.29883,1.05273 -0.77516,1.02491 -1.42265,3.12555 -1.43945,4.66797 -0.0168,1.54243 -0.78485,3.70126 -1.70508,4.79883 -1.12813,1.34557 -0.79134,1.215 1.03321,-0.40039 2.10893,-1.8672 2.59191,-2.97017 2.18554,-5.00195 -0.28676,-1.43385 -0.10445,-2.86601 0.40625,-3.18164 0.51071,-0.31563 0.92969,-1.0624 0.92969,-1.66016 0,-0.14944 -0.0397,-0.24011 -0.11133,-0.27539 z m -66.83984,5.44336 c 0.47013,-0.0662 0.94843,-0.0659 1.39453,0.01 0.59481,0.10035 1.13348,0.33466 1.52344,0.72461 0.56387,0.5639 0.83818,1.19904 0.60937,1.41016 -1.76601,1.62963 -6.80754,1.61744 -6.49609,-0.0156 0.2167,-1.13633 1.55836,-1.93034 2.96875,-2.1289 z m -4.96484,1.3125 -0.6543,2.88086 c -0.36045,1.584 -0.83839,3.20361 -1.06055,3.59961 -0.22216,0.396 -1.02627,0.71875 -1.78711,0.71875 -1.9374,0 -1.6851,-0.99498 1.09375,-4.31836 z m 20.43164,2.66015 c -0.12492,-0.25754 -0.17171,0.67061 -0.22071,2.61915 -0.0597,2.37596 0.15467,5.31059 0.47852,6.51953 1.04783,3.91158 1.25335,1.70942 0.43164,-4.64258 -0.36157,-2.795 -0.56454,-4.23855 -0.68945,-4.4961 z m -80.45899,1.98438 c 2.25662,-0.86595 14.41289,6.71554 15.37305,9.58789 0.86323,2.58236 -9.5e-4,2.84748 -2.01758,0.61914 -2.28665,-2.52672 -9.53507,-5.73242 -12.96484,-5.73242 -2.83292,0 -3.13195,-3.42266 -0.39063,-4.47461 z m 97.79688,0.01 c -3.48937,-0.20925 -3.63332,-0.12123 -1.91016,1.16015 2.28215,1.69705 6.6144,1.85882 6.07031,0.22656 -0.21256,-0.63769 -2.08476,-1.26229 -4.16015,-1.38671 z m 48.83789,2.84374 c -2.09389,-0.33203 -6.6297,2.42058 -7.83789,5.07227 -0.84763,1.86033 -0.78305,2.31055 0.33593,2.31055 0.80727,0 1.16989,-0.57326 0.86524,-1.36719 -0.30371,-0.79143 0.34988,-1.83478 1.55273,-2.47852 2.71133,-1.45102 3.89481,-0.23769 1.48633,1.52344 -1.02418,0.74883 -1.44958,1.36133 -0.94726,1.36133 2.01067,0 6.35206,-5.00537 5.27539,-6.08203 -0.18264,-0.18264 -0.43135,-0.29241 -0.73047,-0.33985 z m -36.00196,1.08008 c -1.24954,0.2159 -2.70427,2.48258 -2.61523,4.80469 0.051,1.32953 0.23357,1.50575 0.55664,0.53711 0.26414,-0.792 0.69325,-2.08886 0.95313,-2.88086 0.38987,-1.18816 0.71216,-1.11377 1.84375,0.42383 1.60788,2.18481 1.95844,0.0168 0.3789,-2.34375 -0.30637,-0.45787 -0.70066,-0.61298 -1.11719,-0.54102 z m 10.1543,0.91602 c -0.30581,-0.0391 -0.56033,0.1272 -0.78711,0.49414 -0.35764,0.57867 -0.14527,1.05078 0.47266,1.05078 0.76406,0 0.92282,1.07628 0.49414,3.36133 -0.35402,1.88707 -0.23873,3.35937 0.26367,3.35937 1.47675,0 2.00067,-6.10641 0.64649,-7.53125 -0.42831,-0.45064 -0.78404,-0.6953 -1.08985,-0.73437 z m -120.60937,1.00781 c 1.13996,0.009 2.76072,0.73463 5.22656,1.96875 10.45287,5.23152 10.99982,7.33263 6.35742,24.39063 -1.48632,5.46129 -1.7817,8.50788 -1.2793,13.19921 0.7296,6.81289 -0.048,7.5565 -4.30078,4.11524 -3.71131,-3.00316 -12.51607,-6.88441 -17.0664,-7.52148 l -4.10743,-0.57422 3.36915,-5.21875 c 3.79452,-5.87845 6.60788,-13.72217 8.41796,-23.46289 0.91682,-4.93367 1.48288,-6.91135 3.38282,-6.89649 z m -25.5,0.76172 c 2.25914,0.11517 6.2308,2.62851 11.3457,7.33203 2.904,2.67045 5.604,4.86957 6,4.88867 0.396,0.019 0.71875,0.68261 0.71875,1.47461 0,2.17085 -1.26472,1.74994 -4.32031,-1.43945 -1.51757,-1.584 -3.14053,-2.87891 -3.60742,-2.87891 -0.46694,0 -1.50986,-0.66216 -2.31836,-1.4707 -0.80853,-0.80853 -3.36966,-1.97864 -5.69141,-2.59961 -3.0329,-0.81118 -4.22266,-1.62086 -4.22266,-2.87891 0,-1.70217 0.7402,-2.49683 2.09571,-2.42773 z m 70.49804,1.05469 c -0.174,-0.0197 -0.54426,0.0622 -1.07226,0.25 -2.47778,0.88116 -5.28125,3.29419 -5.28125,4.54687 0,0.53821 1.18862,-0.0618 2.64062,-1.33398 1.452,-1.27212 3.07161,-2.66832 3.59961,-3.10352 0.264,-0.21759 0.28728,-0.33971 0.11328,-0.35937 z m -72.53711,5.33398 c 2.87873,-0.38724 8.30213,2.77581 15.22657,9.03906 l 4.03906,3.65235 -2.16992,4.50781 c -1.1929,2.47936 -3.37905,6.42802 -4.85938,8.77539 -3.41184,5.41024 -3.37775,7.23608 0.24414,12.94727 1.61482,2.54626 2.70792,5.22218 2.42969,5.94726 -0.93231,2.42955 -5.14225,0.45394 -10.95508,-5.14062 -0.69733,-0.67116 -3.28913,-2.36318 -5.75976,-3.75977 -2.47065,-1.39659 -6.02597,-3.55505 -7.90235,-4.79883 -1.87637,-1.24379 -4.14538,-2.26171 -5.04101,-2.26172 -2.63379,1e-5 -1.91818,-2.1681 3.05664,-9.25195 4.26097,-6.06741 7.26121,-11.6559 9.69922,-18.06836 0.35546,-0.93493 1.03261,-1.45881 1.99218,-1.58789 z m 198.08789,3.23438 c -0.69374,0.0424 -1.35861,0.20266 -1.90039,0.50586 -1.38648,0.77593 -1.23598,0.92773 0.92969,0.92773 3.50528,0 4.32928,1.07552 2.08203,2.71875 -2.16579,1.58367 -1.25654,1.81423 1.44727,0.36719 1.02129,-0.54658 1.85742,-1.6175 1.85742,-2.38086 0,-1.32928 -2.3347,-2.26586 -4.41602,-2.13867 z m -7.40234,1.99218 c -1.38568,0.32396 -3.54101,1.6924 -3.54102,2.53321 10e-6,0.47597 1.40315,1.00055 3.11915,1.16601 1.71596,0.16545 3.8849,0.38434 4.82031,0.48438 0.93541,0.10005 1.45109,-0.22469 1.14453,-0.7207 -0.30658,-0.49604 -1.58607,-0.90235 -2.84375,-0.90235 -1.25768,0 -2.55454,-0.43098 -2.88086,-0.95898 -0.32632,-0.528 -0.0632,-0.96094 0.58398,-0.96094 0.64718,0 0.92591,-0.24986 0.61914,-0.55664 -0.18229,-0.18233 -0.55959,-0.19194 -1.02148,-0.084 z m -52.4082,1.60157 c -1.17172,0 -3.10393,5.7321 -2.34571,6.95898 0.71625,1.15894 3.12844,-2.84846 3.17774,-5.2793 0.0187,-0.92396 -0.35568,-1.67968 -0.83203,-1.67968 z m 6.83789,0.95898 c -0.96312,0 -3.05277,5.47848 -2.35547,6.17578 0.29002,0.29 1.10783,0.047 1.81641,-0.54101 1.37056,-1.1375 1.80087,-5.63477 0.53906,-5.63477 z m -100.28906,1.19336 c 0.44027,-0.0539 1.29464,1.01051 2.52343,3.38672 3.1051,6.00457 6.12268,7.90039 12.57618,7.90039 4.74107,0 6.31511,0.39266 7.69726,1.91992 2.45435,2.71203 3.92004,2.40042 11.52148,-2.44922 3.696,-2.35796 7.79915,-4.81739 9.11915,-5.46679 1.31996,-0.64941 2.97028,-1.72642 3.66796,-2.39258 1.54452,-1.47468 2.73375,-1.54288 3.56055,-0.20508 0.68928,1.11526 6.29617,0.48995 9.10938,-1.01563 1.50315,-0.80444 4.05839,0.4346 2.71875,1.31836 -3.87208,2.55445 -11.18455,3.29316 -13.16211,1.33008 -0.9693,-0.96219 -1.07984,-0.86539 -0.56446,0.48828 0.87864,2.30786 3.99717,2.92048 9.07618,1.7793 5.4642,-1.22773 5.4049,-1.36564 2.74023,6.31836 -3.23666,9.33341 -6.92952,11.69844 -13.08984,8.38086 l -3.33399,-1.79492 -3.0332,3.61328 c -2.84989,3.39454 -3.43799,3.64427 -9.7207,4.14844 l -6.68946,0.53711 -3.47461,-3.69532 c -1.91136,-2.03227 -3.9507,-4.55923 -4.53125,-5.61523 -0.91819,-1.67016 -1.05868,-1.69967 -1.08398,-0.23828 -0.11584,6.66659 -11.42565,-0.92959 -14.19727,-9.53516 -1.74721,-5.42488 -2.16347,-8.62303 -1.42968,-8.71289 z m 102.95703,4.56641 c -0.528,0 -0.95899,0.67488 -0.95899,1.49804 0,0.82314 0.43099,1.22868 0.95899,0.90235 0.528,-0.32632 0.96093,-0.99926 0.96093,-1.4961 0,-0.49683 -0.43293,-0.90429 -0.96093,-0.90429 z m -30.41407,0.25586 c 1.07166,0.27059 0.81411,1.5128 -1.02539,2.47656 -4.22245,2.21227 -7.91992,2.31765 -7.91992,0.22461 0,-1.53457 0.61121,-1.99967 2.64063,-2.00977 1.452,-0.007 3.61083,-0.27341 4.79883,-0.59179 0.64318,-0.17238 1.14864,-0.18984 1.50585,-0.0996 z m -74.88085,0.78906 c 0.49602,0.0399 1.04551,0.8188 1.63867,2.3789 1.35853,3.57322 1.17506,5.24779 -0.50391,4.60352 -0.792,-0.30393 -1.43945,-0.12447 -1.43945,0.39844 0,0.52291 0.8388,1.16959 1.86328,1.4375 5.40518,1.41349 7.63472,29.49805 2.3418,29.49804 -1.27019,1e-5 -5.22003,0.78224 -8.77735,1.74024 -6.96732,1.87633 -9.36721,1.80203 -10.18164,-0.32031 -0.49379,-1.28679 3.92038,-5.25977 5.84375,-5.25977 4.0397,0 6.36836,-5.72563 6.53516,-16.06836 0.19356,-12.00116 1.19153,-18.52799 2.67969,-18.4082 z m 71.93554,4.33203 c 1.70028,-0.13602 0.89807,4.36219 -1.0293,5.77148 -1.2914,0.94435 -7.85156,1.6967 -7.85156,0.90039 0,-3.03604 2.48965,-6.30734 4.89453,-6.43164 1.53235,-0.0792 3.32633,-0.18743 3.98633,-0.24023 z m -64.625,8.10547 c 0.58199,0.0708 1.51261,0.58292 2.42188,1.49219 0.84418,0.84418 3.25209,1.76553 5.34961,2.04687 3.9733,0.53294 4.89409,1.55925 2.29492,2.55664 -4.02292,1.54374 -7.71904,-0.21231 -10.39453,-4.9375 -0.48566,-0.85771 -0.25387,-1.22903 0.32812,-1.1582 z m -36.01367,3.79883 c 5.04196,0 7.0219,4.14569 4.77539,10 -0.94361,2.45895 -1.74679,1.81254 -4.49609,-3.61719 -3.16848,-6.2575 -3.17424,-6.38281 -0.2793,-6.38281 z m 76.97461,0.0762 c 0.54255,0.0388 1.57065,0.4869 3.25781,1.35937 2.10036,1.08613 3.40947,1.1967 5.36524,0.45313 3.18979,-1.21278 3.65366,-0.84492 1.92187,1.52344 -1.19744,1.63755 -1.78278,1.71657 -5.50976,0.74218 -3.86481,-1.0104 -4.01352,-0.98259 -2.01172,0.375 1.188,0.80571 2.16015,1.80697 2.16015,2.22657 0,0.41959 -1.94431,0.76367 -4.32031,0.76367 -4.76964,0 -5.15845,-0.49703 -2.56641,-3.2793 0.96421,-1.03494 1.57754,-2.41195 1.36133,-3.06055 -0.25672,-0.77015 -0.20075,-1.1423 0.3418,-1.10351 z m 47.80078,1.00976 c 0.39485,0.0319 0.90033,0.14989 1.52344,0.34766 1.12485,0.35701 1.87865,1.15238 1.67383,1.76758 -0.59748,1.79467 -3.27489,1.84082 -3.95508,0.0684 -0.6149,-1.60238 -0.42674,-2.27923 0.75781,-2.1836 z M 251.21289,229.803 c 0.57199,-0.20108 1.55566,0.25726 3.64649,1.13086 1.99851,0.83505 3.25258,1.86709 2.7871,2.29493 -2.78815,2.56268 -8.29427,2.12924 -7.60937,-0.59961 0.44281,-1.76431 0.6038,-2.62509 1.17578,-2.82618 z m 41.94336,0.18165 c 1.0197,0.0701 1.82597,0.23503 2.16406,0.51562 1.09734,0.91071 4.19922,6.26494 4.19922,7.24805 0,0.43924 -0.59624,0.32406 -6.11133,-1.17969 -4.36479,-1.19012 -8.28906,-3.66423 -8.28906,-5.22656 0,-0.92546 4.97801,-1.56777 8.03711,-1.35742 z m 53.82227,0.41601 c 2.33781,0 4.81305,2.12639 3.73242,3.20703 -0.98662,0.98662 -5.89,0.74106 -6.55078,-0.32812 -0.93876,-1.51894 0.39279,-2.87891 2.81836,-2.87891 z m -30.64063,0.30469 c 0.26854,0.25535 -0.09,1.07525 -1.19336,2.3457 -1.64889,1.89857 -13.67985,3.77524 -15.09961,2.35547 -1.51495,-1.51494 0.067,-2.12695 5.50196,-2.12695 3.97356,0 6.77294,-0.52306 8.2207,-1.53711 1.40474,-0.98391 2.30177,-1.29246 2.57031,-1.03711 z m -56.30078,3.76172 c 0.36624,-0.10858 0.91543,0.25202 1.80664,0.80859 3.10371,1.93829 4.38786,4.63284 3.00195,6.30273 -0.65185,0.78543 -2.33136,2.02064 -3.73047,2.74415 l -2.54296,1.31445 0.43359,-5.45703 c 0.32102,-4.04715 0.42084,-5.53193 1.03125,-5.71289 z m 138.33984,0.73242 c -4.22803,0 -3.21618,2.01882 2.02149,4.0293 5.23708,2.01022 5.84521,2.04529 8.0039,0.46679 2.33766,-1.70935 -0.28117,-4.54139 -4.07031,-4.40039 -2.57019,0.0957 -2.57184,0.0976 -0.24414,0.74805 3.12554,0.87343 3.74899,3.00132 0.87305,2.98242 -2.92585,-0.0192 -5.05898,-1.41091 -4.22656,-2.75781 0.43049,-0.69661 -0.38855,-1.06836 -2.35743,-1.06836 z m -142.7207,0.18164 c 2.50174,0.35605 2.51437,7.77957 0.0215,12.60742 -2.69157,5.21262 1.61009,6.81252 10.81055,4.02149 14.08172,-4.27184 14.00387,0.59818 -0.0879,5.5 -2.95721,1.15264 -6.26202,2.12602 -8.96094,3.07421 -6.2814,2.21622 -14.55859,6.3817 -14.55859,7.32618 0,1.36195 -1.65055,1.05723 -2.21289,-0.40821 -0.2738,-0.71352 0.10298,-4.70846 0.83789,-8.8789 0.73493,-4.17049 1.34507,-9.15791 1.35547,-11.08203 0.0282,-5.21773 8.04438,-12.83625 12.79492,-12.16016 z m 52.08398,1.75976 c 2.17632,0.0165 4.25977,0.33424 4.25977,0.93946 0,0.528 -0.61253,0.95898 -1.36133,0.95898 -0.74882,0 -1.93744,0.15585 -2.64062,0.34571 -2.08264,0.56232 -5.67235,-0.40842 -5.07617,-1.37305 0.37226,-0.60242 2.64207,-0.88752 4.81835,-0.8711 z m 7.61915,15.33985 c -5.14915,0 -5.73145,0.14675 -3.83985,0.9707 2.182,0.95044 4.44659,0.81959 4.37109,-0.25195 -0.0279,-0.396 -0.26728,-0.71875 -0.53124,-0.71875 z m -6.88086,1.0293 c -0.46558,0.008 -1.37279,0.42811 -2.4629,1.25585 -0.91576,0.69542 -1.38481,1.54488 -1.04101,1.88868 0.34379,0.34378 1.27245,0.625 2.06445,0.625 0.79203,0 1.15603,-0.28344 0.8086,-0.63086 -0.34741,-0.34742 -0.15057,-1.21138 0.4375,-1.91992 0.68145,-0.82107 0.65893,-1.22638 0.19336,-1.21875 z m -58.3125,11.5664 c 0.90399,-0.17276 1.35351,0.25838 1.35351,1.29492 0,0.77621 1.26766,3.90915 2.81641,6.96094 1.54875,3.05179 3.26622,6.7355 3.8164,8.1875 1.32852,3.50617 0.50192,3.30026 -5.125,-1.28125 -2.60309,-2.1195 -5.95058,-4.57362 -7.43945,-5.45312 -3.57365,-2.11101 -3.42001,-4.3855 0.50195,-7.37696 1.8133,-1.38307 3.17215,-2.15927 4.07618,-2.33203 z" />
  </g>
</svg>
