<?xml version="1.0" encoding="UTF-8" standalone="no"?>
<!-- Created with Inkscape (http://www.inkscape.org/) -->

<svg
   version="1.1"
   id="svg2"
   width="502.92661"
   height="1157.6978"
   viewBox="0 0 502.92661 1157.6978"
   xmlns:xlink="http://www.w3.org/1999/xlink"
   xmlns="http://www.w3.org/2000/svg"
   xmlns:svg="http://www.w3.org/2000/svg">
  <defs
     id="defs6">
    <linearGradient
       id="linearGradient14696">
      <stop
         style="stop-color:#f5a787;stop-opacity:1;"
         offset="0"
         id="stop14694" />
      <stop
         style="stop-color:#f9c393;stop-opacity:1;"
         offset="0.98401163"
         id="stop14692" />
    </linearGradient>
    <radialGradient
       xlink:href="#linearGradient14696"
       id="radialGradient14702"
       cx="690.50848"
       cy="256.27118"
       fx="690.50848"
       fy="256.27118"
       r="17.04467"
       gradientTransform="matrix(1,0,0,1.0596637,-6.1016949,-16.646028)"
       gradientUnits="userSpaceOnUse" />
    <filter
       style="color-interpolation-filters:sRGB"
       id="filter15477"
       x="-0.28961858"
       y="-0.27290982"
       width="1.5792372"
       height="1.5458198">
      <feGaussianBlur
         stdDeviation="3.8278034"
         id="feGaussianBlur15479" />
    </filter>
  </defs>
  <g
     id="g8"
     transform="translate(-388.0499,-60.102192)">
    <path
       style="fill:#f6a934;fill-opacity:1;stroke:#f6a934;stroke-width:1.49864px;stroke-linecap:butt;stroke-linejoin:miter;stroke-opacity:1"
       d="m 708.42844,64.668382 10.47363,2.442898"
       id="path10323" />
    <path
       style="fill:none;stroke:#f6a934;stroke-width:1.37442px;stroke-linecap:butt;stroke-linejoin:miter;stroke-opacity:1"
       d="m 722.72312,68.899474 14.27834,4.446816"
       id="path11154" />
    <path
       style="fill:none;stroke:#f6a934;stroke-width:1.01078px;stroke-linecap:butt;stroke-linejoin:miter;stroke-opacity:1"
       d="m 739.30386,76.107913 c 2.90054,5.426219 2.90054,5.426219 2.90054,5.426219"
       id="path11157" />
    <path
       style="fill:none;stroke:#f9c393;stroke-width:1.16988px;stroke-linecap:butt;stroke-linejoin:miter;stroke-opacity:1"
       d="m 622.28908,159.60121 -3.90018,13.17046"
       id="path11298" />
    <path
       style="fill:none;stroke:#f6a934;stroke-width:1px;stroke-linecap:butt;stroke-linejoin:miter;stroke-opacity:1"
       d="m 674.98236,119.50963 c 0,0 12.32911,5.89968 26.18516,5.53291 13.85606,-0.36677 33.98481,-1.40678 42.80445,4.71384 10.39785,7.21586 12.34553,19.74423 10.59487,32.27894 -1.8029,12.90879 -20.68231,12.98507 -22.53155,25.8873 -1.42004,9.90767 9.91748,27.8648 9.91748,27.8648"
       id="path11301" />
    <path
       style="fill:#000000"
       d="m 399,1217.2218 c -6.528,-0.2137 -8.79,-0.6641 -9.75,-1.9412 -1.9321,-2.5703 -1.48317,-7.6416 1,-11.2966 2.72209,-4.0067 12.42814,-10.9236 15.37756,-10.9587 1.17015,-0.014 2.68775,-0.7003 3.37244,-1.5253 0.68469,-0.825 1.82832,-1.5 2.54141,-1.5 0.71308,0 2.57048,-0.6307 4.12755,-1.4016 6.61,-3.2726 10.60872,-4.5984 13.86879,-4.5984 3.14263,0 22.17198,-8.11 23.46225,-9.9992 0.275,-0.4027 2.37099,-1.6806 4.65775,-2.8397 2.28677,-1.1592 4.31177,-2.4572 4.5,-2.8844 0.18824,-0.4272 1.91725,-1.6431 3.84225,-2.702 8.42368,-4.6337 11.23116,-6.8837 12.56128,-10.0671 0.77463,-1.854 1.82908,-3.6308 2.34323,-3.9486 1.29307,-0.7991 4.71522,-12.5315 6.28846,-21.559 1.59948,-9.1781 1.34846,-28.7405 -0.45449,-35.4192 -1.46736,-5.4356 -1.03055,-5.091 -12.23848,-9.6551 -10.04566,-4.0908 -23.82842,-12.3053 -28.59428,-17.0421 -2.6708,-2.6546 -3.80749,-4.7824 -4.27367,-8 -0.86881,-5.9968 1.64722,-24.7032 4.28838,-31.8836 0.50576,-1.375 1.67739,-5.2 2.60361,-8.5 2.7687,-9.8645 4.62474,-15.8251 5.91632,-19 1.98628,-4.88253 4.71459,-10.89091 5.67607,-12.5 0.49297,-0.825 1.19896,-2.175 1.56888,-3 0.36991,-0.825 3.34796,-4.425 6.61787,-8 7.37869,-8.06714 10.1939,-12.4387 11.08151,-17.20776 0.37955,-2.03927 1.34549,-4.96427 2.14654,-6.5 0.80105,-1.53573 1.45922,-3.33947 1.46261,-4.00831 0.003,-0.66884 0.64554,-2.69384 1.42701,-4.5 3.65856,-8.45584 6.50512,-16.63893 7.05593,-20.28393 0.33246,-2.2 0.98744,-5.125 1.45552,-6.5 1.35451,-3.97886 3.87405,-20.26984 5.56772,-36 0.85868,-7.975 2.05037,-17.2 2.6482,-20.5 0.59784,-3.3 1.44814,-14.775 1.88956,-25.5 1.04846,-25.47385 1.99685,-30.04063 7.60237,-36.60781 4.62106,-5.41383 5.70865,-10.02789 2.911,-12.34974 -2.03549,-1.68931 -3.85254,-7.70547 -3.1603,-10.46358 0.31955,-1.27321 2.61234,-4.78236 5.09508,-7.79812 5.66193,-6.8775 5.75171,-11.17231 0.51026,-24.40965 -0.85607,-2.16201 1.43533,-17.47068 4.54593,-30.3711 0.86202,-3.575 1.9182,-8.075 2.34708,-10 0.42887,-1.925 1.7697,-5.42485 2.97961,-7.77745 1.29386,-2.51582 1.87683,-4.82594 1.41552,-5.60924 C 524.92687,686.61034 513.41677,675 511.80583,675 c -1.02978,0 -4.0924,1.125 -6.80583,2.5 -3.89061,1.97152 -6.44052,2.5 -12.06246,2.5 -8.14195,0 -11.67171,-1.55723 -14.47413,-6.38554 -0.99422,-1.71295 -5.03089,-8.06446 -8.97039,-14.11446 -9.56024,-14.68193 -27.46791,-51.78589 -27.49918,-56.97719 -0.003,-0.56255 -0.61506,-2.18968 -1.35926,-3.61584 -0.74421,-1.42617 -1.67222,-4.29407 -2.06225,-6.37311 -0.39003,-2.07904 -1.09767,-4.51218 -1.57252,-5.40697 -1.79352,-3.37957 -5.75359,-21.16651 -6.93007,-31.12689 -0.48723,-4.125 -1.46872,-10.31946 -2.18108,-13.76546 -1.59447,-7.71316 -0.29442,-13.70576 4.14063,-19.08624 3.61922,-4.39075 3.6751,-5.81565 0.45429,-11.58467 -9.63863,-17.26443 -10.44682,-21.16353 -5.82065,-28.0815 4.07738,-6.0973 9.18873,-11.59749 14.62961,-15.74255 6.88913,-5.24837 8.31329,-7.42654 9.04789,-13.83818 0.75931,-6.62722 3.06943,-13.59183 5.34089,-16.10175 2.66405,-2.94375 16.48994,-2.52332 24.66673,0.75007 l 6.36909,2.54972 3.53406,-2.08515 c 4.29428,-2.53368 4.85809,-4.41965 4.07847,-13.64258 l -0.60532,-7.16091 3.97356,-2.62958 c 3.14301,-2.07995 5.04427,-2.59169 9.09604,-2.44828 5.7928,0.20503 8.20605,-1.2057 8.20605,-4.79709 0,-3.24342 5.0715,-13.90537 8.90603,-18.72335 C 525.60771,387.47437 527,385.34768 527,384.88653 527,383.78411 542.08012,368 543.13337,368 c 0.69273,0 8.345,-4.60875 18.66095,-11.23899 1.48812,-0.95644 3.38068,-2.00526 4.20568,-2.3307 0.825,-0.32545 3.3,-1.40967 5.5,-2.4094 3.71971,-1.69031 11.94881,-5.38633 19,-8.53366 1.65,-0.73648 4.8,-2.06878 7,-2.96066 6.96175,-2.82228 6.9378,-2.78939 8.10268,-11.13067 1.65066,-11.81983 3.49993,-14.93939 11.14732,-18.80463 5.10156,-2.57849 4.34135,-5.13373 -4.18042,-14.05149 -5.1647,-5.40468 -8.56309,-10.09853 -11.14498,-15.3934 -5.998,-12.30051 -6.8169,-16.55517 -6.76474,-35.1464 0.0495,-17.6338 1.28886,-25.96835 5.10857,-34.35388 1.21606,-2.66963 2.13333,-6.04463 2.0384,-7.5 -0.46827,-7.17879 0.21167,-9.25169 4.5722,-13.93896 2.44617,-2.62947 4.70016,-6.19618 5.10658,-8.08063 1.08052,-5.0102 4.42176,-10.12653 6.61317,-10.12653 2.40994,0 2.88307,4.88048 1.26027,13 -0.44886,2.24582 0.10682,2.7663 5.46546,5.11921 6.82145,2.99521 9.37304,6.16951 6.28687,7.82118 -2.02136,1.0818 -6.31896,0.14626 -11.11138,-2.41881 -1.375,-0.73594 -4.14904,-1.64724 -6.16453,-2.02509 -3.22018,-0.6037 -3.87015,-0.37319 -5.36024,1.90097 -2.64842,4.042 -1.25799,7.11309 4.79108,10.58224 3.0238,1.73415 6.71154,3.01196 8.73369,3.02623 4.47468,0.0316 6.25639,1.16236 5.38977,3.42072 -0.59441,1.54902 -1.67692,1.70424 -8.78387,1.25954 -4.45824,-0.27896 -9.30363,-0.81733 -10.76753,-1.19638 -2.12866,-0.55118 -2.97102,-0.21699 -4.2067,1.66889 -2.29969,3.50978 -4.62308,19.83225 -4.62765,32.51053 -0.005,12.76507 1.59135,20.35377 6.48386,30.83077 7.0897,15.18211 24.96787,27.83991 41.51212,29.39071 5.76017,0.53994 6.53637,0.86539 6.81955,2.85929 0.27705,1.95074 -0.12196,2.24565 -3,2.21728 -1.82575,-0.018 -6.44725,-0.43555 -10.26999,-0.92791 -7.70158,-0.99194 -10.20561,-0.26 -11.08253,3.23949 -0.67604,2.69783 1.69122,9.73027 4.69576,13.94976 1.21269,1.70306 2.46503,4.71083 2.78299,6.68393 0.54184,3.36245 0.83122,3.60612 4.61388,3.88506 3.69316,0.27235 4.62459,-0.22218 10.97163,-5.82523 8.7957,-7.76469 27.71976,-19.15336 42.10753,-25.34069 6.26059,-2.69231 12.19775,-5.95981 13.55676,-7.46092 4.28979,-4.73834 7.88168,-10.09109 10.02355,-14.93743 1.15057,-2.60334 3.74076,-6.98334 5.75599,-9.73334 2.01523,-2.75 4.50649,-6.44426 5.53613,-8.20947 1.7932,-3.07424 1.79742,-3.29198 0.10006,-5.16754 -0.97461,-1.07693 -1.62336,-3.00767 -1.44167,-4.29052 0.31389,-2.21621 0.66033,-2.31539 6.95065,-1.98971 7.6056,0.39376 10.02541,-0.56727 17.07967,-6.78322 C 758.85692,243.19369 768,227.76838 768,222.40329 c 0,-9.80587 -10.05855,-12.66129 -21.33071,-6.05537 -5.39708,3.1629 -6.66929,3.297 -6.66929,0.70297 0,-4.47126 15.04279,-11.70057 22.10526,-10.62341 4.89621,0.74676 6.18661,-1.00951 8.37389,-11.39703 2.76343,-13.12363 1.84252,-21.34998 -4.7611,-42.53045 l -3.11779,-10 -11.3273,-11.25 C 745.04294,125.0625 739.54621,120 739.058,120 737.6,120 731.47418,110.83849 729.67457,105.96657 728.75356,103.47318 728,99.942437 728,98.120475 c 0,-5.153713 2.96191,-14.185721 4.84014,-14.759447 0.91292,-0.278863 2.52804,-0.978373 3.58915,-1.554467 1.06111,-0.576093 4.76382,-1.214983 8.22825,-1.419754 3.46444,-0.204771 6.81501,-0.488073 7.44572,-0.629559 0.63071,-0.141487 1.35299,0.305252 1.60507,0.992752 0.2861,0.78026 -0.44425,1.25 -1.9435,1.25 -1.321,0 -4.68597,0.678317 -7.4777,1.507372 -4.46738,1.326668 -5.26835,1.988432 -6.6815,5.520236 -1.96161,4.902549 -1.99108,7.131037 -0.17348,13.119922 2.23405,7.36104 4.02191,10.11049 10.68405,16.43035 9.49824,9.01026 14.03685,14.09868 16.69675,18.71943 6.19338,10.75906 8.10868,14.7969 8.70836,18.35898 0.35591,2.11404 1.03205,5.19371 1.50253,6.84371 0.47048,1.65 1.3267,8.41294 1.90271,15.02875 1.20628,13.85485 -0.11889,24.74231 -3.76332,30.91917 -1.7718,3.00297 -2.16323,5.24373 -2.16323,12.38346 0,8.45462 -0.13139,8.9476 -4.36419,16.3752 -6.87804,12.06941 -14.78685,20.03676 -24.13581,24.31448 -4.13417,1.89164 -5.40097,3.08748 -10.57106,9.97894 -7.57666,10.09929 -8.77954,14.5 -3.96342,14.5 3.68965,0 9.03448,4.92058 9.03448,8.31736 0,1.31162 -1.17409,4.58928 -2.60909,7.2837 -2.273,4.26787 -2.53127,5.67185 -2.00495,10.89894 0.43834,4.35344 0.19386,6.78604 -0.89091,8.86431 -3.38737,6.48974 -1.37608,9.50432 10.00495,14.99573 14.14094,6.82308 47.30043,29.87525 53.60088,37.26285 2.91058,3.4128 12.9719,20.8116 13.51296,23.36764 0.29216,1.38021 1.15011,4.08447 1.90655,6.00947 0.75645,1.925 1.65462,5.36071 1.99594,7.63492 0.71979,4.79598 3.50498,8.21838 7.31017,8.98265 3.96837,0.79704 5.5703,2.38749 7.46258,7.40912 1.41287,3.74942 1.50011,5.07156 0.50802,7.6999 -1.04052,2.75664 -0.94569,3.45174 0.72232,5.29487 1.65347,1.82706 2.8268,2.077 8.45033,1.8001 L 843.5,441.5 l 0.32818,3.5 c 0.1805,1.925 1.0805,4.33538 2,5.35641 2.54391,2.82478 8.63439,5.60819 13.82968,6.32028 2.96381,0.40624 5.73842,1.59908 7.61065,3.27192 2.48628,2.22149 3.05128,3.6459 3.61801,9.12131 0.83882,8.10428 3.38426,12.50498 8.9433,15.46167 9.18698,4.88629 10.14452,8.00038 5.17018,16.81442 -1.65,2.92363 -3,6.48959 -3,7.92433 0,1.43475 2.025,6.41609 4.5,11.06965 2.475,4.65356 4.48941,9.74329 4.47646,11.31051 -0.0394,4.77563 -3.79853,17.36865 -6.64033,22.24523 -4.04568,6.94244 -11.72792,16.83776 -18.71339,24.10427 -8.13224,8.45942 -10.75636,12.04536 -15.40998,21.05822 -4.75668,9.21245 -19.01729,30.70989 -24.17413,36.44178 -0.98964,1.1 -3.54069,4.49909 -5.66899,7.55354 -4.58298,6.5773 -9.30159,10.925 -23.18808,21.3654 -15.02783,11.2985 -16.5388,14.84779 -11.58849,27.22161 2.59584,6.48858 2.62823,9.38168 0.13835,12.35945 -4.07314,4.87126 -15.08352,9.52085 -19.99249,8.44266 -1.61394,-0.35448 -5.59243,-2.22787 -8.84108,-4.16308 -5.51629,-3.28603 -6.12115,-3.4337 -9.15225,-2.23438 -7.31692,2.89509 -10.18662,8.17989 -11.25379,20.72479 C 735.62057,737.01173 736.24235,738 743.55735,738 c 9.38275,0 14.06203,3.47535 11.09423,8.23981 -0.77434,1.2431 -1.676,3.72037 -2.0037,5.50504 -0.49092,2.67356 -0.0528,3.86328 2.48828,6.75745 2.96446,3.37633 3.0211,3.60875 1.46004,5.99122 -0.89323,1.36324 -2.64884,3.15009 -3.90136,3.97078 -1.25252,0.82068 -2.8693,3.12926 -3.59284,5.13017 -1.62705,4.49953 -0.20522,7.8253 3.96732,9.27985 1.53042,0.53351 3.46782,2.01754 4.30534,3.29785 3.53268,5.40037 3.94081,13.14133 4.57793,86.82783 0.50597,58.51767 0.89822,73.27144 2.03386,76.5 1.30614,3.7133 3.94217,8.09077 11.7508,19.51375 1.69706,2.48256 3.78612,7.20756 4.64237,10.5 0.85625,3.29244 4.02217,13.46747 7.03538,22.61115 6.95495,21.1052 9.21564,30.2928 10.00668,40.668 0.79668,10.4493 -0.4086,15.1104 -4.93488,19.0845 -9.36941,8.2265 -27.74418,17.116 -35.41288,17.1324 -2.75863,0.01 -6.69912,0.9991 -9.92871,2.5025 l -5.3548,2.4928 0.58992,4.2474 c 0.32445,2.3361 0.99132,9.4225 1.48194,15.7475 0.49062,6.325 1.35454,12.6543 1.91982,14.0651 0.56528,1.4108 1.34457,5.2358 1.73176,8.5 1.13997,9.6107 2.99937,16.5117 6.31423,23.4349 3.75841,7.8495 5.59987,10.1388 10.1443,12.611 1.90981,1.0389 6.20202,3.7168 9.53825,5.9508 3.33622,2.2339 6.72365,4.3745 7.52762,4.7567 0.80396,0.3823 3.26175,1.7975 5.46175,3.1449 2.2,1.3474 4.57144,2.4694 5.26987,2.4932 0.69843,0.024 3.05199,1.1684 5.23013,2.5434 2.54994,1.6097 5.41134,2.5 8.03499,2.5 2.24111,0 6.18755,0.9246 8.76987,2.0546 2.58233,1.13 5.59514,2.4096 6.69514,2.8435 7.2735,2.8692 18.35564,9.2266 22.0893,12.6718 3.83475,3.5384 4.4107,4.605 4.4107,8.1682 0,7.8888 3.98434,7.2619 -46.15665,7.2619 -39.49557,0 -45.32283,-0.1966 -48.07927,-1.622 -3.48763,-1.8035 -13.76434,-1.4526 -16.18037,0.5525 -2.12189,1.761 -16.95586,2.5722 -20.46406,1.1191 C 711.67724,1215.2095 711,1211.8359 711,1191.5469 v -18.1546 l 3.25,-3.0858 c 1.7875,-1.6972 4.26145,-3.3905 5.49768,-3.7628 2.91116,-0.8768 3.82565,-4.6714 1.98391,-8.2321 -1.82523,-3.5287 -3.68898,-8.7721 -4.73159,-13.3116 -0.44213,-1.925 -1.36181,-5.075 -2.04374,-7 -0.68193,-1.925 -1.80176,-5.075 -2.48851,-7 -2.98677,-8.3721 -6.15131,-20.858 -7.05761,-27.8463 -0.4626,-3.5671 -1.76006,-6.895 -3.89866,-10 l -3.20531,-4.6537 -14.09465,-0.2771 c -13.79877,-0.2713 -14.21446,-0.3448 -19.80253,-3.5 -3.13933,-1.7726 -7.0883,-4.9339 -8.77549,-7.025 -2.6235,-3.2517 -3.05614,-4.5953 -2.98841,-9.2811 0.0436,-3.0134 0.75719,-7.1525 1.58584,-9.1979 2.57136,-6.347 3.82326,-10.8809 4.43826,-16.0735 0.52245,-4.4113 0.22379,-5.5981 -2.53854,-10.0875 -4.15317,-6.7498 -4.06749,-10.355 0.37906,-15.9486 3.88656,-4.8893 4.66671,-9.7384 1.74029,-10.8171 -2.60755,-0.9612 -9.98317,-7.15446 -10.67862,-8.96678 -0.33324,-0.8684 -0.17169,-2.1021 0.359,-2.74154 3.83521,-4.62113 4.82433,-29.25114 1.60975,-40.08388 -0.97927,-3.3 -2.10648,-9.6 -2.50491,-14 -0.39844,-4.4 -1.19277,-9.125 -1.76519,-10.5 C 643.48976,925.72362 641,916.43288 641,914.06602 c 0,-1.24202 -0.62764,-4.57746 -1.39476,-7.41211 -0.76712,-2.83465 -2.1401,-9.65391 -3.05107,-15.15391 -0.91097,-5.5 -2.2609,-12.7 -2.99984,-16 -2.52227,-11.26406 -3.47122,-16.00094 -5.10851,-25.5 -2.04236,-11.84913 -2.87178,-14 -5.3987,-14 -3.06143,0 -5.04712,4.93212 -5.04712,12.53621 0,10.07978 -4.40653,27.02686 -8.65545,33.28799 -2.12482,3.13111 -3.30071,6.47412 -7.97605,22.6758 -2.36746,8.20408 -2.40807,23.81756 -0.0733,28.20034 1.09647,2.05829 1.70484,5.48853 1.70484,9.6125 0,5.59243 -0.37648,6.88589 -2.94498,10.11792 -5.11992,6.44259 -5.52419,9.26848 -2.60473,18.20715 1.40234,4.29363 2.54971,8.41396 2.54971,9.15628 0,1.60318 -4.90851,10.27538 -6.62555,11.70581 -2.10556,1.75409 -5.36684,7.92409 -5.37071,10.1608 -0.003,1.583 1.23777,2.7618 4.63961,4.4086 l 4.64334,2.2478 -0.86091,11.5914 c -0.4735,6.3753 -0.72698,16.0914 -0.5633,21.5914 0.16369,5.5 -0.006,12.8775 -0.3775,16.3945 -0.61267,5.803 -1.0958,6.8442 -5.22357,11.2571 -2.50165,2.6745 -6.16842,5.872 -8.14837,7.1055 -5.65844,3.5254 -18.18851,8.7429 -20.99649,8.7429 -1.40233,0 -4.36473,0.6462 -6.58312,1.4361 -2.21839,0.7898 -5.70768,1.7077 -7.75399,2.0397 -2.04631,0.3321 -5.10355,1.7675 -6.79385,3.1898 -2.92167,2.4584 -6.98559,9.0414 -6.98559,11.3156 0,0.5835 -1.30571,3.8639 -2.90159,7.2898 -5.07587,10.8966 -6.09841,13.4856 -6.09841,15.4405 0,1.0501 -1.1573,4.8071 -2.57177,8.3489 -1.41448,3.5418 -3.25887,8.6896 -4.09866,11.4396 -0.83978,2.75 -2.15748,6.815 -2.92822,9.0334 -0.77074,2.2184 -1.40135,5.6619 -1.40135,7.6522 0,3.0464 0.43492,3.7718 2.75,4.5866 1.5125,0.5323 3.9875,2.2127 5.5,3.7342 l 2.75,2.7663 v 18.1412 c 0,21.6876 -0.0477,21.8093 -9.22395,23.5196 -5.24192,0.977 -7.42947,0.9022 -13.27605,-0.4535 -12.36112,-2.8664 -12.20446,-2.8655 -17.75877,-0.099 l -5.24123,2.6104 -35.5,0.2544 c -19.525,0.1399 -39.325,0.1291 -44,-0.024 z m 435.99247,-4.2171 c 4.11471,-2.5431 -4.8462,-4.6792 -13.90976,-3.3158 -5.65852,0.8511 -7.85994,2.866 -3.89034,3.5607 4.64116,0.8122 16.35029,0.6511 17.8001,-0.2449 z m -420.36836,-1.2955 c 1.11566,-1.1156 -6.06143,-3.9389 -9.87928,-3.8862 -7.66154,0.1057 -13.45735,2.2151 -12.10381,4.4052 0.63733,1.0312 20.91153,0.5526 21.98309,-0.519 z M 482,1209.2483 c 1.375,-0.5752 4.525,-2.9166 7,-5.203 8.52391,-7.8746 10.36629,-8.9216 19.04561,-10.8232 l 8.45439,-1.8524 -0.33114,-6.9348 c -0.42333,-8.8655 -1.60891,-10.269 -6.65267,-7.8756 -6.76797,3.2117 -13.13686,1.4669 -26.99793,-7.3961 -5.81962,-3.7212 -10.01221,-3.3346 -16.63263,1.5335 -2.9621,2.1781 -8.41451,5.7249 -12.11647,7.8817 -4.1823,2.4367 -6.7381,4.5795 -6.75,5.6591 -0.0105,0.9556 1.66834,2.8142 3.73084,4.1303 2.0625,1.3161 4.84707,3.5783 6.18794,5.0271 2.03848,2.2025 2.2813,3.0823 1.48195,5.3696 -0.73468,2.1022 -1.70422,2.808 -4.18794,3.0489 -1.77757,0.1723 -3.23195,-0.082 -3.23195,-0.566 0,-0.4837 -2.5875,-1.8935 -5.75,-3.1331 -3.1625,-1.2395 -7.22777,-2.8973 -9.03393,-3.684 -5.45693,-2.3767 -16.99626,-1.8597 -23.59164,1.0571 -6.53781,2.8913 -7.19691,4.5126 -1.83453,4.5126 6.14392,0 15.15234,2.811 20.10039,6.2722 4.21083,2.9454 5.43176,3.2679 14.10971,3.7261 14.93709,0.7888 34.2579,0.3972 37,-0.75 z m 319.24907,-0.5322 c 1.35736,-1.2189 3.51417,-2.834 4.7929,-3.5891 3.5051,-2.0701 14.95601,-5.127 19.20485,-5.127 4.61581,0 4.84132,-1.3427 0.50318,-2.9959 -1.7875,-0.6812 -4.66801,-1.8608 -6.40113,-2.6213 -4.74231,-2.081 -14.67718,-1.7251 -21.7462,0.779 -3.35647,1.189 -6.53017,2.539 -7.05267,3 -0.5225,0.461 -1.96264,0.8382 -3.20031,0.8382 -1.23767,0 -2.64878,0.712 -3.13579,1.5823 -0.57294,1.0238 -1.91408,1.465 -3.79969,1.25 -2.4372,-0.2779 -2.96354,-0.838 -3.21558,-3.4216 -0.31733,-3.2528 1.96173,-6.1818 8.82964,-11.3479 l 3.24004,-2.4371 -2.88415,-2.3258 c -1.58629,-1.2793 -6.03416,-4.1966 -9.88416,-6.483 -3.85,-2.2865 -7.15,-4.5306 -7.33333,-4.9871 -0.18334,-0.4564 -0.91574,-0.8298 -1.62756,-0.8298 -0.71182,0 -1.85442,-0.675 -2.53911,-1.5 -2.06865,-2.4926 -5.80603,-1.708 -11.29291,2.3707 -7.41456,5.5117 -14.76222,7.5484 -24.75999,6.8631 -7.79255,-0.5341 -8.06985,-0.4761 -9.71286,2.0315 -1.82154,2.78 -2.11926,9.7497 -0.48624,11.3827 0.55028,0.5503 2.06959,1.141 3.37625,1.3127 10.26292,1.3485 17.07285,4.6406 24.87575,12.0257 2.475,2.3424 5.33076,4.6959 6.34612,5.2298 1.01537,0.534 11.65363,1.026 23.64057,1.0934 21.17994,0.1191 21.86404,0.06 24.26238,-2.0935 z m -285.43509,-3.0267 0.31398,-3.8106 -4.24742,0.3106 c -3.69942,0.2705 -4.34363,0.6729 -4.99312,3.119 -0.61786,2.327 -0.37211,2.9628 1.43344,3.7087 1.19852,0.4952 3.30414,0.8064 4.67914,0.6916 2.12957,-0.1778 2.54652,-0.7733 2.81398,-4.0193 z m 210.60423,3.7036 c 0.86999,-0.3338 1.58179,-1.422 1.58179,-2.4182 0,-3.6573 -1.17599,-4.9748 -4.44032,-4.9748 -4.0839,0 -4.25152,0.1996 -3.75304,4.4694 0.33882,2.9023 0.82303,3.5306 2.72098,3.5306 1.26984,0 3.02061,-0.2731 3.89059,-0.607 z m 17.17829,-43.4391 c 8.61829,-4.1131 9.2972,-5.619 5.7634,-12.7841 -3.74311,-7.5895 -6.2874,-15.0393 -6.32725,-18.5265 -0.018,-1.5711 -0.69576,-6.7461 -1.50624,-11.5 -0.81047,-4.7538 -2.16726,-14.4231 -3.01508,-21.4872 -2.00396,-16.6972 -2.2347,-17.1163 -8.85856,-16.0883 -2.83402,0.4398 -9.17858,0.8694 -14.09902,0.9547 -5.84601,0.1013 -9.08213,0.5627 -9.33835,1.3313 -0.21565,0.6469 0.27335,3.532 1.08666,6.4112 0.81331,2.8793 2.49605,9.735 3.73942,15.235 1.24336,5.5 3.83065,14.275 5.74953,19.5 6.24516,17.0052 10.20899,29.3414 10.20899,31.7722 0,2.9836 5.1182,8.2278 8.03011,8.2278 1.20118,0 5.05605,-1.3707 8.56639,-3.0461 z m -238.05105,-0.4084 c 1.42257,-1.4226 2.46051,-3.6299 2.46872,-5.25 0.008,-1.5375 1.82928,-7.9705 4.04774,-14.2955 2.21845,-6.325 4.4232,-12.85 4.89943,-14.5 1.44083,-4.992 5.93115,-16.0814 7.896,-19.5 1.34887,-2.3469 3.97572,-11.078 4.7003,-15.6228 l 0.65729,-4.1227 -8.35747,-0.512 c -4.5966,-0.2816 -12.40746,-0.4513 -17.35746,-0.3772 l -9,0.1347 -0.63153,9.5 c -2.02068,30.3969 -4.21743,43.4243 -8.45418,50.1358 -2.8497,4.5142 -3.10759,8.9268 -0.65161,11.1494 2.75255,2.491 10.39831,5.5663 14.03277,5.6442 2.23109,0.048 4.08823,-0.7222 5.75,-2.3839 z M 548.5,1081.0671 c 3.85,-0.525 8.67305,-1.6548 10.71788,-2.5108 2.04484,-0.856 5.07004,-1.5563 6.72267,-1.5563 4.12714,0 13.10174,-4.4167 16.86578,-8.3002 l 3.11201,-3.2108 0.52298,-19.4945 c 0.28763,-10.722 0.8032,-21.9854 1.14571,-25.0298 l 0.62273,-5.5354 -5.10488,-3.1733 C 580.2972,1010.5106 578,1008.6768 578,1008.1809 c 0,-0.496 1.0315,-2.4271 2.29222,-4.2914 3.79949,-5.61831 11.70846,-21.00104 11.69807,-22.75239 -0.0141,-2.37232 -5.90821,-9.42374 -11.71154,-14.01101 -2.75881,-2.18071 -5.93488,-5.4637 -7.05792,-7.29552 -4.45971,-7.27431 -7.06937,-12.9746 -7.72995,-16.88455 -0.58392,-3.45622 -0.33482,-4.48324 1.58236,-6.52399 1.25147,-1.33212 2.94901,-2.42204 3.77233,-2.42204 1.93007,0 5.15443,2.915 5.15443,4.65989 0,3.30677 8.4709,18.34171 10.33156,18.33741 0.64264,-10e-4 3.19344,-1.74856 5.66844,-3.88238 4.40722,-3.79967 4.49846,-4.00064 4.42532,-9.74729 -0.0411,-3.2272 -0.43884,-11.26763 -0.88391,-17.86763 -0.71813,-10.64917 -0.567,-12.96394 1.34257,-20.56305 1.18348,-4.70968 3.07745,-11.00968 4.20882,-14 1.13136,-2.99032 2.44314,-6.56195 2.91505,-7.93695 0.47191,-1.375 2.20611,-6.17413 3.85377,-10.66473 1.7184,-4.68342 2.75214,-9.09624 2.42443,-10.34941 -0.51148,-1.9559 1.41184,-12.45691 3.75209,-20.48586 3.72774,-12.78913 4.29886,-19.26228 4.632,-52.5 0.44601,-44.49847 0.43287,-47.34169 -0.28994,-62.75152 -0.45025,-9.59882 -0.27557,-14.08687 0.63371,-16.28207 0.69041,-1.66679 0.99827,-3.28757 0.68412,-3.60171 -0.31414,-0.31414 -3.86221,-0.97702 -7.8846,-1.47307 -8.12598,-1.00211 -13.80429,-2.16492 -18.31343,-3.75023 -1.65,-0.5801 -6.24295,-2.02438 -10.20656,-3.2095 -3.96361,-1.18512 -10.20101,-3.90462 -13.86089,-6.04333 -3.65988,-2.13871 -6.94193,-3.87011 -7.29344,-3.84756 -1.75952,0.11292 -9.10548,7.97682 -9.71316,10.39801 -0.46921,1.86947 -1.78519,3.23096 -4.02925,4.16859 -4.60775,1.92524 -6.98472,1.75191 -11.60791,-0.84648 l -3.98353,-2.23886 -1.90263,2.34965 C 529.85618,703.16423 529,705.3263 529,706.67653 c 0,1.35022 -0.52709,3.43787 -1.17131,4.63921 -0.64422,1.20134 -1.93103,7.35926 -2.85957,13.68426 -1.44885,9.86919 -1.49546,11.9782 -0.32869,14.87212 0.74776,1.85467 1.35957,4.67611 1.35957,6.26987 0,1.59376 1.11151,5.63319 2.47001,8.97649 l 2.47002,6.07875 -1.91241,3.74863 c -1.05182,2.06175 -3.05706,4.49864 -4.45609,5.41531 -1.39902,0.91668 -3.2667,2.77016 -4.15039,4.11885 -1.52711,2.33066 -1.45348,2.72 1.48607,7.8578 1.70103,2.9731 3.09279,6.15778 3.09279,7.07707 0,0.91929 -2.23893,3.73385 -4.9754,6.25457 -7.38196,6.79994 -8.84801,11.5778 -9.36293,30.51357 -0.44163,16.24103 -2.0279,31.3548 -3.81166,36.31697 -0.59313,1.65 -1.41524,8.85 -1.82692,16 -0.42963,7.46181 -1.48708,15.34308 -2.48219,18.5 -1.71226,5.43198 -2.2119,7.7748 -4.58524,21.5 -0.66573,3.85 -2.5031,11.19249 -4.08304,16.31665 C 492.29268,939.94081 491,945.72281 491,947.66553 c 0,1.94271 -0.72782,5.17522 -1.61738,7.18334 -4.73934,10.69873 -9.43525,18.99445 -14.13542,24.97142 -7.53739,9.58489 -11.20641,15.3784 -11.2282,17.72971 -0.0104,1.1275 -0.50398,2.535 -1.09674,3.1277 -0.59275,0.5928 -1.45423,2.5953 -1.91439,4.45 -0.46017,1.8548 -1.58234,5.8473 -2.49372,8.8723 -2.77497,9.2105 -4.70272,17.2924 -5.12833,21.5 -0.22253,2.2 -0.90635,6.9516 -1.5196,10.5591 -1.32467,7.7926 -0.3224,10.4892 6.03251,16.2304 10.85205,9.8042 25.98702,16.4759 43.60127,19.2201 9.71827,1.5141 34.35116,1.2821 47,-0.4425 z m 36.22747,-281.06681 c -19.28544,-0.96861 -27.72499,-2.51542 -31.1741,-5.71361 -3.66771,-3.40089 -3.28156,-5.81289 1.3188,-8.23754 3.08391,-1.6254 7.14774,-0.76191 14.55351,3.09238 5.44459,2.8336 7.10211,3.16361 19.5414,3.8907 16.04405,0.93778 20.54232,1.67172 22.15491,3.61477 3.17365,3.82401 -2.54837,4.55097 -26.39452,3.3533 z M 598.5,783.40731 C 585.91734,778.57175 572.23081,771.62865 565.26576,766.54777 561.83693,764.0465 558.60709,762 558.08834,762 c -1.67225,0 -5.18658,-5.31938 -4.88281,-7.39076 0.16196,-1.10438 1.79355,-2.88104 3.62576,-3.94813 l 3.3313,-1.94017 5.6687,3.99487 c 3.11779,2.19717 6.79371,4.34566 8.16871,4.7744 1.375,0.42875 5.55929,3.04693 9.29843,5.81818 3.73913,2.77124 10.89696,7.10893 15.90627,9.63931 9.90213,5.0019 11.95717,6.97888 10.18934,9.8023 -1.43881,2.29793 -5.92122,2.56838 -10.89404,0.65731 z m 112.74501,297.50319 c 1.50976,0.066 4.25193,-0.5091 6.09372,-1.2787 1.84179,-0.7695 6.23153,-1.6925 9.75499,-2.0511 9.72492,-0.9897 31.43023,-7.8257 40.90628,-12.8833 9.62381,-5.1364 15.75259,-10.3772 18.81296,-16.0872 1.77138,-3.3051 1.81783,-4.0632 0.57296,-9.3534 -0.74507,-3.1662 -1.35948,-8.0068 -1.36535,-10.7568 -0.006,-2.75 -0.65597,-7.025 -1.44466,-9.5 -0.78869,-2.475 -2.19562,-7.2 -3.12653,-10.5 -0.9309,-3.3 -2.31283,-7.4778 -3.07096,-9.28393 C 777.62029,997.40991 777,995.32962 777,994.59319 c 0,-1.8734 -3.85137,-10.3833 -5.02847,-11.11079 C 771.43719,983.15216 771,981.11528 771,978.95601 771,975.50067 766.44853,965.87488 763.92818,964 762.91789,963.24845 759,954.3086 759,952.75486 c 0,-0.74517 -0.54696,-1.90182 -1.21547,-2.57033 -1.83772,-1.83772 -3.91484,-64.42317 -2.42889,-73.18453 1.2681,-7.47691 1.73994,-51.88951 0.64808,-61.00155 -2.35851,-19.68279 -2.94966,-22.98631 -4.55044,-25.4294 -0.93529,-1.42744 -2.63202,-2.57071 -3.81829,-2.57279 C 744.2276,787.9903 739,784.30552 739,781.90972 c 0,-1.16582 1.2375,-3.98493 2.75,-6.2647 1.5125,-2.27976 3.41431,-5.43068 4.22625,-7.00203 1.40394,-2.71707 1.34271,-2.97188 -1.25,-5.20204 -2.96616,-2.55138 -3.59362,-6.4762 -1.33503,-8.35067 1.26363,-1.04872 1.85297,-2.85383 2.78813,-8.53989 0.33672,-2.04732 -0.66227,-2.56059 -8.92267,-4.58431 -6.32419,-1.54936 -7.63136,-4.73808 -7.03334,-17.15717 0.32299,-6.70746 0.12521,-9.84241 -0.6255,-9.91487 -0.60381,-0.0583 -2.30931,-0.0271 -3.79,0.0693 -2.0742,0.13503 -4.10404,-1.22353 -8.84305,-5.9186 -3.38299,-3.35162 -6.47888,-7.3203 -6.87976,-8.8193 -0.41474,-1.55084 -1.55982,-2.87621 -2.65695,-3.07527 C 704.70153,696.65547 701,692.99552 701,690.7943 c 0,-2.61591 -2.36132,-3.21643 -7.27298,-1.84963 -2.32486,0.64695 -6.02702,1.62487 -8.22702,2.17315 -2.2,0.54828 -4.4275,1.42107 -4.95,1.93953 -0.5225,0.51846 -1.7049,0.94265 -2.62756,0.94265 -0.92265,0 -2.23775,0.675 -2.92244,1.5 -0.68469,0.825 -2.07452,1.5 -3.08852,1.5 -1.01399,0 -3.32139,0.62958 -5.12755,1.39906 -10.77801,4.59177 -18.64213,6.58094 -29.58519,7.48336 -8.29313,0.68389 -8.35392,0.73583 -10.0852,8.61758 -1.66876,7.59715 -1.38561,48.42267 0.40646,58.60577 0.8125,4.61682 1.48888,11.09423 1.50308,14.39423 0.0142,3.3 0.45715,7.86832 0.98434,10.15182 0.5272,2.2835 1.40506,7.6835 1.95081,12 2.66431,21.0729 4.4248,31.90547 8.5888,52.84818 0.76548,3.85 1.88689,10.31563 2.49202,14.36807 0.60513,4.05243 1.51889,8.46923 2.03059,9.8151 0.5117,1.34586 0.93711,4.33023 0.94537,6.63193 0.008,2.30169 1.16554,7.7849 2.57176,12.1849 1.40622,4.4 2.94867,11.22729 3.42766,15.17176 0.47899,3.94447 1.30935,7.99447 1.84523,9 1.80211,3.38149 4.16445,18.74296 4.51018,29.32824 0.18863,5.775 0.95253,13.09731 1.69757,16.2718 1.13232,4.82467 1.13531,6.30154 0.0182,9 -0.73502,1.77551 -1.54821,4.63933 -1.80709,6.36405 -0.42102,2.80493 0.006,3.46413 4.05042,6.24647 8.97178,6.17278 9.55004,8.24098 4.42253,15.81758 -3.74496,5.5337 -4.30005,11.9315 -1.32082,15.2235 3.04416,3.3637 2.95665,8.7394 -0.34698,21.3145 -1.69602,6.4559 -3.06207,12.7559 -3.03565,14 0.10113,4.7626 3.35908,9.063 9.87521,13.035 5.9949,3.6543 7.12855,3.9694 17,4.7256 5.81722,0.4456 12.60176,0.581 15.07676,0.3009 2.475,-0.2801 5.73526,-0.4551 7.24501,-0.3889 z M 669.58742,800.00511 c -2.70192,-0.4872 -5.82034,-1.79359 -6.92983,-2.90308 -1.71357,-1.71356 -1.84286,-2.39999 -0.85886,-4.55964 1.35063,-2.9643 5.17077,-3.35199 11.70127,-1.18752 4.76026,1.57774 15.17271,0.79089 23.5,-1.77585 13.93497,-4.29521 17,-4.44863 17,-0.85095 0,2.46229 -2.74985,3.97506 -14.44426,7.94621 -10.94583,3.71695 -21.38964,4.87773 -29.96832,3.33083 z m -25.5939,-15.80928 c -1.9255,-1.55917 -2.08695,-2.15274 -1.09146,-4.01283 0.94253,-1.76113 2.06247,-2.183 5.79523,-2.183 4.34458,0 11.24548,-1.60471 19.30271,-4.4886 8.37435,-2.99738 13.64635,-4.52095 15.62788,-4.51635 1.17033,0.003 3.83361,-0.70775 5.9184,-1.57883 4.70731,-1.96684 8.60648,-0.71639 7.76771,2.49108 -0.58569,2.23969 -6.41915,6.0927 -9.22435,6.0927 -0.98782,0 -4.8996,1.16307 -8.69284,2.58459 -3.79324,1.42153 -8.25739,2.92615 -9.92033,3.34361 -1.66293,0.41746 -3.91293,1.21836 -5,1.77977 -1.08706,0.56141 -5.63198,1.31256 -10.09983,1.66923 -6.99595,0.55847 -8.43699,0.39452 -10.38312,-1.18137 z m 90.31679,-76.83947 c 0.354,-0.354 3.10619,-1.6445 6.11597,-2.86777 3.00979,-1.22326 8.53265,-4.47863 12.27303,-7.23414 11.16708,-8.22671 18.84481,-11.40576 18.12401,-7.50445 -0.18427,0.99737 -3.44137,3.38379 -7.57332,5.54883 -3.9875,2.08935 -7.25,4.41909 -7.25,5.17719 0,2.03434 7.09593,7.52398 9.72553,7.52398 2.56171,0 11.76687,-6.23484 12.66652,-8.57929 0.32344,-0.84288 -0.0824,-3.13731 -0.90199,-5.09873 -1.7921,-4.2891 -1.91145,-11.66144 -0.31399,-19.39557 1.15887,-5.6107 1.13149,-5.75053 -1.87219,-9.5602 C 773.62734,663.2398 770.61745,658.2375 768.61524,654.25 766.17539,649.39091 764.39665,647 763.22156,647 755.40598,647 713,681.333 713,687.66069 c 0,5.04511 4.25535,3.7296 15.59237,-4.82026 2.80081,-2.11224 5.37237,-3.84043 5.71458,-3.84043 0.34222,0 2.55065,-1.36632 4.90763,-3.03626 12.48904,-8.8486 24.12902,-15.15285 26.38171,-14.28842 1.82982,0.70217 1.46305,3.35085 -0.59629,4.30613 -8.6934,4.03267 -13.72971,6.8144 -18.19537,10.04993 -2.91755,2.11386 -7.71262,5.55907 -10.65572,7.65601 -8.34365,5.94479 -11.02543,8.5902 -11.72162,11.56261 -0.92331,3.94207 0.91469,3.55074 8.57271,-1.82518 C 750.05102,681.455 759.36788,676 762.7607,676 c 4.9297,0 4.72765,1.72919 -0.4767,4.07972 -7.63508,3.44838 -23.57573,14.42824 -28.14719,19.38769 -3.54486,3.84571 -4.03109,4.86161 -3.13145,6.5426 1.09262,2.04158 2.17058,2.48072 3.30495,1.34635 z m -189.9203,-10.65228 c 1.69542,-1.23972 1.69422,-1.46737 -0.0277,-5.25 -4.99962,-10.98311 -21.34505,-30.84803 -28.81375,-35.01792 -4.28466,-2.39218 2.1987,-7.78359 6.82516,-5.67563 1.30556,0.59485 7.42944,7.85227 13.60862,16.1276 10.57323,14.15997 13.59579,17.10865 16.00867,15.6174 2.14052,-1.32291 0.99974,-4.30079 -6.99344,-18.25553 -0.55131,-0.9625 -1.40949,-2.65 -1.90705,-3.75 -1.12315,-2.48301 -16.64885,-20.6733 -18.55589,-21.74054 -0.767,-0.42923 -2.55298,-0.25261 -3.96884,0.3925 -1.41585,0.64511 -2.83384,0.91336 -3.15108,0.59613 -1.11438,-1.11439 1.66967,-4.73117 4.11411,-5.34469 4.43892,-1.1141 7.40793,0.40436 10.26372,5.24922 1.48908,2.52622 4.52692,6.97173 6.75075,9.8789 2.22383,2.90716 4.92383,6.97678 6,9.04359 3.01105,5.78279 8.80214,11.69674 11.03797,11.27215 2.83225,-0.53784 2.97993,-5.18649 0.30557,-9.61844 -7.11453,-11.79023 -19.59192,-29.64068 -22.50899,-32.2019 -2.70211,-2.37248 -3.99149,-2.8542 -6.36763,-2.37897 -4.05758,0.81152 -5.33452,-2.1572 -2.06622,-4.80371 5.53579,-4.48261 9.98139,-1.08019 21.20395,16.22839 6.50679,10.03543 8.82134,12.02765 11.44447,9.85065 1.95464,-1.62222 1.06496,-5.7743 -2.71555,-12.67328 -8.05349,-14.69666 -9.35523,-16.95785 -11.22015,-19.48994 -5.59492,-7.59652 -16.50151,-3.83541 -32.91829,11.3518 -2.88115,2.66537 -5.97567,5.09494 -6.87669,5.39905 -0.90103,0.3041 -2.81992,2.33856 -4.26419,4.521 -2.73297,4.1298 -5.23059,5.08803 -6.26125,2.40218 -0.37238,-0.97042 0.59026,-2.79488 2.53139,-4.79761 3.84086,-3.96277 3.9393,-6.5628 0.53954,-14.25027 -7.50963,-16.9806 -9.66393,-28.61013 -11.25203,-60.74177 -0.73993,-14.97069 -0.91343,-15.95345 -3.10896,-17.60954 -1.9652,-1.48236 -12.40348,-5.06106 -19.54627,-6.70132 -1.1,-0.25261 -2.9,-0.82713 -4,-1.27672 -1.1,-0.44959 -4.025,-1.63841 -6.5,-2.64183 -2.475,-1.00342 -5.57319,-2.63229 -6.88486,-3.61971 -4.06537,-3.06041 -5.90766,-2.31336 -8.51963,3.45468 -4.04378,8.92993 -3.37818,20.41852 2.70847,46.75 4.2972,18.59008 8.4413,29.68948 20.52992,54.98653 0.91636,1.91759 5.26837,9.56759 9.67115,17 4.40278,7.43241 8.85397,15.08847 9.89154,17.01347 3.80505,7.05951 9.92944,12 14.87561,12 4.24069,0 11.78781,-3.16195 13.39243,-5.61091 C 508.9099,670.4885 510.10195,670 513.49451,670 c 3.80993,0 4.63184,0.45305 7.7102,4.25 1.89512,2.3375 5.2757,6.96621 7.51241,10.28602 3.87453,5.75074 11.37616,13.46398 13.09459,13.46398 0.4433,0 1.60351,-0.58316 2.57826,-1.29592 z m 103.91717,0.35271 c 2.30605,-0.51877 7.56782,-1.67595 11.69282,-2.57151 7.03498,-1.52734 11.31983,-2.92561 18.5,-6.03707 1.65,-0.71501 4.64301,-2.00836 6.65113,-2.87411 2.00812,-0.86576 4.61007,-1.5741 5.78212,-1.5741 2.16682,0 9.06675,-2.53773 9.06675,-3.33467 0,-0.24019 -0.63175,-1.65442 -1.40389,-3.14273 -2.91162,-5.61214 -0.45029,-9.48583 16.55496,-26.05449 12.73884,-12.41179 18.83588,-16.99506 30.78499,-23.14173 3.81935,-1.96469 7.19766,-4.23246 7.50735,-5.0395 0.30969,-0.80703 -0.0663,-2.66423 -0.8355,-4.12711 -0.76922,-1.46287 -2.23295,-5.30342 -3.25274,-8.53454 l -1.85416,-5.87476 4.74949,-4.17934 c 2.66258,-2.34295 4.73729,-5.03436 4.72172,-6.12524 -0.0153,-1.07024 -1.36528,-3.25839 -3,-4.86256 -3.51736,-3.45161 -4.00464,-8.33903 -1.09403,-10.97309 1.93409,-1.75033 11.97277,-21.38562 14.11592,-27.61024 0.66279,-1.925 2.10973,-7.1 3.21544,-11.5 1.1057,-4.4 3.07887,-10.25 4.38482,-13 C 776.80395,521.84717 779,513.08958 779,508.9309 c 0,-0.98787 -0.82003,-2.05639 -1.82228,-2.37449 -1.00225,-0.31811 -5.04306,-3.72343 -8.97958,-7.56739 C 763.54072,494.4411 760.23824,492 758.74293,492 c -3.6929,0 -6.8031,2.8872 -9.37506,8.70286 -2.14864,4.85846 -2.68639,5.3939 -5.13395,5.11201 -4.32128,-0.49769 -4.23101,-4.70545 0.20632,-9.61704 C 746.39811,494.0307 748,491.83383 748,491.31589 748,488.4578 758.99151,482 763.85613,482 c 2.61547,0 10.51619,6.45313 13.59293,11.10238 1.4477,2.18764 3.72543,4.47563 5.06162,5.08444 2.25044,1.02537 3.1369,0.43057 12.03216,-8.07335 5.2815,-5.04915 11.48248,-10.36323 13.77995,-11.80906 2.29746,-1.44583 6.65221,-4.46364 9.67721,-6.70626 6.44117,-4.77523 11.66847,-7.85904 18.25,-10.76646 4.97184,-2.19634 6.08105,-4.27446 2.83194,-5.30568 -1.13488,-0.3602 -2.46459,-2.32724 -3.25653,-4.81739 -1.2743,-4.00687 -1.52034,-4.20294 -5.1324,-4.09008 -2.53245,0.0791 -5.52279,1.27816 -8.99347,3.60612 -7.26957,4.87605 -19.27298,10.7736 -25.17317,12.36816 -4.29064,1.15956 -5.28623,1.13932 -7.25,-0.14739 -3.04605,-1.99585 -2.86764,-4.73635 0.63574,-9.76525 C 794.50504,446.08727 807.05553,435 809.92558,435 812.4943,435 818,431.48008 818,429.83784 c 0,-2.40173 -4.25767,-5.05751 -8.66922,-5.40754 -4.37485,-0.34712 -5.27467,-1.16498 -5.47299,-4.97447 -0.31534,-6.05759 -4.01354,-18.19556 -7.98879,-26.22028 -5.16776,-10.432 -14.88192,-21.03791 -27.03869,-29.52086 -20.72906,-14.46465 -28.38135,-19.61679 -29.20661,-19.66427 -1.39211,-0.0801 -12.96122,-6.09634 -14.70244,-7.64567 -2.73205,-2.43096 -4.91494,-1.57426 -11.25781,4.41821 -3.3899,3.20263 -11.33845,10.25872 -17.66345,15.6802 -10.20641,8.74844 -20.07386,18.29311 -25.25,24.42404 -2.13721,2.53144 -5.91086,2.6846 -7.95366,0.3228 -0.8325,-0.9625 -3.4425,-6.025 -5.8,-11.25 -2.3575,-5.225 -4.74538,-10.0856 -5.3064,-10.80133 -1.05894,-1.35097 -5.90696,-1.10712 -17.80653,0.89565 -6.11879,1.02983 -8.40746,0.58836 -9.32334,-1.79839 -1.27986,-3.33524 1.44049,-4.49475 9.88941,-4.21525 C 644.08264,354.39936 648,353.49381 648,350.9483 648,347.75704 644.10155,346 637.02089,346 c -3.59375,0 -7.9824,0.41537 -9.75256,0.92304 -5.95079,1.70667 -23.02717,17.58934 -26.79008,24.91735 -4.05233,7.89165 -6.47928,8.99209 -9.0154,4.08778 -1.77268,-3.428 -1.84496,-3.2649 4.68777,-10.57876 C 601.50352,359.35646 604,353.90419 604,348.2065 c 0,-2.68024 -0.25681,-5.12998 -0.57069,-5.44386 -0.31388,-0.31388 -1.77638,0.0584 -3.25,0.82718 -1.47362,0.76882 -3.21041,1.40063 -3.85954,1.40402 -1.0235,0.005 -6.47129,2.30586 -17.81977,7.52501 -1.65,0.75884 -5.025,2.10388 -7.5,2.989 -2.475,0.88511 -6.3,2.92996 -8.5,4.54412 -2.2,1.61415 -6.01757,4.17529 -8.48349,5.69142 -6.62659,4.07427 -17.62203,14.89286 -22.1017,21.74624 -4.05427,6.20254 -7.3432,14.22071 -10.46398,25.51037 -1.88387,6.81507 -3.83537,10 -6.12726,10 -0.75155,0 -3.12543,-1.16404 -5.27529,-2.58675 -6.3373,-4.19383 -7.54828,-3.26837 -7.54828,5.76859 0,8.66074 -0.96119,10.26919 -9.65822,16.16194 -4.95943,3.3603 -13.82054,13.42465 -13.87358,15.75745 -0.0175,0.76932 -0.6925,2.27228 -1.5,3.3399 -1.99229,2.63404 -1.82663,6.83301 0.57144,14.48388 5.20194,16.59642 14.9554,27.10426 30.91489,33.30598 5.34374,2.07654 7.46915,1.13166 11.08939,-4.92992 1.24859,-2.09059 3.59148,-5.21581 5.20641,-6.94493 l 2.93625,-3.14386 -3.84329,-4.35614 c -2.11381,-2.39588 -4.09362,-4.58114 -4.39957,-4.85614 -0.30596,-0.275 -2.2526,-2.75 -4.32587,-5.5 -2.07328,-2.75 -6.03014,-7.37151 -8.79303,-10.27003 -3.19694,-3.35389 -4.81064,-5.82455 -4.43818,-6.79515 0.78903,-2.05618 7.28776,-4.67294 9.70215,-3.90664 1.78899,0.56781 10.48604,10.10387 15.54485,17.04449 1.1735,1.61003 2.50562,2.57021 2.96026,2.13374 1.61601,-1.55144 -2.74174,-15.07168 -6.78442,-21.04917 -3.77741,-5.58527 -3.87549,-5.92682 -2.22553,-7.75 1.0899,-1.20433 3.05445,-1.90724 5.33049,-1.90724 4.38477,0 5.45743,1.42753 9.39265,12.5 5.4542,15.34643 6.46456,20.5699 7.73712,40 1.60488,24.50417 0.36561,45.68173 -3.39405,58 -0.83933,2.75 -2.00398,6.57203 -2.58811,8.4934 -1.57897,5.19369 -1.29851,12.21002 0.60094,15.03409 0.91465,1.35988 4.79086,5.73987 8.61381,9.7333 4.87625,5.09371 6.78062,7.77988 6.38056,9 -3.10927,9.48286 -3.15438,10.15667 -0.97175,14.51691 1.16247,2.32226 2.81978,5.7973 3.6829,7.7223 0.86313,1.925 3.38331,7.35786 5.60041,12.07303 4.25808,9.0558 4.77217,12.23554 2.84144,17.57487 -0.92757,2.56516 -0.91281,4.68263 0.067,9.61216 1.0564,5.31478 1.02373,6.99838 -0.20507,10.56498 -1.28328,3.72475 -1.28274,4.42168 0.004,5.70883 0.80637,0.80637 1.87168,1.46613 2.36736,1.46613 1.53026,0 12.23479,5.29257 16.53154,8.17358 6.10172,4.09126 18.61855,7.77821 30.42437,8.96178 5.775,0.57896 10.6875,1.23535 10.91667,1.45865 0.82864,0.80741 19.29905,0.38319 23.39051,-0.53722 z M 676.25,658.25391 c -2.09906,-0.70625 -1.41522,-1.95888 2.25,-4.12141 1.925,-1.13578 3.5,-2.4999 3.5,-3.03139 0,-1.92133 -4.18884,-2.22908 -9.29064,-0.68258 -17.40571,5.27619 -56.96461,5.32421 -72.54576,0.0881 -5.68684,-1.9111 -7.14701,-3.61674 -5.15303,-6.01933 1.56894,-1.89047 6.06573,-1.8913 13.0215,-0.002 3.00736,0.81667 14.24293,1.97289 24.96793,2.56938 19.02128,1.0579 19.84737,1.02145 33.64952,-1.48485 16.41731,-2.98118 25.11884,-3.33661 25.99182,-1.06166 1.74772,4.55449 -11.26817,15.46994 -16.39134,13.74619 z M 599.5,632.606 c -4.4,-0.70886 -11.68316,-2.68806 -16.1848,-4.39822 -15.68215,-5.95762 -19.2645,-9.22922 -13.93185,-12.7233 2.44704,-1.60336 4.14801,-1.27204 13.11665,2.55495 2.40289,1.02533 10.65375,4.1731 15.5,5.91338 6.34512,2.27852 17.29566,3.88528 19.85295,2.913 2.91866,-1.10967 22.97896,0.0532 23.79872,1.37959 1.36548,2.20939 -2.52412,3.89861 -9.75554,4.23672 -4.06787,0.1902 -11.22113,0.58587 -15.89613,0.87926 -4.90997,0.30815 -11.87886,-0.0109 -16.5,-0.75538 z m 123.41654,33.73916 c 18.28734,-13.22693 22.39005,-15.95284 29.64845,-19.69891 C 756.45074,644.64081 760.52324,643 761.61499,643 764.15148,643 766,641.15125 766,638.61445 766,635.76019 762.08267,632 759.10912,632 c -3.96603,0 -11.12764,2.98012 -16.61208,6.91268 -2.75163,1.97303 -6.58404,4.38909 -8.51646,5.36902 -5.53995,2.80932 -12.44417,9.20316 -16.44271,15.22721 -2.0201,3.0434 -4.72974,6.22592 -6.02142,7.07227 -1.29168,0.84634 -2.61906,2.24384 -2.94974,3.10556 -0.6463,1.68426 1.01297,4.31326 2.72228,4.31326 0.57425,0 5.80665,-3.44468 11.62755,-7.65484 z M 791.9457,662.25 c 19.7329,-14.23383 21.37871,-15.69473 25.62942,-22.75 2.31957,-3.85 6.90047,-10.375 10.17976,-14.5 6.62183,-8.32955 11.82865,-16.52886 18.86018,-29.6996 2.78271,-5.2123 8.60969,-13.43636 14.29162,-20.17085 11.42613,-13.54278 21.69233,-28.27877 23.08053,-33.12955 2.95121,-10.31237 -0.59182,-22.5454 -8.46198,-29.21673 -5.97716,-5.06668 -29.16611,2.32562 -44.52523,14.19399 -6.20527,4.79497 -6.93178,5.91305 -6.9682,10.72395 -0.0542,7.16343 -7.82258,31.65514 -13.95373,43.9927 -1.69294,3.40665 -3.07807,6.71222 -3.07807,7.34571 0,0.63349 -0.61784,2.34623 -1.37297,3.80609 C 802.89159,598.13402 801,603.10843 801,605.01369 c 0,5.53297 -11.25622,23.92546 -22.19517,36.26658 l -6.00991,6.78027 2.56673,5.21973 C 778.37927,659.41694 783.59853,666 785.44627,666 c 0.71536,0 3.6401,-1.6875 6.49943,-3.75 z M 864,539.5 c -1.76549,-2.12728 0.40816,-4.5 4.12244,-4.5 2.36842,0 2.87756,0.4234 2.87756,2.39301 0,3.53929 -4.64976,4.93886 -7,2.10699 z m -88.62214,97.4731 c 1.8961,-1.6648 5.52341,-6.9523 8.06069,-11.75 2.53728,-4.79771 6.37997,-11.1981 8.5393,-14.2231 2.25084,-3.15319 5.92284,-10.83365 8.60573,-18 4.59129,-12.26392 5.3675,-14.11338 8.74276,-20.83104 0.92051,-1.83207 1.67366,-3.9854 1.67366,-4.78518 0,-0.79978 0.64001,-2.45081 1.42225,-3.66896 1.2319,-1.91839 2.00803,-6.69604 1.67907,-10.33584 -0.0617,-0.68298 -3.71572,-1.39912 -9.35132,-1.83276 C 792.76389,550.62395 791,549.24025 791,540.75994 791,533.71334 789.7639,531 786.55371,531 c -4.03446,0 -11.38105,10.78015 -12.94837,19 -0.36704,1.925 -1.717,5.525 -2.99989,8 -1.2829,2.475 -4.19394,8.0915 -6.469,12.48112 -2.27505,4.38962 -4.13645,8.78606 -4.13645,9.76987 0,1.62239 2.11112,5.2928 6.63072,11.52824 1.60539,2.21487 1.52456,2.39844 -2.86207,6.5 -4.00326,3.7431 -4.58491,4.84321 -5.13959,9.72077 -0.34401,3.025 -0.89947,7.54581 -1.23435,10.04625 -0.59692,4.45693 -0.52819,4.59964 3.4982,7.26419 2.56325,1.69627 4.10709,3.47937 4.10709,4.74359 0,3.01241 3.82409,9.94597 5.48553,9.94597 0.79468,0 2.99623,-1.36211 4.89233,-3.0269 z M 514.75115,620.31013 c 2.33813,-1.89526 4.728,-4.3369 5.3108,-5.42589 0.58281,-1.08899 2.04479,-2.41596 3.24885,-2.94884 1.20406,-0.53287 3.9892,-1.98562 6.1892,-3.22833 2.2,-1.24271 6.13285,-3.07063 8.73966,-4.06203 2.60681,-0.99141 4.99156,-2.21014 5.29943,-2.70829 0.30788,-0.49816 -2.49997,-4.00667 -6.23965,-7.79669 -7.06686,-7.16196 -11.03994,-14.82225 -9.37108,-18.06788 0.44461,-0.8647 1.13289,-3.37218 1.5295,-5.57218 0.39661,-2.2 1.07693,-4.45 1.51183,-5 1.18512,-1.4988 3.82545,-15.85828 4.68877,-25.5 1.34945,-15.07094 0.64405,-36.09749 -1.27539,-38.01693 -1.45506,-1.45506 -6.04512,0.37761 -6.78647,2.70965 -0.31599,0.994 -1.6322,2.94717 -2.92491,4.34037 -4.65608,5.01805 -9.75033,12.59747 -13.08401,19.46691 -3.00677,6.19582 -3.89745,7.20105 -7.75287,8.75 -2.3957,0.9625 -5.80322,1.75 -7.57226,1.75 -5.20787,0 -6.568,3.13349 -5.95863,13.7276 0.80748,14.03844 2.48357,29.80183 3.60923,33.94429 0.57213,2.10546 1.96168,7.69307 3.08788,12.4169 2.9522,12.38296 6.84541,24.19611 8.26947,25.09204 1.83755,1.15606 4.74229,-0.0299 9.48065,-3.8707 z m 297.64186,-74.89192 c 0.33385,-0.86998 0.61973,-2.78248 0.63531,-4.25 0.058,-5.46426 20.25097,-22.65656 33.47168,-28.4978 2.2,-0.97201 4.77941,-2.19426 5.73201,-2.7161 5.22233,-2.86079 13.07185,-5.12501 19.11192,-5.51288 3.76416,-0.24172 7.21725,-0.67022 7.67354,-0.95222 0.45628,-0.28201 1.5911,-2.80536 2.52181,-5.60746 1.62993,-4.90726 1.62138,-5.16553 -0.23225,-7.01917 -1.05845,-1.05844 -4.12724,-3.37303 -6.81954,-5.14351 -6.26657,-4.12097 -8.48413,-8.03235 -9.32622,-16.44973 l -0.67722,-6.76934 -5.99202,0.23324 c -8.39833,0.32691 -18.22237,2.23972 -22.96674,4.47179 -11.36233,5.34559 -23.00441,13.52609 -33.50463,23.54258 -8.39826,8.01137 -8.73524,8.51105 -11.7644,17.44445 -2.26516,6.68025 -2.85543,9.68839 -2.15711,10.99321 0.52876,0.988 3.4799,3.6569 6.55809,5.93089 l 5.59669,4.13452 -0.54006,5.23272 c -0.80725,7.82149 2.55802,12.26359 9.42914,12.44631 1.53749,0.0409 2.89691,-0.59134 3.25,-1.5115 z M 502.7095,534.2007 c 0.66522,-0.42277 2.32875,-3.2995 3.69673,-6.39274 1.36797,-3.09325 2.9612,-5.91701 3.5405,-6.27504 C 512.40531,520.01344 510.95456,518 507.40113,518 503.79278,518 497,515.41345 497,514.03946 c 0,-0.98816 -5.71995,-6.69993 -11.27312,-11.257 -2.49157,-2.04465 -6.53237,-6.76965 -8.97956,-10.5 C 471.87258,484.85169 466,471.48283 466,467.81634 c 0,-3.58677 3.67645,-15.6028 5.95593,-19.46623 1.12424,-1.90543 2.02993,-4.00121 2.01265,-4.65727 -0.0532,-2.01936 -4.72445,-4.73479 -8.54917,-4.9697 -5.35963,-0.32918 -7.3901,2.85006 -8.13827,12.74261 -0.51535,6.81411 -0.9756,8.2556 -3.58465,11.22714 -1.64636,1.8751 -4.26259,4.06561 -5.81384,4.8678 -3.26043,1.68603 -11.41387,10.13933 -14.20243,14.72474 -2.41916,3.978 -1.83888,10.03762 1.73515,18.11912 3.87626,8.76493 20.34681,25.59545 25.048,25.59545 0.756,0 2.64852,0.63172 4.20559,1.40383 3.46992,1.72064 10.99503,3.62322 18.33104,4.63466 3.025,0.41706 6.625,1.2255 8,1.79652 2.96905,1.23301 9.99931,1.45257 11.7095,0.36569 z m 305.81814,-83.2618 c 9.2926,-4.73362 10.98594,-6.15814 10.09138,-8.48933 -1.24832,-3.25309 -7.01564,-1.11349 -14.11751,5.2374 -9.74459,8.71418 -8.56586,9.66625 4.02613,3.25193 z M 673.60921,368.75442 c 2.68993,-2.33507 5.39866,-4.69757 6.01939,-5.25 0.62073,-0.55243 6.02073,-5.05442 12,-10.00442 5.97927,-4.95 15.9339,-13.92511 22.1214,-19.94468 11.83988,-11.51856 12.73988,-13.19129 10.15264,-18.86966 -1.20782,-2.65088 0.19279,-6.32482 4.71541,-12.36894 1.31007,-1.7508 2.38195,-4.26856 2.38195,-5.59501 0,-3.1093 -3.18311,-5.97477 -6.16753,-5.55207 -1.95657,0.27712 -2.41305,1.05557 -2.83247,4.83036 -0.47793,4.30133 -0.74281,4.62091 -6,7.23865 -3.025,1.50626 -6.55557,2.74376 -7.84571,2.75 -1.29014,0.006 -3.54014,0.64234 -5,1.41354 -1.45986,0.7712 -6.02929,2.75546 -10.15429,4.40945 -4.125,1.654 -8.175,3.27797 -9,3.60883 -0.825,0.33085 -2.70713,1.3841 -4.18251,2.34054 -1.47538,0.95645 -6.42538,4.14251 -11,7.08014 -4.57462,2.93763 -9.21749,6.53763 -10.31749,8 -3.34168,4.44252 -2.10412,15.53301 3.11808,27.94278 0.76006,1.80616 1.38192,3.966 1.38192,4.79966 0,2.44938 2.93671,7.41641 4.38489,7.41641 0.73344,0 3.53439,-1.91051 6.22432,-4.24558 z M 620.716,344.57293 c 5.63162,-5.74223 7.284,-8.07879 7.284,-10.3 0,-1.58011 -0.39564,-3.30043 -0.8792,-3.82293 -1.28755,-1.39124 -3.12987,-7.60241 -3.72878,-12.57114 -0.86362,-7.16492 -3.07922,-8.10093 -8.23703,-3.47985 -4.59728,4.11888 -5.15499,6.55866 -5.15499,22.55133 0,18.26767 0.16257,18.38331 10.716,7.62259 z m 11.68451,-68.0411 c -6.81742,-2.87856 -10.03899,-14.57301 -4.93569,-17.91682 5.7716,-3.7817 8.42946,-0.59913 11.19699,13.4075 0.32835,1.66182 -0.12603,3.08474 -1.3317,4.17028 -1.58333,1.42556 -2.24806,1.47128 -4.9296,0.33904 z m 100.06672,-32.30466 c -0.56803,-0.39994 -1.01803,-3.42717 -1,-6.72717 l 0.0328,-6 7,-3.71839 c 3.99997,-2.12477 8.45112,-3.73193 10.38592,-3.75 l 3.38593,-0.0316 -0.64104,4.67692 c -0.82824,6.04265 -2.91942,8.41536 -6.74289,7.65066 -2.05568,-0.41113 -2.89828,-0.18133 -2.92388,0.79742 -0.0941,3.59876 -7.06672,8.8132 -9.49681,7.10217 z M 652.0091,195.51096 c -1.89065,-2.27809 -0.30057,-8.37333 3.06142,-11.73533 4.08726,-4.08726 6.47987,-3.3746 6.25488,1.86307 -0.27431,6.38563 -2.74957,11.3613 -5.65193,11.3613 -1.33572,0 -2.98469,-0.67007 -3.66437,-1.48904 z M 621,160.5187 c 0,-1.00645 1.0125,-3.22239 2.25,-4.92431 1.2375,-1.70191 3.11578,-4.79566 4.17395,-6.87499 2.16939,-4.2629 12.038,-13.32845 18.07605,-16.6051 2.2,-1.19387 5.35,-3.02774 7,-4.07526 C 657.59712,124.80306 669.09234,119 670.40532,119 c 0.68533,0 2.22449,-1.0415 3.42037,-2.31445 2.63956,-2.80969 2.89176,-9.42418 0.67431,-17.68555 -0.81194,-3.025 -1.4816,-8.495799 -1.48813,-12.157331 L 673,80.185339 l 5.25,-4.720427 c 4.86525,-4.374486 13.86752,-9.422454 16.93592,-9.496715 0.72275,-0.01749 2.18759,-0.692492 3.25521,-1.5 C 699.50875,63.660688 701.33524,63 702.5,63 c 1.16476,0 2.99125,-0.660688 4.05887,-1.468197 2.22435,-1.682415 3.40998,-1.838201 5.225,-0.686541 C 713.48326,61.923556 712.2426,65 710.10835,65 c -1.77289,0 -12.19448,3.478806 -15.59766,5.206619 -5.39679,2.739976 -12.79053,8.510107 -14.54755,11.353017 -2.3082,3.734756 -2.52504,9.061241 -0.55593,13.656437 2.65554,6.197107 4.85448,15.605137 4.22945,18.095467 -0.65612,2.61416 -5.52983,5.86957 -13.63666,9.10865 -2.475,0.98889 -6.4125,2.68046 -8.75,3.75905 l -4.25,1.96107 v 6.27486 c 0,4.80899 -0.42721,6.66148 -1.82874,7.92984 -2.55261,2.31008 -2.86979,2.16625 -5.17126,-2.34501 -1.50988,-2.95961 -2.65424,-4 -4.39974,-4 -3.11487,0 -9.56367,6.34053 -15.05231,14.79961 -2.39114,3.68521 -5.51762,7.79133 -6.94774,9.1247 -1.15155,1.07365 -1.80161,1.62746 -2.16377,1.71025 C 621.07427,161.71735 621,161.32912 621,160.5187 Z m 76.68743,-5.89085 c -0.2896,-0.75468 -0.84218,-3.47698 -1.22796,-6.04955 -1.02415,-6.82955 -5.11733,-9.77758 -8.65868,-6.23624 -0.73813,0.73814 -2.35195,1.88255 -3.58626,2.54313 -1.89188,1.0125 -2.34793,0.93074 -2.90493,-0.52077 -0.46976,-1.22417 0.44978,-2.68178 3.18145,-5.04312 3.52845,-3.05011 4.39013,-3.3213 10.55312,-3.3213 8.60911,0 9.39896,0.86395 8.43327,9.22436 -0.39869,3.4516 -1.10808,7.28814 -1.57642,8.52564 -0.94476,2.49638 -3.39649,3.00717 -4.21359,0.87785 z M 720.5,80 c -1.80189,-2.91552 6.04986,-6.500667 16.3285,-7.455672 7.25435,-0.674013 7.32518,-0.657447 7,1.637385 -0.29424,2.076512 -1.00639,2.382197 -6.8285,2.931096 -3.575,0.337045 -7.85,1.346772 -9.5,2.243839 -3.41705,1.857769 -6.09721,2.104096 -7,0.643352 z m -11.59068,-5.064054 c -1.0599,-0.661072 -1.14524,-1.319962 -0.34421,-2.657479 1.3943,-2.328126 9.20123,-6.18479 12.62587,-6.237247 C 722.67102,66.018549 724.16008,65.55 724.5,65 c 0.72504,-1.173145 7.5,-1.367909 7.5,-0.215608 0,1.176557 -5.06573,3.891848 -8.71679,4.672304 -1.76923,0.378194 -4.69423,1.689458 -6.5,2.913919 -4.47016,3.031147 -6.21541,3.599753 -7.87389,2.565331 z"
       id="path847" />
    <path
       style="fill:#00a6de;fill-opacity:1;stroke:none;stroke-width:0.869;stroke-dasharray:none"
       d="m 625.52428,697.51334 c -0.13489,-0.13488 -4.53933,-0.7848 -9.78764,-1.44426 -15.27618,-1.91947 -24.24703,-4.54823 -32.73979,-9.59387 -5.34024,-3.17269 -10.15319,-5.63394 -13.60497,-6.95731 -5.65032,-2.16627 -5.96809,-2.62884 -4.66391,-6.78912 1.15135,-3.67272 1.19682,-6.7651 0.18662,-12.69151 -0.74562,-4.37427 -0.73778,-4.65396 0.2397,-8.55129 0.55579,-2.21601 1.01053,-4.66137 1.01053,-5.43414 0,-2.6987 -2.06384,-8.06791 -7.7655,-20.20241 -7.82022,-16.64331 -7.52443,-15.59993 -5.96437,-21.03854 0.69609,-2.42669 1.26474,-4.99579 1.26367,-5.7091 -0.002,-1.47788 -1.56757,-3.49202 -9.26081,-11.9158 -2.85334,-3.1243 -5.54994,-6.32773 -5.99243,-7.11873 -0.63156,-1.12899 -0.79547,-2.62342 -0.7624,-6.95122 0.0386,-5.05331 0.20701,-6.04125 2.01956,-11.84732 3.335,-10.68293 4.55546,-18.94086 5.157,-34.89364 0.53946,-14.30644 -1.06375,-39.33928 -3.19307,-49.85702 -1.21726,-6.01268 -5.63669,-19.37893 -8.09061,-24.46953 -1.92658,-3.99663 -2.91334,-4.90191 -5.5229,-5.06689 -3.62061,-0.2289 -4.64702,0.0506 -6.31614,1.71968 -2.00131,2.00131 -1.9752,2.1329 1.53117,7.71789 4.61191,7.34592 8.99256,20.81794 6.76929,20.81794 -0.35879,0 -2.67786,-2.53413 -5.15349,-5.6314 -2.47563,-3.09728 -6.28929,-7.44 -8.47481,-9.6505 l -3.97367,-4.01908 -2.21958,0.30423 c -2.93634,0.40247 -7.11057,2.34855 -7.79979,3.63636 -0.74295,1.38822 0.72593,3.80121 5.51581,9.06103 2.00726,2.20419 5.66181,6.51874 8.12123,9.58789 2.45942,3.06915 6.09326,7.40379 8.0752,9.63253 l 3.60352,4.05226 -2.40769,2.6344 c -1.32423,1.44892 -3.66835,4.50926 -5.20914,6.80075 -4.61837,6.8685 -5.9493,7.34698 -12.7563,4.58607 -8.34311,-3.38396 -17.08887,-10.21508 -21.57582,-16.8524 -4.78186,-7.07356 -8.73212,-17.36193 -9.1477,-23.82496 -0.21246,-3.30412 -0.11232,-3.90626 0.95669,-5.75273 0.65669,-1.13429 1.44159,-2.82907 1.74423,-3.76619 0.5821,-1.8025 5.42785,-8.11355 8.52293,-11.10017 1.01338,-0.97787 4.20682,-3.5666 7.09652,-5.75274 6.93274,-5.24477 7.3665,-6.06605 7.85473,-14.87205 0.4777,-8.61614 1.11853,-9.38589 5.50036,-6.60702 3.54101,2.24564 5.94003,3.36215 7.2242,3.36215 1.94754,0 3.89048,-2.90772 5.57816,-8.34803 4.3497,-14.02148 7.49612,-21.67842 11.11846,-27.0573 2.88326,-4.28139 8.08918,-10.08985 13.07983,-14.5937 5.66628,-5.11358 20.12545,-14.88361 24.92851,-16.84414 1.84567,-0.75337 7.53789,-3.19948 12.64937,-5.43579 9.40907,-4.11654 17.71826,-7.29787 19.47006,-7.45449 0.87968,-0.0786 0.97038,0.2469 1.09926,3.94558 0.2387,6.85055 -1.6995,11.09384 -8.88408,19.44988 -2.17232,2.52651 -4.08023,5.11384 -4.2398,5.74961 -0.19557,0.77922 0.15421,1.9851 1.0733,3.70017 1.09351,2.04055 1.6343,2.57521 2.73169,2.70074 1.86391,0.2132 3.07993,-1.03315 6.60554,-6.77031 4.87779,-7.93753 17.95528,-20.58001 24.74646,-23.9233 2.76879,-1.36307 3.53666,-1.51066 8.94344,-1.71894 6.71817,-0.25881 10.12168,0.32902 12.00364,2.07316 0.70684,0.65508 1.22332,1.65972 1.22332,2.37957 0,2.18645 -2.33512,2.76153 -12.22455,3.01061 -10.03234,0.25268 -11.26577,0.60275 -11.26577,3.19747 0,1.19076 0.34082,1.89886 1.26313,2.62435 1.62907,1.28143 4.07952,1.2838 12.32365,0.0119 3.51836,-0.54279 7.95813,-0.91785 9.93101,-0.83894 l 3.56799,0.14272 5.58458,11.30807 c 5.17782,10.48441 5.71371,11.36935 7.35737,12.14932 3.34925,1.58932 3.93882,1.2048 14.91063,-9.72459 5.51077,-5.48947 13.47122,-12.97175 17.68989,-16.62731 4.21867,-3.65555 10.54713,-9.24575 14.06324,-12.42265 6.63864,-5.99821 9.79358,-8.41287 10.99205,-8.41287 0.38588,0 2.24307,0.96076 4.12709,2.13502 1.88403,1.17426 6.22792,3.4721 9.6531,5.10632 6.74042,3.21598 6.81266,3.26121 22.76671,14.25526 14.27418,9.83645 17.9751,12.73568 23.96972,18.77742 5.62614,5.67037 9.45723,10.76299 12.63357,16.79369 3.90601,7.41604 7.49447,18.4936 8.46146,26.12047 0.61047,4.81486 1.16448,5.39559 5.93827,6.22457 4.05576,0.70431 6.16899,1.72746 7.63771,3.69793 0.96247,1.29128 0.96306,1.3188 0.0501,2.33931 -1.44383,1.61393 -4.04398,3.09782 -6.91855,3.94835 -6.61946,1.95858 -21.23278,16.3975 -22.97253,22.69837 -0.93842,3.39867 1.43809,6.16893 5.23724,6.10499 1.1865,-0.02 3.93451,-0.63009 6.10669,-1.35583 4.96619,-1.65926 16.7623,-7.50736 22.36901,-11.0898 5.0867,-3.25017 7.5452,-4.16428 10.66553,-3.9656 2.52142,0.16055 2.4074,0.0324 4.82272,5.42147 0.47268,1.05467 1.55224,2.34903 2.399,2.87637 3.0359,1.89066 2.22981,2.74974 -6.696,7.13607 -3.67177,1.80439 -9.35202,5.3643 -16.29941,10.21511 -11.03277,7.70333 -13.49747,9.69256 -23.00918,18.57045 -8.82503,8.23697 -9.28165,8.3673 -13.15399,3.75459 -4.03523,-4.80676 -9.89851,-10.45948 -12.30557,-11.86366 -2.86299,-1.67016 -4.92707,-1.67104 -9.0568,-0.004 -4.72351,1.90688 -9.12816,5.14371 -10.42153,7.65844 -0.6084,1.18292 -2.0779,3.2866 -3.26557,4.67487 -2.21516,2.58931 -3.9003,5.69387 -3.91897,7.21999 -0.018,1.47066 2.15627,3.21413 4.00829,3.21413 2.12974,0 2.8877,-0.79193 5.01821,-5.24308 2.04013,-4.26233 5.36327,-7.87205 7.67222,-8.33384 2.15881,-0.43176 3.39411,0.301 8.90181,5.28042 5.24916,4.74568 9.20856,8.1182 11.03287,9.39751 1.02934,0.72185 1.22823,1.2359 1.22823,3.17445 0,3.2173 -1.8782,10.27766 -4.48715,16.86771 -1.21126,3.05956 -3.30016,9.53138 -4.64199,14.38183 -1.34183,4.85044 -3.30565,10.86839 -4.36405,13.37323 -2.50543,5.92944 -9.01119,18.51167 -11.30971,21.87315 -2.92354,4.27553 -3.05396,4.59535 -2.85404,6.99858 0.18568,2.23199 0.78436,3.34527 4.16952,7.75337 2.30764,3.00497 2.04765,3.72059 -3.20509,8.82188 l -4.64037,4.50659 1.57996,4.86552 c 0.86898,2.67603 2.2021,6.34427 2.96249,8.15163 2.35781,5.60423 2.28732,5.70999 -7.24657,10.87294 -7.48104,4.05126 -12.32621,7.25173 -17.7376,11.71657 -6.35289,5.24165 -24.90199,23.88253 -27.10478,27.23888 -2.36839,3.60867 -2.72519,6.70591 -1.18499,10.28621 0.58142,1.35155 0.92603,2.66948 0.7658,2.92874 -0.39177,0.63389 -5.59496,2.33197 -9.1497,2.98602 -1.582,0.29108 -6.11228,1.89689 -10.06728,3.56847 -3.95501,1.67157 -8.80888,3.57894 -10.78638,4.23859 -5.46794,1.82397 -20.28676,5.07912 -25.4079,5.58118 -4.84981,0.47546 -17.89193,0.63648 -18.30244,0.22597 z m 57.06628,-40.50855 c 6.79031,-3.62512 12.23615,-10.76813 9.95148,-13.0528 -1.8397,-1.83971 -9.98882,-1.38087 -25.69182,1.44657 -9.45466,1.70238 -10.25332,1.7706 -20.38683,1.74144 -15.0644,-0.0433 -32.25073,-1.47106 -40.3674,-3.35344 -4.83477,-1.12126 -8.97244,-1.07246 -10.58205,0.12479 -2.54656,1.89417 -1.70312,4.28004 2.09252,5.91922 6.10819,2.63787 17.63673,4.25474 33.03691,4.63338 16.20871,0.39852 30.01111,-0.76801 40.77024,-3.44575 4.94646,-1.23108 8.57791,-1.50625 9.78681,-0.74158 0.59661,0.37737 0.5612,0.59724 -0.23969,1.48827 -0.51685,0.57501 -2.0723,1.77201 -3.45655,2.65998 -2.33197,1.49592 -3.1039,2.79712 -2.19723,3.70378 0.8485,0.8485 4.70324,0.25372 7.28361,-1.12386 z m -49.11982,-24.43436 c 5.62225,-0.56592 8.13262,-1.59674 8.34475,-3.42655 0.17564,-1.51514 -0.14592,-1.62267 -7.16727,-2.39671 -3.09984,-0.34173 -8.29378,-0.43412 -13.83243,-0.24605 -13.20605,0.44842 -17.75493,-0.57501 -37.36144,-8.40574 -9.55684,-3.81694 -11.96574,-4.29225 -14.30309,-2.82214 -4.78893,3.01207 -2.33568,6.27809 8.03963,10.70314 8.29939,3.53967 16.73733,6.01744 24.68882,7.24978 2.34059,0.36274 26.44302,-0.13754 31.59103,-0.65573 z"
       id="path2863" />
    <path
       style="fill:#00a6de;fill-opacity:1;stroke:none;stroke-width:0.0520742;stroke-dasharray:none"
       d="m 798.39623,455.03247 c -0.27457,-0.0565 -0.32435,-0.10478 -0.32435,-0.31455 0,-0.797 2.18323,-3.17553 6.29205,-6.8549 4.23651,-3.79371 8.02688,-6.17538 10.7648,-6.76403 0.63659,-0.13686 1.50978,-0.13877 1.96911,-0.004 1.00536,0.29431 1.66339,1.21691 1.67356,2.34643 0.004,0.42458 -0.018,0.52595 -0.18725,0.8689 -0.77251,1.56557 -3.41646,3.25518 -11.13412,7.11525 -5.41996,2.71085 -8.14114,3.79502 -9.0538,3.60721 z"
       id="path3279" />
    <path
       style="fill:#00a6de;fill-opacity:1;stroke:none;stroke-width:0.104148;stroke-dasharray:none"
       d="m 808.16555,546.78798 c -1.41391,-0.11869 -2.7522,-0.48835 -3.89262,-1.07521 -1.2912,-0.66445 -2.72334,-2.06627 -3.3534,-3.28244 -0.89939,-1.736 -1.39509,-4.38983 -1.24161,-6.64713 0.085,-1.24993 0.51588,-5.59458 0.61304,-6.18121 0.0598,-0.36105 -0.008,-0.41956 -3.32473,-2.87637 -4.00839,-2.96898 -5.57065,-4.22815 -7.2361,-5.83227 -1.87453,-1.8055 -2.08062,-2.3975 -1.6639,-4.7797 0.50607,-2.89301 3.27814,-11.354 4.73521,-14.45297 1.24678,-2.65169 2.44585,-4.14572 6.66518,-8.30474 8.68217,-8.55807 16.56086,-14.81991 25.81089,-20.51404 3.79603,-2.33675 9.06331,-5.114 11.62531,-6.12961 4.4561,-1.76645 12.34302,-3.30256 19.4754,-3.79317 1.9936,-0.13712 7.98782,-0.3882 8.03212,-0.33643 0.0155,0.0181 0.22565,1.97448 0.46701,4.34748 0.44836,4.40834 0.69104,6.07379 1.13949,7.81989 0.77701,3.02544 2.06054,5.39022 4.06358,7.48678 1.13953,1.19273 2.41858,2.21116 4.93426,3.92888 3.60779,2.4634 6.08752,4.43481 6.94871,5.5243 0.71549,0.90516 0.8139,1.36089 0.56012,2.5938 -0.42022,2.04147 -2.12692,6.77152 -3.02601,8.38645 -0.34769,0.62452 -0.48621,0.76462 -0.86061,0.87051 -0.6998,0.19793 -3.80617,0.571 -6.49857,0.78048 -3.14993,0.24508 -5.70322,0.64177 -8.43118,1.30991 -4.39013,1.07524 -7.17582,2.11289 -11.76331,4.38175 -1.71384,0.84763 -4.03291,1.95338 -5.15349,2.45724 -1.12059,0.50386 -2.63776,1.23319 -3.3715,1.62072 -11.76545,6.21412 -26.68513,18.76767 -29.84044,25.108 -0.51597,1.0368 -0.54132,1.13863 -0.65375,2.62522 -0.12729,1.68329 -0.39376,3.16995 -0.66071,3.68616 -0.51772,1.00117 -1.97624,1.45588 -4.09839,1.27772 z"
       id="path3281" />
    <path
       style="fill:#00a6de;fill-opacity:1;stroke:none;stroke-width:0.147288;stroke-dasharray:none"
       d="m 495.84746,534.72077 c -1.8823,-0.2182 -3.28948,-0.51048 -4.91526,-1.02093 -2.33158,-0.73205 -4.77785,-1.26075 -8.47457,-1.83159 -7.30642,-1.12824 -13.3006,-2.62768 -17.09595,-4.27654 -2.57273,-1.11771 -3.38551,-1.40316 -4.71151,-1.6547 -0.72806,-0.13811 -1.72515,-0.45298 -2.21577,-0.69973 -5.41208,-2.72186 -16.19072,-13.77288 -21.18791,-21.72332 -2.82794,-4.49921 -4.8769,-10.9537 -4.8711,-15.3446 0.004,-3.22247 0.60047,-4.91199 2.73989,-7.76405 3.52809,-4.70331 8.92164,-10.18275 12.00337,-12.19452 3.64092,-2.37682 6.49035,-4.90994 7.93396,-7.05324 1.44938,-2.15187 1.77708,-3.51514 2.31534,-9.63213 0.44986,-5.11251 1.1195,-8.10802 2.24482,-10.0419 0.58446,-1.0044 1.77973,-2.00425 2.81596,-2.35555 1.13175,-0.3837 3.53536,-0.37815 5.0289,0.0116 2.59664,0.67762 5.72262,2.67168 6.27363,4.00193 0.30167,0.72829 0.0658,1.43335 -1.45914,4.36163 -1.93671,3.71899 -3.26226,7.20103 -4.78961,12.58162 -1.3546,4.77205 -1.74751,7.35738 -1.39244,9.16218 0.55713,2.83184 2.80712,8.49415 5.6872,14.31239 4.56498,9.222 8.68727,14.78174 14.99999,20.23049 5.80119,5.00723 9.44126,8.70601 10.0857,10.24838 0.68392,1.63684 5.80128,3.64945 10.18848,4.00704 2.68674,0.21898 3.96551,0.83965 3.96551,1.92469 0,0.38922 -0.20744,0.70105 -0.91056,1.36876 -1.08656,1.03185 -1.75793,2.13083 -3.34424,5.47427 -2.44924,5.16226 -3.51314,6.97222 -4.35207,7.40396 -0.94257,0.48508 -4.42092,0.75214 -6.56262,0.50386 z"
       id="path3283" />
    <path
       style="fill:#f9c393;fill-opacity:1;stroke:none;stroke-width:0.294576;stroke-dasharray:none"
       d="m 540.13561,696.83624 c -2.2013,-1.59909 -7.79374,-7.7203 -10.54459,-11.5416 -8.51056,-11.8223 -10.92229,-14.68131 -12.7772,-15.14686 -0.46935,-0.1178 -2.3105,-0.16111 -4.09144,-0.0962 l -3.23806,0.11795 -1.75631,1.80347 c -2.12781,2.18494 -3.71639,3.14749 -7.43327,4.50398 -5.55177,2.02615 -8.94824,1.59622 -13.2736,-1.6802 -3.13823,-2.37717 -5.44939,-5.41743 -9.61252,-12.64493 -2.07781,-3.60723 -6.10481,-10.52469 -8.94889,-15.37215 -6.11957,-10.43019 -9.01573,-15.92495 -13.22161,-25.08474 -8.91011,-19.40496 -12.99633,-31.61022 -17.25031,-51.52543 -2.85775,-13.37875 -3.95715,-21.94872 -3.65133,-28.4627 0.2306,-4.91161 1.09047,-8.48327 2.9566,-12.28086 2.23281,-4.54375 3.57531,-5.07616 7.08308,-2.80897 4.63634,2.99661 12.93408,6.4992 19.603,8.2747 9.37357,2.49556 16.76827,5.24597 18.45883,6.86564 1.62223,1.55419 1.73295,2.33688 2.65253,18.75118 1.7327,30.92804 3.6621,41.46246 10.53787,57.53611 2.02396,4.73146 3.01568,7.89889 3.01568,9.63174 0,1.57007 -0.94036,3.55418 -2.5143,5.30505 -2.93979,3.27025 -3.68952,5.58632 -2.15604,6.66042 0.41437,0.29023 1.01923,0.52769 1.34414,0.52769 0.87154,0 2.79535,-1.82188 5.04651,-4.77912 1.36679,-1.79549 2.70938,-3.09506 4.28736,-4.14996 1.26358,-0.84472 3.73176,-2.80413 5.48484,-4.35424 5.7482,-5.08265 8.62871,-7.42943 11.99491,-9.77237 6.59107,-4.58751 12.08296,-6.57189 15.96034,-5.76695 3.83625,0.7964 5.25948,2.55802 12.33537,15.26819 6.57417,11.80894 7.87789,14.74655 7.87789,17.75091 0,1.26552 -0.16654,1.64612 -1.04296,2.38358 -1.21181,1.01967 -1.38074,1.04402 -2.65861,0.38321 -1.61299,-0.83411 -3.89011,-3.68099 -8.92089,-11.15298 -7.55695,-11.22399 -10.72848,-14.90326 -14.20736,-16.48187 -1.95793,-0.88846 -2.86659,-0.85374 -4.96008,0.18948 -2.24507,1.11877 -3.46434,2.54755 -3.46434,4.05964 0,1.75242 1.11536,2.33819 3.90745,2.05214 4.35879,-0.44657 6.45792,1.53444 15.94561,15.04831 5.2166,7.43032 11.83319,17.69898 13.2663,20.58872 1.96364,3.95951 1.79683,7.53239 -0.37715,8.07802 -2.34887,0.58953 -7.57228,-4.73807 -11.49233,-11.72154 -0.88835,-1.58257 -2.67531,-4.32656 -3.97102,-6.09774 -1.29571,-1.77119 -4.09874,-5.81356 -6.22894,-8.98305 -5.27637,-7.85061 -6.21258,-8.64407 -10.19913,-8.64407 -3.50947,0 -6.2593,1.87305 -6.8128,4.64054 -0.28322,1.41609 0.39768,1.59271 2.99769,0.7776 3.57447,-1.1206 4.14573,-0.9922 6.43452,1.44626 7.17987,7.64937 15.49309,17.89833 17.11618,21.1017 0.66127,1.30508 2.15333,4.05085 3.3157,6.10169 2.85109,5.03038 4.74023,8.84057 5.43221,10.9562 0.53283,1.62903 0.5342,1.8167 0.0189,2.60309 -0.37556,0.57319 -0.86547,0.84749 -1.51357,0.84749 -2.07307,0 -4.88398,-2.88507 -12.3633,-12.68947 -5.91378,-7.7522 -10.23734,-13.1707 -13.06373,-16.37211 -2.69087,-3.04791 -3.98256,-3.71142 -6.4007,-3.28783 -2.90689,0.50919 -5.48,2.9105 -5.03189,4.69591 0.10639,0.42388 1.47717,1.71167 3.16318,2.97167 6.62633,4.95201 18.01852,18.29275 23.81347,27.8866 2.14181,3.54586 4.41619,8.34076 4.41619,9.31028 0,0.48874 -0.5116,1.04467 -1.59179,1.72971 -0.87548,0.55521 -1.76785,1.00948 -1.98303,1.00948 -0.21519,0 -0.98617,-0.43216 -1.7133,-0.96037 z"
       id="path5379" />
    <path
       style="fill:#f9c393;fill-opacity:1;stroke:none;stroke-width:0.294576;stroke-dasharray:none"
       d="m 782.87808,663.81356 c -1.13649,-1.16525 -2.86294,-3.29957 -3.83656,-4.74292 -1.80124,-2.67028 -5.22957,-8.95615 -5.64084,-10.3425 -0.18849,-0.63541 0.48599,-1.57308 4.02329,-5.59322 5.47535,-6.22274 9.27995,-11.12286 13.22509,-17.03322 6.54394,-9.80372 9.55228,-15.81092 10.52945,-21.02574 0.56704,-3.02611 1.96421,-6.82474 3.9685,-10.78955 0.57916,-1.14566 1.4752,-3.37963 1.99122,-4.96437 0.51601,-1.58475 2.03329,-5.23966 3.37174,-8.12203 3.19378,-6.87788 4.6656,-10.60433 7.50302,-18.99662 3.83822,-11.35237 5.78411,-19.19795 6.20923,-25.03473 0.24682,-3.38883 0.87054,-4.75816 3.11857,-6.84662 10.03427,-9.32199 28.98584,-18.15571 40.46335,-18.86081 4.60353,-0.28281 6.37461,0.28414 8.91211,2.85294 3.31443,3.35529 5.38899,6.9178 6.90443,11.85648 0.82306,2.6823 0.91615,3.50979 0.92651,8.23613 0.0104,4.74306 -0.0701,5.48509 -0.82776,7.62712 -2.00505,5.66887 -10.04436,17.20248 -23.03755,33.05085 -7.33579,8.94778 -11.12705,14.45368 -15.75566,22.88135 -6.24311,11.36731 -10.03102,17.24288 -17.48307,27.11865 -2.673,3.54237 -6.73501,9.29408 -9.02668,12.78158 -4.49651,6.84285 -6.31841,8.91741 -11.29782,12.86454 -8.11684,6.43413 -20.70082,15.20133 -21.81919,15.20133 -0.19527,0 -1.28489,-0.95339 -2.42138,-2.11864 z m 86.64806,-123.40123 c 2.00943,-1.35049 2.24253,-4.64793 0.37965,-5.37048 -1.19564,-0.46375 -3.88264,-0.14928 -5.15711,0.60357 -2.04916,1.21047 -1.84692,3.86567 0.37791,4.96171 1.58572,0.78119 3.04338,0.71665 4.39955,-0.1948 z"
       id="path5381" />
    <path
       style="fill:#f9c393;fill-opacity:1;stroke:none;stroke-width:0.294576;stroke-dasharray:none"
       d="m 709.67819,672.86785 c -1.65176,-1.78228 -1.2732,-3.54995 1.15332,-5.38531 1.68829,-1.27699 4.20634,-4.14038 6.58007,-7.48254 2.82234,-3.97379 8.1698,-9.61447 11.55562,-12.18925 1.3138,-0.99909 3.85706,-2.65929 5.65168,-3.68932 1.79462,-1.03003 5.15056,-3.1204 7.45763,-4.64527 6.37349,-4.21259 10.88638,-6.30107 15.43103,-7.14119 1.52766,-0.28241 2.03555,-0.23455 3.25307,0.30649 3.82581,1.70012 5.88864,5.24778 4.56844,7.85684 -0.57297,1.13234 -2.50198,2.38306 -3.67544,2.38306 -1.83827,0 -8.45395,2.97541 -14.42337,6.48694 -4.24634,2.49792 -7.80108,4.91033 -18.45691,12.52571 -11.84759,8.46709 -16.8758,11.8348 -17.67015,11.8348 -0.34489,0 -0.98614,-0.38743 -1.42499,-0.86096 z"
       id="path5383" />
    <path
       style="fill:#f9c393;fill-opacity:1;stroke:none;stroke-width:0.294576;stroke-dasharray:none"
       d="m 763.15505,706.78556 c -2.55872,-1.28008 -6.88386,-5.05206 -6.88386,-6.00345 0,-0.83786 2.33846,-2.58099 7.23998,-5.39681 6.27265,-3.6035 8.07846,-5.31177 7.26125,-6.86905 -0.7901,-1.50562 -6.28914,0.4957 -12.12835,4.41398 -1.39831,0.93831 -4.90678,3.29674 -7.79661,5.24097 -2.88983,1.94423 -6.55085,4.16809 -8.13559,4.9419 -6.17516,3.01526 -9.48106,4.51402 -9.95682,4.51402 -0.59197,0 -1.90812,-2.01695 -1.90632,-2.92137 0.003,-1.63487 3.39049,-5.44399 8.44692,-9.49898 6.07495,-4.87177 18.6515,-12.99362 23.22806,-15.00052 3.7032,-1.62391 4.91272,-3.35213 2.84944,-4.07139 -3.99306,-1.39199 -10.09719,1.7141 -29.33276,14.92601 -7.67463,5.27131 -10.62065,6.98279 -11.29853,6.56384 -0.52759,-0.32607 -0.37945,-1.90096 0.3247,-3.45193 1.31553,-2.89761 4.63619,-5.68046 19.06989,-15.98131 6.42615,-4.58614 8.81432,-6.01795 16.23054,-9.73091 3.13768,-1.5709 5.86413,-3.15374 6.05877,-3.51744 0.51583,-0.96384 0.43274,-2.59129 -0.15731,-3.08098 -1.89587,-1.57344 -11.2244,3.06101 -24.91252,12.37661 -3.07627,2.09359 -6.21914,4.12361 -6.98415,4.51116 -0.76501,0.38755 -3.8644,2.48096 -6.88754,4.65201 -6.15628,4.42112 -10.52099,6.92292 -12.09272,6.9314 -2.06192,0.0111 -2.74892,-1.93973 -1.52673,-4.33542 3.09945,-6.07542 25.61654,-25.39979 40.3725,-34.64804 3.45798,-2.16728 7.44911,-4.06172 8.55706,-4.06172 1.54113,0 2.6182,1.39297 6.02849,7.79661 2.12439,3.98904 3.51111,6.21886 7.87208,12.65807 1.13346,1.67363 1.16203,2.60605 0.23069,7.53078 -0.87578,4.63096 -1.20209,11.39079 -0.70366,14.57714 0.20589,1.31621 0.75882,3.57092 1.22874,5.01047 1.0326,3.16329 1.06191,4.06474 0.17275,5.31345 -1.35435,1.90201 -8.69377,6.79837 -11.38119,7.59275 -0.45714,0.13513 -1.54794,-0.21179 -3.0872,-0.98185 z"
       id="path5385" />
    <path
       style="fill:#ffffff;fill-opacity:1;stroke:none;stroke-width:0.147288;stroke-dasharray:none"
       d="m 666.75894,372.57569 c -0.77881,-0.52483 -1.73057,-1.81389 -2.52744,-3.42315 -0.65223,-1.31715 -0.96229,-2.38323 -1.35562,-4.66101 -0.10463,-0.60594 -0.56963,-2.09322 -1.03334,-3.30509 -3.98182,-10.40612 -5.20961,-15.70322 -5.00892,-21.61017 0.0976,-2.87289 0.32973,-4.00297 1.16012,-5.64798 1.1746,-2.32686 5.05472,-5.28673 16.80051,-12.81593 3.52243,-2.25793 7.0309,-4.4354 7.79661,-4.83884 0.76571,-0.40344 4.13796,-1.83884 7.49389,-3.18978 6.52418,-2.62632 10.64985,-4.37883 12.50652,-5.31255 1.59812,-0.80369 3.89586,-1.54218 5.20534,-1.67298 2.38941,-0.23868 5.62416,-1.40188 9.52489,-3.42511 2.47031,-1.2813 3.69842,-2.26416 4.10791,-3.28757 0.15587,-0.38957 0.43434,-1.77991 0.61881,-3.08965 0.40945,-2.90711 0.44996,-3.08468 0.88469,-3.87795 0.47143,-0.86025 1.42444,-1.22433 2.89567,-1.10624 3.35345,0.26919 5.78527,3.8068 4.76227,6.92778 -0.4408,1.3448 -1.2936,2.97013 -2.21278,4.21728 -4.23802,5.75013 -5.62797,9.32606 -4.64491,11.95003 1.05644,2.81981 1.212,3.39518 1.21167,4.48161 -8.5e-4,2.78627 -1.66883,5.03858 -9.3701,12.65264 -5.01413,4.95735 -6.15141,6.03624 -11.33888,10.75673 -5.69971,5.18662 -9.00138,8.04298 -17.14792,14.83513 -4.16519,3.47271 -9.085,7.63593 -10.93289,9.25159 -4.58453,4.00835 -6.8464,5.74195 -8.26506,6.3347 -0.52188,0.21806 -0.61139,0.2067 -1.13104,-0.14349 z"
       id="path7538" />
    <path
       style="fill:#ffffff;fill-opacity:1;stroke:none;stroke-width:0.147288;stroke-dasharray:none"
       d="m 611.56327,351.67219 c -0.33916,-0.14621 -0.83476,-1.24724 -1.0603,-2.35553 -0.28435,-1.39733 -0.4417,-10.55098 -0.30873,-17.96073 0.15442,-8.60551 0.58744,-11.18796 2.31994,-13.83568 1.4185,-2.16785 5.12655,-5.28786 6.82946,-5.7464 0.95586,-0.25739 1.56011,-0.0758 2.23549,0.67173 0.89476,0.9904 1.22465,2.16146 1.98483,7.04595 0.64035,4.11454 2.00356,8.62725 3.21081,10.62889 0.81154,1.34556 1.06319,2.2412 1.0875,3.87054 0.0172,1.15239 -0.0427,1.40421 -0.60512,2.54237 -0.34332,0.6948 -1.25045,2.02599 -2.01586,2.9582 -1.85213,2.25574 -10.33374,10.72807 -11.51247,11.49987 -0.9211,0.60311 -1.74496,0.86211 -2.16555,0.68079 z"
       id="path7540" />
    <path
       style="fill:#b05736;fill-opacity:1;stroke:none;stroke-width:0.589153;stroke-dasharray:none"
       d="m 684.83278,1080.3589 c -6.76625,-0.776 -13.60726,-4.1766 -18.22539,-9.0596 -2.2095,-2.3362 -3.61782,-4.4958 -3.89487,-5.9726 -0.29818,-1.5895 0.44793,-6.1259 2.38445,-14.498 3.32479,-14.3737 3.46667,-19.4612 0.64871,-23.2602 -2.40188,-3.2381 -2.27912,-8.1584 0.31643,-12.6826 3.79802,-6.6202 4.54139,-8.5031 4.11803,-10.4306 -0.45475,-2.0705 -3.071,-4.75901 -7.96482,-8.18478 -1.76463,-1.23528 -3.36608,-2.74272 -3.55878,-3.34987 -0.1927,-0.60715 0.11089,-2.77115 0.67466,-4.80889 1.80346,-6.51868 1.87539,-7.92212 0.78797,-15.37484 -0.58689,-4.02225 -1.25546,-10.66912 -1.48571,-14.77082 -0.55677,-9.9184 -2.09231,-20.64595 -3.76257,-26.28603 -0.74779,-2.52512 -1.971,-8.01664 -2.71824,-12.20339 -0.74724,-4.18675 -2.23054,-10.67375 -3.29622,-14.41556 -1.06568,-3.74181 -2.14945,-8.92825 -2.40837,-11.52542 -0.25893,-2.59718 -0.88233,-6.40011 -1.38534,-8.45095 -0.50301,-2.05085 -1.84452,-9.0678 -2.98114,-15.59322 -1.13661,-6.52543 -2.8512,-15.98305 -3.81019,-21.01695 -2.00136,-10.50549 -7.49324,-47.38534 -8.48045,-56.94916 -0.36565,-3.54237 -1.19278,-11.01694 -1.83805,-16.61016 -0.89627,-7.76887 -1.17323,-15.77097 -1.17323,-33.89831 0,-31.88473 0.43932,-33.72405 8.24934,-34.53775 12.87525,-1.34144 20.31497,-3.02157 28.71124,-6.48391 2.64172,-1.08936 5.93172,-2.18832 7.3111,-2.44213 1.37939,-0.25381 3.23557,-1.02744 4.12484,-1.71918 0.88927,-0.69174 1.95706,-1.25959 2.37288,-1.26188 0.41581,-0.002 1.66424,-0.47775 2.77428,-1.05656 3.29414,-1.71768 16.65144,-5.18152 18.34342,-4.75687 1.01953,0.25589 1.71252,1.06787 1.99014,2.33185 0.49354,2.2471 3.27923,5.12756 5.92556,6.12717 1.09126,0.4122 2.40941,1.81642 3.24785,3.45988 1.84134,3.60933 10.25922,12.44803 13.17158,13.83003 1.41526,0.67158 3.06221,0.92365 4.3509,0.66591 1.84265,-0.36853 2.12564,-0.20751 2.54051,1.44546 0.25678,1.02311 0.27861,4.51259 0.0485,7.75441 -0.53851,7.58663 0.37816,13.37339 2.44604,15.44127 0.89819,0.89819 3.72087,2.16593 6.62267,2.97443 6.77762,1.88837 7.2061,2.35515 6.19255,6.74607 -0.44185,1.91418 -1.41193,4.254 -2.15574,5.19961 -2.05879,2.61732 -1.72545,5.18738 1.0748,8.28694 2.84282,3.14666 2.85528,3.069 -1.74436,10.87505 -4.14967,7.04241 -4.38306,9.34996 -1.19131,11.77867 1.21186,0.92215 3.11864,1.87667 4.23729,2.12115 5.81543,1.27097 6.66237,2.73104 8.54049,14.72321 2.41001,15.38843 2.60047,32.58256 0.92959,83.92109 -0.72023,22.12963 1.06906,61.23134 2.96835,64.86816 0.35426,0.67834 1.45856,3.42936 2.45401,6.11337 0.99545,2.68402 2.74691,6.03995 3.89212,7.45763 2.78881,3.45231 5.89237,10.3538 6.42711,14.29217 0.23902,1.76038 1.43725,5.03119 2.66273,7.26848 1.22549,2.23729 2.6936,5.74576 3.26248,7.79661 0.56888,2.05085 2.58142,8.61021 4.47232,14.57631 1.8909,5.9661 3.74187,13.2881 4.11326,16.2711 0.37139,2.9831 1.1674,8.824 1.76891,12.9798 l 1.09367,7.556 -1.73275,2.9525 c -2.22265,3.7872 -6.57404,8.124 -11.61663,11.5776 -10.34246,7.0835 -30.6531,14.3281 -47.99195,17.1182 -3.59952,0.5792 -7.86883,1.526 -9.48737,2.1039 -3.50444,1.2514 -24.46346,1.8904 -32.3473,0.9862 z m 3.04452,-280.38583 c 3.31155,-0.57414 9.2244,-2.13398 13.13965,-3.4663 11.52871,-3.92311 13.9809,-5.59568 13.10646,-8.93953 -0.54642,-2.08951 -4.3922,-1.94055 -13.15837,0.50966 -3.88671,1.08636 -8.93362,2.33854 -11.21537,2.78263 -4.76421,0.92723 -14.45202,0.58502 -19.93922,-0.70434 -4.53378,-1.06532 -7.35213,-0.0827 -8.41271,2.93301 -2.20887,6.28089 10.66155,9.62729 26.47956,6.88487 z m -30.91036,-14.58529 c 3.6021,-0.44762 10.17028,-2.18945 17.60933,-4.66983 6.52543,-2.17576 13.11179,-4.29267 14.63637,-4.70426 1.52457,-0.41158 4.04152,-1.668 5.59322,-2.79204 2.18618,-1.58366 2.82126,-2.48427 2.82126,-4.00082 0,-1.15922 -0.43721,-2.12489 -1.0724,-2.36863 -1.67494,-0.64273 -5.42833,-0.48436 -7.52753,0.31762 -1.0497,0.40103 -3.58651,1.03745 -5.63736,1.41427 -2.05085,0.37683 -8.79939,2.32603 -14.99676,4.33156 -7.1238,2.30533 -13.60673,3.93891 -17.62712,4.44172 -4.80087,0.60042 -6.6499,1.12312 -7.54561,2.13306 -1.7864,2.01424 -1.44923,3.7591 1.01695,5.26276 2.51356,1.53255 4.6476,1.63893 12.72965,0.63459 z"
       id="path7956" />
    <path
       style="fill:#b05736;fill-opacity:1;stroke:none;stroke-width:0.589153;stroke-dasharray:none"
       d="m 506.77966,1081.7023 c -16.83717,-1.5991 -32.48413,-7.3849 -44.55596,-16.4755 -10.61024,-7.9899 -11.37701,-9.9162 -9.37076,-23.5412 0.79539,-5.4017 1.90165,-11.8042 2.45836,-14.228 2.08912,-9.0952 6.58116,-24.1439 7.81527,-26.1817 0.70412,-1.1626 1.28021,-2.70602 1.28021,-3.4297 0,-1.78213 3.74393,-7.87217 10.12475,-16.46938 8.72268,-11.7525 15.8659,-25.70906 16.66648,-32.56326 0.23955,-2.05085 1.77255,-8.76271 3.40669,-14.91525 1.63413,-6.15255 3.60937,-14.84746 4.38943,-19.32204 0.78005,-4.47457 2.13438,-10.88135 3.00962,-14.23729 2.07824,-7.96857 2.21557,-8.86755 3.3669,-22.04131 0.53806,-6.15662 1.59509,-14.24137 2.34895,-17.9661 1.66675,-8.23529 2.60201,-17.59692 3.14874,-31.51801 0.52655,-13.4074 1.43596,-20.58832 3.08057,-24.32511 0.71873,-1.63305 3.30719,-5.08972 5.75215,-7.6815 6.50087,-6.89127 6.52162,-6.9807 3.13244,-13.50028 -1.55842,-2.99786 -2.8335,-6.03859 -2.8335,-6.75719 0,-0.7186 1.93953,-3.21079 4.31006,-5.53818 2.37053,-2.3274 4.92571,-5.45198 5.67818,-6.9435 l 1.36812,-2.71187 -2.24058,-5.76271 c -1.23231,-3.16949 -2.4354,-7.28813 -2.67352,-9.15254 -0.23813,-1.86441 -0.90542,-4.87242 -1.48288,-6.68447 -0.74621,-2.34164 -0.92002,-4.49881 -0.60088,-7.45763 0.72984,-6.76639 2.41326,-16.05001 3.76685,-20.77316 0.6946,-2.42372 1.43207,-5.19619 1.6388,-6.16102 0.20673,-0.96484 0.99927,-2.54677 1.7612,-3.5154 l 1.38532,-1.76115 3.783,1.98997 c 6.33466,3.33223 12.44377,2.25581 15.6402,-2.75578 2.59717,-4.07203 5.87166,-8.05762 7.77788,-9.46695 l 1.83068,-1.35348 8.6898,4.34823 c 10.9266,5.46749 25.00225,9.87778 37.84834,11.85893 5.21704,0.80458 9.84704,1.58249 10.28889,1.72868 0.59565,0.19709 0.62345,0.91738 0.10752,2.78591 -0.44311,1.60481 -0.75053,22.36381 -0.84644,57.15684 -0.16675,60.4864 -0.0409,58.47475 -4.81681,77.00963 -1.34513,5.22034 -2.71965,12.38983 -3.0545,15.93221 -0.73811,7.80859 -0.4816,6.87386 -6.22677,22.69027 -6.08306,16.74665 -8.8215,27.04258 -8.93159,33.58091 -0.0471,2.79661 0.18597,11.34699 0.51791,19.00085 l 0.60352,13.9161 -3.17735,3.02821 c -1.74755,1.66551 -3.91045,3.47302 -4.80645,4.01669 -1.45108,0.88046 -1.76723,0.86345 -2.89333,-0.15564 -1.8836,-1.70465 -6.76673,-10.53927 -8.3549,-15.11582 -2.35014,-6.77231 -6.23971,-8.31755 -10.04038,-3.98883 -2.46464,2.80708 -2.56548,4.11058 -0.76617,9.90499 2.52958,8.1462 6.78332,14.41493 15.56752,22.94188 4.42368,4.29413 8.52277,8.76732 9.10908,9.94043 1.04638,2.09361 1.00285,2.26227 -2.36228,9.15254 -1.88556,3.86079 -5.08039,9.7919 -7.09961,13.18028 -2.01922,3.3883 -3.67131,6.5012 -3.67131,6.9176 0,0.4163 2.29672,2.2203 5.10382,4.0088 4.97665,3.1709 5.09596,3.311 4.78818,5.6248 -0.17361,1.3051 -0.7018,12.5444 -1.17376,24.9763 l -0.85811,22.6033 -3.39454,3.052 c -4.11595,3.7006 -9.98499,6.76 -14.79561,7.7126 -1.96256,0.3886 -6.31405,1.4462 -9.66998,2.3503 -3.35593,0.9041 -8.69492,1.958 -11.86441,2.342 -8.02762,0.9727 -31.64509,1.3966 -38.98305,0.6997 z M 611.01695,799.99001 c 1.5394,-0.61509 1.51651,-2.532 -0.0471,-3.94707 -1.69636,-1.53518 -5.9851,-2.23096 -19.44439,-3.15453 -13.94661,-0.95699 -16.01736,-1.37673 -23.38983,-4.74109 -7.24713,-3.30716 -9.90223,-3.8147 -13.05801,-2.49613 -3.22594,1.34789 -4.81849,3.77411 -3.95979,6.03268 1.95916,5.15297 10.137,7.31879 32.6378,8.6438 10.5255,0.61981 25.32381,0.43652 27.26135,-0.33766 z m -2.08728,-16.36627 c 1.67805,-1.51861 1.5607,-3.76858 -0.2856,-5.47614 -0.83898,-0.77594 -5.0339,-3.31687 -9.32204,-5.64653 -4.28813,-2.32965 -11.30595,-6.58485 -15.59515,-9.45598 -4.28921,-2.87113 -8.46487,-5.43172 -9.27925,-5.69019 -0.81437,-0.25848 -4.38421,-2.4249 -7.93297,-4.81428 l -6.45229,-4.34433 -3.25152,2.17304 c -2.62614,1.75509 -3.29265,2.60026 -3.4653,4.39425 -0.2089,2.17054 2.02695,6.93134 3.25522,6.93134 0.3069,0 3.71421,2.07283 7.57183,4.6063 10.92775,7.17674 22.62297,13.17234 33.45452,17.1506 4.34364,1.59535 9.64064,1.67592 11.30255,0.17192 z"
       id="path7958" />
    <path
       style="fill:#a06e21;fill-opacity:1;stroke:none;stroke-width:0.147288;stroke-dasharray:none"
       d="m 448.22034,1210.0805 c -8.98669,-0.411 -11.84283,-0.7978 -14.0678,-1.905 -0.37288,-0.1856 -1.73157,-1.0217 -3.01932,-1.8581 -5.83209,-3.7879 -12.78027,-6.0046 -20.03152,-6.3906 -3.88616,-0.2069 -4.48991,-0.5422 -3.13717,-1.7427 1.03404,-0.9176 5.12909,-2.885 7.4592,-3.5835 6.77987,-2.0327 15.61082,-2.0955 20.52656,-0.146 5.08681,2.0173 11.49113,4.6863 12.6816,5.2849 0.78568,0.3951 1.71803,1.0108 2.07189,1.3682 0.7556,0.7632 1.54929,0.9447 3.43038,0.7845 2.54454,-0.2166 3.64859,-1.0117 4.36676,-3.1445 0.53447,-1.5873 0.50499,-2.6259 -0.10419,-3.6708 -0.96432,-1.6541 -3.75265,-4.1084 -8.54923,-7.525 -1.49533,-1.0652 -2.72885,-2.5906 -2.72885,-3.3746 0,-0.5134 1.49971,-2.0427 3.16584,-3.2284 0.82234,-0.5851 2.86872,-1.8895 4.5475,-2.8986 2.96857,-1.7843 8.2506,-5.243 12.03242,-7.8789 3.36949,-2.3485 5.92627,-3.3541 8.55932,-3.3663 2.54319,-0.012 4.00403,0.5761 8.82469,3.5514 5.94671,3.6702 9.72471,5.5922 13.29395,6.7631 2.33855,0.7671 3.903,0.9872 6.38396,0.898 1.86155,-0.067 2.27633,-0.1416 3.78554,-0.6812 0.9322,-0.3333 2.19067,-0.8186 2.79661,-1.0784 1.51248,-0.6485 2.96691,-0.7459 3.60642,-0.2414 0.83751,0.6606 1.43198,2.3594 1.72018,4.9156 0.15238,1.3515 0.60272,10.2289 0.52294,10.3087 -0.0371,0.037 -2.72711,0.6589 -5.97783,1.3818 -3.25072,0.723 -6.66822,1.5507 -7.59445,1.8395 -4.12526,1.2861 -6.86183,3.1126 -12.85242,8.5783 -2.85759,2.6072 -4.75066,4.1291 -6.59394,5.3011 -1.56937,0.9978 -2.50936,1.2223 -6.64446,1.5869 -2.68434,0.2366 -24.12202,0.3511 -28.47458,0.152 z"
       id="path8721" />
    <path
       style="fill:#a06e21;fill-opacity:1;stroke:none;stroke-width:0.147288;stroke-dasharray:none"
       d="m 509.62036,1209.3122 c -1.16522,-0.2824 -2.12427,-0.75 -2.58646,-1.2612 -0.44035,-0.487 -0.42197,-1.4211 0.0591,-3.005 0.44067,-1.4508 1.03979,-2.1231 2.1385,-2.3997 0.56585,-0.1425 5.65936,-0.6703 6.70718,-0.695 0.13672,0 -0.30168,4.8715 -0.51993,5.7812 -0.20773,0.8659 -0.64791,1.4392 -1.29355,1.6847 -0.61191,0.2326 -3.37788,0.1682 -4.50487,-0.105 z"
       id="path8723" />
    <path
       style="fill:#a06e21;fill-opacity:1;stroke:none;stroke-width:0.147288;stroke-dasharray:none"
       d="m 396.35593,1212.6275 c -1.49152,-0.065 -2.90254,-0.1778 -3.13559,-0.2513 -0.80786,-0.255 -0.89034,-0.8266 -0.23216,-1.6088 1.30885,-1.5555 6.20542,-2.7652 11.24911,-2.7791 2.14408,-0.01 2.68105,0.052 4.20891,0.4534 3.0375,0.7983 6.13007,2.2747 6.13007,2.9266 0,0.1376 -0.17296,0.316 -0.38436,0.3964 -1.64157,0.6241 -11.89646,1.1202 -17.83598,0.8628 z"
       id="path8725" />
    <path
       style="fill:#a06e21;fill-opacity:1;stroke:none;stroke-width:0.208297;stroke-dasharray:none"
       d="m 770.62654,1210.5767 c -10.05198,-0.1829 -15.92313,-0.5414 -17.13107,-1.0461 -0.83686,-0.3496 -2.85272,-1.9659 -5.99971,-4.8104 -8.53164,-7.7115 -13.603,-10.3456 -23.13078,-12.014 -5.81489,-1.0182 -6.25932,-1.4009 -6.42644,-5.5338 -0.12202,-3.0175 0.36976,-5.4635 1.46129,-7.2683 1.35167,-2.2348 1.50799,-2.2908 6.0033,-2.1518 7.47054,0.231 11.81687,0.094 14.46748,-0.4555 4.93493,-1.0233 9.04,-2.8485 13.45346,-5.9816 4.47024,-3.1735 7.38105,-4.4054 9.47904,-4.0118 0.47874,0.09 1.36486,0.6383 2.17112,1.3438 0.74923,0.6556 1.65336,1.2554 2.00917,1.3329 1.09825,0.2391 1.9256,0.6115 2.04405,0.9202 0.15221,0.3967 3.52157,2.675 8.19077,5.5386 4.90328,3.0071 7.42379,4.7 9.86667,6.6269 l 1.95667,1.5433 -3.15129,2.3843 c -3.91165,2.9595 -7.29994,6.271 -8.08016,7.8972 -1.16051,2.4188 -0.80503,5.8978 0.67273,6.5838 0.96518,0.448 3.44168,0.5929 4.4494,0.2604 0.47827,-0.1579 1.09563,-0.6045 1.37191,-0.9925 0.693,-0.9732 1.69789,-1.4365 3.64687,-1.6812 1.09415,-0.1374 2.08197,-0.4463 2.89469,-0.9054 1.61351,-0.9114 6.20967,-2.7249 8.79137,-3.4688 3.49044,-1.0057 6.93,-1.4517 11.13875,-1.4444 4.84897,0.01 5.96041,0.2551 11.75432,2.6079 4.92297,1.9992 6.10312,2.6064 6.10312,3.1405 0,0.5197 -0.82194,0.7278 -3.55882,0.9014 -2.97996,0.189 -7.39132,1.0692 -11.76193,2.3471 -5.61201,1.6408 -7.63192,2.6672 -11.65876,5.9247 -1.41082,1.1413 -2.39846,1.7473 -3.17448,1.9479 -2.51766,0.6505 -10.40128,0.7821 -27.85274,0.4647 z"
       id="path8727" />
    <path
       style="fill:#a06e21;fill-opacity:1;stroke:none;stroke-width:0.208297;stroke-dasharray:none"
       d="m 721.16654,1209.6177 c -0.73203,-0.4545 -1.16021,-1.8826 -1.29437,-4.3172 -0.12239,-2.2212 -0.10611,-2.3216 0.43845,-2.703 0.42205,-0.2956 1.10145,-0.3961 2.67721,-0.3961 3.41411,0 4.2863,0.6069 4.76319,3.3142 0.49047,2.7845 -0.74537,4.0195 -4.25436,4.2516 -1.21244,0.08 -2.04635,0.027 -2.33012,-0.1495 z"
       id="path8729" />
    <path
       style="fill:#a06e21;fill-opacity:1;stroke:none;stroke-width:0.208297;stroke-dasharray:none"
       d="m 820.10053,1213.4521 c -4.06761,-0.3135 -5.39054,-0.8745 -4.34799,-1.8439 2.59188,-2.41 15.55803,-2.9574 19.23156,-0.8119 1.04962,0.613 0.98193,1.4643 -0.16086,2.0229 -1.60017,0.7823 -8.77957,1.0909 -14.72271,0.6329 z"
       id="path8731" />
    <path
       style="fill:#f6a934;fill-opacity:1;stroke:#f6a934;stroke-width:0.208297;stroke-dasharray:none;stroke-opacity:1"
       d="m 740.42764,211.95226 c -1.54733,-2.7661 -3.95188,-7.76262 -4.98902,-10.3669 -3.9803,-9.99466 -3.84012,-15.52969 0.51111,-20.18117 1.86785,-1.99674 3.20551,-3.01343 8.07042,-6.13391 6.107,-3.91719 8.47334,-6.1148 9.95718,-9.24716 2.246,-4.74125 2.34216,-16.2682 0.19277,-23.10669 -2.15901,-6.86906 -6.63717,-12.31812 -12.35691,-15.03596 -3.59008,-1.70589 -8.45371,-2.7909 -15.05124,-3.35773 -3.51857,-0.30231 -11.80247,-0.39738 -23.01093,-0.2641 -8.74809,0.10403 -10.57071,-0.0423 -16.18772,-1.29958 -4.06999,-0.911 -10.65837,-3.04618 -10.65837,-3.45419 0,-0.0982 0.28626,-0.30898 0.63612,-0.46839 2.13199,-0.9714 5.16088,-3.49798 5.8776,-4.90287 0.43088,-0.8446 0.48156,-1.25266 0.361,-2.9071 -0.26871,-3.68776 -1.89699,-10.07109 -3.84259,-15.064 -1.393,-3.574808 -1.6915,-4.910924 -1.66989,-7.474541 0.0349,-4.140358 1.02963,-6.546686 3.84758,-9.307709 3.63707,-3.563605 8.8825,-7.282402 13.05807,-9.257648 2.47365,-1.17016 6.85839,-2.788032 10.8183,-3.991715 l 2.12024,-0.644486 3.88833,0.908444 3.88833,0.908443 -2.08838,1.045443 c -3.0931,1.548411 -4.9533,3.000511 -5.53849,4.323423 -0.48131,1.088088 -0.4814,1.098324 -0.0145,1.723662 1.32025,1.768332 3.27686,1.454166 7.49889,-1.204068 2.81832,-1.774446 5.97076,-3.309039 6.82173,-3.320783 0.26366,-0.0036 2.66292,0.664244 5.33168,1.484186 l 4.85229,1.490801 -3.05456,0.761117 c -4.42961,1.103743 -6.79549,2.111227 -8.434,3.591516 -1.55593,1.405693 -1.49275,2.926772 0.15009,3.613192 1.12359,0.469467 3.0493,0.138353 5.34556,-0.919137 3.13387,-1.443231 6.64954,-2.332405 10.67016,-2.698673 l 1.67788,-0.15285 0.91586,1.711602 c 0.50372,0.941381 0.88124,1.743271 0.83894,1.781977 -0.0423,0.0387 -0.88589,0.239228 -1.87464,0.445605 -0.98876,0.206377 -2.87637,0.851085 -4.19471,1.432684 -2.87617,1.268859 -3.52228,1.976981 -4.66733,5.115318 -2.49397,6.83542 -2.75535,11.717811 -0.93266,17.421557 1.50852,4.72068 7.44607,14.05731 9.59589,15.08929 1.25781,0.60379 5.82192,4.84742 15.11939,14.05775 l 8.60357,8.52293 1.78832,5.75274 c 7.60547,24.46548 8.70751,31.90236 6.53559,44.10428 -0.69219,3.88876 -2.0267,9.06785 -2.75432,10.6892 -0.69555,1.54991 -2.17315,3.07503 -3.02736,3.12474 -0.29625,0.0172 -2.15659,0.0481 -4.13409,0.0685 -3.80054,0.0393 -5.54146,0.36189 -9.002,1.66809 -3.76035,1.41937 -8.30057,3.90798 -9.45307,5.18147 -0.2395,0.26465 -0.57688,0.48119 -0.74972,0.48119 -0.17285,0 -0.75171,-0.78202 -1.28637,-1.73781 z"
       id="path13309" />
    <path
       style="fill:#f9c393;fill-opacity:1;stroke:#f6a934;stroke-width:0.294576;stroke-dasharray:none;stroke-opacity:1"
       d="m 640.23472,338.47689 c -2.16246,-0.3857 -2.4993,-0.72581 -2.96575,-2.99446 -0.58103,-2.82595 -1.41368,-4.82624 -3.3598,-8.07127 -2.92387,-4.87537 -4.73787,-10.34369 -4.26589,-12.85956 0.57657,-3.07339 3.15242,-4.12787 8.66181,-3.54589 8.28131,0.87478 10.84885,1.06474 13.05084,0.96557 l 2.37288,-0.10687 v -1.65833 c 0,-2.38877 -0.66522,-2.77059 -5.93966,-3.40918 -10.91028,-1.32093 -19.54507,-5.13816 -28.9031,-12.77734 -8.6023,-7.02227 -14.58097,-16.80013 -17.69219,-28.93481 -1.64098,-6.40036 -1.98812,-10.4826 -1.77912,-20.92222 0.23897,-11.93702 1.65337,-22.85318 3.65386,-28.19997 0.8515,-2.27581 2.4065,-3.73416 3.68578,-3.45667 2.71224,0.5883 10.35424,1.28038 14.71268,1.33241 4.90684,0.0586 5.04188,0.041 5.67797,-0.74026 0.83372,-1.02397 0.83077,-2.24089 -0.007,-3.07913 -0.66839,-0.6684 -0.9222,-0.72886 -5.44263,-1.29653 -6.63833,-0.83363 -14.23729,-5.96267 -14.23729,-9.60969 0,-2.60129 2.24439,-5.72286 4.1147,-5.72286 1.8562,0 5.39375,1.03149 8.76665,2.55619 1.77119,0.80067 4.04888,1.69713 5.06153,1.99215 6.53546,1.90402 9.64012,-1.57 4.62301,-5.17301 -0.86281,-0.61963 -3.2804,-1.938 -5.37241,-2.92971 -3.47187,-1.64583 -5.32982,-2.86365 -5.32861,-3.49272 2.5e-4,-0.13257 0.22886,-1.53764 0.50801,-3.12239 0.65033,-3.69194 0.66195,-8.46801 0.0243,-9.99408 -0.45789,-1.09588 -0.39657,-1.45273 1.13035,-6.57813 1.58053,-5.30535 1.65469,-5.46279 3.52405,-7.48193 1.05025,-1.1344 3.78312,-4.76466 6.07304,-8.06726 6.57517,-9.4829 12.96179,-15.54251 15.66595,-14.86381 1.09265,0.27424 2.50241,1.79545 3.48663,3.76226 1.27845,2.5548 2.40007,3.90113 3.2485,3.89935 0.97613,-0.002 2.89579,-1.82254 3.53498,-3.35234 0.34482,-0.82527 0.564,-2.97209 0.68863,-6.74499 l 0.18281,-5.5344 1.63593,-0.829 c 0.89977,-0.45594 4.87316,-2.20817 8.82977,-3.89384 l 7.19383,-3.06485 5.10247,1.68999 c 9.49927,3.14626 10.19973,3.22715 28.4923,3.29016 19.06524,0.0657 23.93225,0.49931 30.43935,2.7121 5.74404,1.95332 10.35235,6.57846 13.06405,13.11177 1.63092,3.92939 2.18115,7.19842 2.18069,12.95595 -10e-4,11.34508 -1.20283,13.44864 -11.61629,20.33051 -8.00179,5.28809 -10.23839,7.8479 -11.24167,12.8662 -0.98606,4.93219 2.16185,15.17023 7.61329,24.76095 1.14293,2.01076 1.45721,2.85188 1.22658,3.2828 -0.17054,0.31866 -0.31007,1.18929 -0.31007,1.93475 0,2.2676 0.71834,2.18578 6.57462,-0.74893 2.81616,-1.41124 6.05757,-2.80143 7.20312,-3.08931 2.36537,-0.59441 5.81684,-0.67935 7.5899,-0.18677 5.08151,1.4117 7.60462,6.74401 5.76346,12.1804 -2.11888,6.25639 -7.84317,15.62103 -12.99281,21.25556 -2.56198,2.80321 -6.89547,6.15886 -9.73151,7.53559 l -2.54237,1.23418 -6.32922,0.0211 c -7.5969,0.0253 -7.53134,-0.002 -7.33481,3.08419 0.11225,1.76288 0.31642,2.34271 1.22144,3.46889 0.59766,0.74371 1.08666,1.70679 1.08666,2.14017 0,1.00565 -1.98946,4.40774 -5.38327,9.20572 -3.45971,4.89115 -5.01718,7.46986 -7.48521,12.39325 -3.18047,6.34465 -8.42591,13.57383 -11.16364,15.38558 -2.42898,1.60742 -6.99921,3.93611 -13.41488,6.83535 -16.06483,7.25968 -32.13237,17.20191 -42.71394,26.43043 -4.3087,3.75775 -6.42305,4.57713 -10.11282,3.91902 z m -2.83008,-62.13377 c 1.81364,-1.71048 1.87688,-2.83561 0.47987,-8.53691 -1.96291,-8.01079 -3.6104,-10.68757 -6.57793,-10.68757 -2.76741,0 -5.47558,2.03827 -6.20692,4.67155 -0.48403,1.74282 -0.44115,3.3256 0.15175,5.60191 1.13184,4.3454 3.37997,7.3795 6.69547,9.03628 2.72087,1.35963 3.94602,1.3405 5.45776,-0.0853 z m 100.46034,-33.33651 c 2.15025,-1.52043 3.79761,-3.6167 4.13406,-5.26057 l 0.23247,-1.13587 2.82039,-0.0468 c 2.18829,-0.0363 3.02082,-0.1922 3.71475,-0.69558 1.35315,-0.98158 2.34234,-3.31239 2.92186,-6.88473 0.28733,-1.77119 0.59317,-3.63983 0.67966,-4.15254 l 0.15726,-0.9322 h -2.39916 c -3.29395,0 -7.28743,1.38913 -13.76922,4.78963 l -5.17061,2.71263 0.0105,3.62175 c 0.0124,4.30448 0.49851,8.43341 1.07452,9.12746 0.76003,0.91578 3.46294,0.36338 5.59355,-1.14317 z m -80.27289,-46.54098 c 2.11471,-1.50582 3.74995,-6.28228 3.75883,-10.97944 0.005,-2.82031 -0.28178,-3.72756 -1.36272,-4.30606 -1.69819,-0.90885 -5.9785,2.62788 -7.71295,6.37307 -1.15824,2.50098 -1.45754,6.40983 -0.59194,7.7309 1.14355,1.74527 4.24587,2.36562 5.90878,1.18153 z m 43.52657,-41.23606 c 1.31057,-1.31057 2.6655,-8.09991 2.73489,-13.70415 0.0621,-5.0159 -0.85871,-5.59207 -8.93829,-5.59276 -4.95002,-4.5e-4 -5.36295,0.0505 -7.13173,0.88018 -2.25211,1.05636 -6.2899,4.825 -6.61949,6.17826 -0.13035,0.53518 -0.0594,1.33851 0.16092,1.82206 0.34147,0.74943 0.54951,0.83963 1.55889,0.67583 1.17484,-0.19065 3.66607,-1.68838 5.27726,-3.17269 2.33482,-2.15095 5.08497,-1.32732 6.81147,2.03993 0.36812,0.71796 1.1103,3.46161 1.64929,6.097 1.01421,4.959 1.36676,5.64847 2.88822,5.64847 0.40504,0 1.1289,-0.39246 1.60857,-0.87213 z"
       id="path13587" />
    <ellipse
       style="mix-blend-mode:normal;fill:#f4a787;fill-opacity:1;stroke:url(#radialGradient14702);stroke-width:0.869;stroke-dasharray:none;stroke-opacity:1;filter:url(#filter15477)"
       id="path13701"
       cx="684.4068"
       cy="254.91525"
       rx="16.61017"
       ry="17.627119" />
  </g>
</svg>
